<?xml version="1.0" encoding="UTF-8"?>
<!DOCTYPE svg PUBLIC "-//W3C//DTD SVG 1.1//EN" "http://www.w3.org/Graphics/SVG/1.1/DTD/svg11.dtd">
<svg xmlns="http://www.w3.org/2000/svg" version="1.1" width="96px" height="96px" style="shape-rendering:geometricPrecision; text-rendering:geometricPrecision; image-rendering:optimizeQuality; fill-rule:evenodd; clip-rule:evenodd" xmlns:xlink="http://www.w3.org/1999/xlink">
<g><path style="opacity:0.961" fill="#2198ee" d="M 78.5,28.5 C 72.5966,29.2711 66.7633,30.2711 61,31.5C 60.5357,30.9056 60.369,30.2389 60.5,29.5C 62.7191,24.2909 65.7191,19.6243 69.5,15.5C 72.8827,19.5526 75.8827,23.8859 78.5,28.5 Z"/></g>
<g><path style="opacity:0.942" fill="#198ce8" d="M 26.5,23.5 C 21.5296,24.3529 16.5296,25.0195 11.5,25.5C 13.1468,20.2011 15.8135,15.5344 19.5,11.5C 22.8507,14.8629 25.1841,18.8629 26.5,23.5 Z"/></g>
<g><path style="opacity:0.961" fill="#0979df" d="M 26.5,23.5 C 28.7499,34.4203 24.4166,37.9203 13.5,34C 11.8207,31.4355 11.154,28.6021 11.5,25.5C 16.5296,25.0195 21.5296,24.3529 26.5,23.5 Z"/></g>
<g><path style="opacity:0.976" fill="#178ae7" d="M 78.5,28.5 C 79.8333,31.1667 81.1667,33.8333 82.5,36.5C 73.2456,36.7263 64.2456,38.0597 55.5,40.5C 56.3824,36.4069 58.049,32.7403 60.5,29.5C 60.369,30.2389 60.5357,30.9056 61,31.5C 66.7633,30.2711 72.5966,29.2711 78.5,28.5 Z"/></g>
<g><path style="opacity:0.983" fill="#0e7fe2" d="M 82.5,36.5 C 83.1495,38.4352 83.4828,40.4352 83.5,42.5C 74.26,44.5352 64.9266,46.2019 55.5,47.5C 55.5,45.1667 55.5,42.8333 55.5,40.5C 64.2456,38.0597 73.2456,36.7263 82.5,36.5 Z"/></g>
<g><path style="opacity:0.968" fill="#0a75de" d="M 83.5,42.5 C 84.4005,49.7642 81.4005,54.5975 74.5,57C 65.186,59.414 58.8527,56.2473 55.5,47.5C 64.9266,46.2019 74.26,44.5352 83.5,42.5 Z"/></g>
<g><path style="opacity:0.967" fill="#2096ed" d="M 42.5,58.5 C 37.6142,59.7214 32.6142,60.3881 27.5,60.5C 29.3545,55.6501 32.0212,51.3167 35.5,47.5C 38.5901,50.6789 40.9234,54.3456 42.5,58.5 Z"/></g>
<g><path style="opacity:0.977" fill="#1183e4" d="M 42.5,58.5 C 45.2461,61.9991 46.9127,65.9991 47.5,70.5C 40.0811,70.9409 32.7478,71.9409 25.5,73.5C 24.8165,73.1373 24.1499,72.8039 23.5,72.5C 23.1603,67.8667 24.4936,63.8667 27.5,60.5C 32.6142,60.3881 37.6142,59.7214 42.5,58.5 Z"/></g>
<g><path style="opacity:0.971" fill="#0674dd" d="M 47.5,70.5 C 46.3037,82.4417 39.9703,86.275 28.5,82C 25.1078,79.7146 23.4411,76.548 23.5,72.5C 24.1499,72.8039 24.8165,73.1373 25.5,73.5C 32.7478,71.9409 40.0811,70.9409 47.5,70.5 Z"/></g>
</svg>
