<svg width="42" height="42" viewBox="0 0 42 42" fill="none" xmlns="http://www.w3.org/2000/svg">
<path d="M21 0.75C9.83379 0.75 0.75 9.83378 0.75 20.9999C0.75 32.1661 9.83379 41.25 21 41.25C32.1662 41.25 41.25 32.1661 41.25 20.9999C41.25 9.83378 32.1662 0.75 21 0.75ZM37.9534 22.6099C37.1897 30.7177 30.7175 37.1905 22.6105 37.9546V29.9747C22.6105 29.0857 21.8893 28.3648 21 28.3648C20.1107 28.3648 19.3895 29.0855 19.3895 29.9747V37.9546C11.2824 37.1905 4.81019 30.7175 4.04664 22.6099H12.0213C12.9104 22.6099 13.6317 21.8892 13.6317 21C13.6317 20.1108 12.9104 19.3901 12.0213 19.3901H4.04664C4.81019 11.2823 11.2824 4.80946 19.3895 4.04541V12.0253C19.3895 12.9143 20.1107 13.6352 21 13.6352C21.8893 13.6352 22.6105 12.9145 22.6105 12.0253V4.04541C30.7178 4.80946 37.1899 11.2825 37.9534 19.3901H29.9787C29.0896 19.3901 28.3682 20.1108 28.3682 21C28.3682 21.8892 29.0894 22.6099 29.9787 22.6099H37.9534Z" fill="#606060" stroke="#606060" stroke-width="0.5"/>
<circle cx="21" cy="21" r="4" fill="#606060"/>
<line x1="3.23223" y1="38.2322" x2="38.2322" y2="3.23223" stroke="#F10000" stroke-width="5"/>
</svg>
