<!-- Generated by IcoMoon.io -->
<svg version="1.1" xmlns="http://www.w3.org/2000/svg" width="30" height="32" viewBox="0 0 30 32">
<title>layer-map</title>
<path fill="#606060" stroke="#606060" stroke-linejoin="miter" stroke-linecap="butt" stroke-miterlimit="4" stroke-width="0.8" d="M25.035 12.876l3.723 2.327c0.275 0.172 0.442 0.473 0.442 0.797s-0.168 0.625-0.442 0.797c0 0 0 0-0 0l-3.723 2.327 3.723 2.327c0 0 0 0 0 0 0.275 0.172 0.442 0.473 0.442 0.797s-0.168 0.625-0.442 0.797l-3.723-10.17zM25.035 12.876l3.723-2.327c0.275-0.172 0.442-0.473 0.442-0.797s-0.168-0.625-0.442-0.797l-13.456-8.411c-0.306-0.192-0.696-0.192-1.002-0l-13.456 8.411c-0.275 0.172-0.442 0.472-0.442 0.797s0.168 0.625 0.442 0.797l3.722 2.327-3.722 2.327c-0.275 0.172-0.442 0.473-0.442 0.797s0.168 0.625 0.442 0.797c0 0 0 0 0 0l3.722 2.327-3.722 2.327c-0 0-0 0-0 0-0.275 0.172-0.442 0.473-0.442 0.797s0.168 0.625 0.442 0.797c0 0 0 0 0 0l13.456 8.411c0.153 0.096 0.327 0.144 0.501 0.144s0.348-0.048 0.501-0.144c0 0 0 0 0 0l13.457-8.411-3.723-10.17zM14.299 25.208v0c0.153 0.096 0.327 0.144 0.501 0.144s0.348-0.048 0.501-0.144l7.958-4.974 3.222 2.014-11.68 7.3-11.68-7.3 3.221-2.014 7.957 4.974zM14.8 17.053l-11.68-7.301 11.68-7.301 11.68 7.301-11.68 7.301zM14.8 23.301l-11.68-7.3 3.221-2.014 7.957 4.974c0 0 0 0 0 0 0.153 0.096 0.327 0.144 0.501 0.144s0.348-0.048 0.501-0.144c0 0 0 0 0-0l7.957-4.974 3.222 2.014-11.68 7.3z"></path>
</svg>
