<?xml version="1.0" encoding="UTF-8"?>
<!DOCTYPE svg PUBLIC "-//W3C//DTD SVG 1.1//EN" "http://www.w3.org/Graphics/SVG/1.1/DTD/svg11.dtd">
<svg xmlns="http://www.w3.org/2000/svg" version="1.1" width="362px" height="230px" style="shape-rendering:geometricPrecision; text-rendering:geometricPrecision; image-rendering:optimizeQuality; fill-rule:evenodd; clip-rule:evenodd" xmlns:xlink="http://www.w3.org/1999/xlink">
<g><path style="opacity:1" fill="#83dd91" d="M 23.5,-0.5 C 31.5,-0.5 39.5,-0.5 47.5,-0.5C 47.1616,2.32518 48.1616,4.49185 50.5,6C 55.8333,7.33333 61.1667,8.66667 66.5,10C 70.6871,12.0078 74.0204,14.3411 76.5,17C 76.6826,19.8932 76.3493,22.8932 75.5,26C 76.624,26.2492 77.624,26.7492 78.5,27.5C 79.0412,29.5352 79.7078,31.5352 80.5,33.5C 81.086,33.2907 81.586,32.9574 82,32.5C 83.4413,33.87 85.108,34.87 87,35.5C 90.2322,33.4771 93.7322,31.9771 97.5,31C 96.9341,30.0053 96.2674,29.172 95.5,28.5C 97.0315,27.029 98.0315,25.1956 98.5,23C 98.4428,20.7911 97.4428,19.2911 95.5,18.5C 97.0568,17.5337 98.3901,16.2004 99.5,14.5C 96.53,10.0304 93.03,6.03037 89,2.5C 88.5172,1.55198 88.3505,0.551975 88.5,-0.5C 90.8333,-0.5 93.1667,-0.5 95.5,-0.5C 94.244,5.1749 96.0774,9.50824 101,12.5C 101.483,13.448 101.649,14.448 101.5,15.5C 102.5,15.5 103.5,15.5 104.5,15.5C 104.5,16.8333 104.5,18.1667 104.5,19.5C 104.5,23.5 104.5,27.5 104.5,31.5C 100.177,33.8275 95.5101,35.1608 90.5,35.5C 90.4539,40.8616 87.7872,42.8616 82.5,41.5C 82.5792,40.0695 82.2458,38.7362 81.5,37.5C 75.8358,34.3512 72.3358,29.6845 71,23.5C 69.871,21.8588 68.371,20.8588 66.5,20.5C 66.5,18.8333 66.5,17.1667 66.5,15.5C 63.1667,15.5 59.8333,15.5 56.5,15.5C 53.5,15.5 50.5,15.5 47.5,15.5C 47.1924,17.924 47.5258,20.2573 48.5,22.5C 51.7878,24.4282 55.1211,26.2615 58.5,28C 59.3366,29.0113 59.67,30.1779 59.5,31.5C 60.8333,31.5 62.1667,31.5 63.5,31.5C 66.4872,39.4561 69.4872,47.4561 72.5,55.5C 70.3107,57.8867 68.6441,60.5534 67.5,63.5C 66.1667,63.5 64.8333,63.5 63.5,63.5C 64.5427,52.256 62.5427,41.5893 57.5,31.5C 55.1071,29.6369 52.4404,28.3035 49.5,27.5C 41.47,30.917 36.47,28.2504 34.5,19.5C 34.6799,18.4461 35.0133,17.4461 35.5,16.5C 34.8333,16.1667 34.1667,15.8333 33.5,15.5C 30.1283,17.1246 26.6283,18.458 23,19.5C 20.315,25.221 18.6483,31.221 18,37.5C 15.2389,40.2411 14.0722,43.5744 14.5,47.5C 15.5,47.5 16.5,47.5 17.5,47.5C 16.3954,57.6972 15.3954,67.8639 14.5,78C 16.5942,91.3642 23.9275,96.0309 36.5,92C 39.9125,89.2179 41.9125,86.0512 42.5,82.5C 43.6697,80.7215 45.3364,79.7215 47.5,79.5C 49.5,78.5 51.5,77.5 53.5,76.5C 50.7308,80.4782 47.5642,84.1449 44,87.5C 42.6481,90.9936 40.8148,94.1603 38.5,97C 32.3741,97.6202 26.3741,97.1202 20.5,95.5C 15.8359,93.5855 12.6692,90.2522 11,85.5C 13.0026,69.9575 13.8359,54.2908 13.5,38.5C 13.5,38.1667 13.5,37.8333 13.5,37.5C 14.2216,37.0825 14.7216,36.4158 15,35.5C 15.4996,28.8417 15.6663,22.175 15.5,15.5C 16.5,15.5 17.5,15.5 18.5,15.5C 18.3379,13.4727 18.5045,11.4727 19,9.5C 21.2379,6.4873 22.7379,3.15397 23.5,-0.5 Z"/></g>
<g><path style="opacity:1" fill="#8be790" d="M 47.5,-0.5 C 49.5,-0.5 51.5,-0.5 53.5,-0.5C 53.9156,1.75247 55.249,3.25247 57.5,4C 63.8333,4.66667 70.1667,4.66667 76.5,4C 77.3802,2.64387 77.7135,1.14387 77.5,-0.5C 81.1667,-0.5 84.8333,-0.5 88.5,-0.5C 88.3505,0.551975 88.5172,1.55198 89,2.5C 93.03,6.03037 96.53,10.0304 99.5,14.5C 98.3901,16.2004 97.0568,17.5337 95.5,18.5C 86.8003,16.0332 83.467,19.1998 85.5,28C 88.8168,28.4983 92.1501,28.665 95.5,28.5C 96.2674,29.172 96.9341,30.0053 97.5,31C 93.7322,31.9771 90.2322,33.4771 87,35.5C 85.108,34.87 83.4413,33.87 82,32.5C 81.586,32.9574 81.086,33.2907 80.5,33.5C 79.7078,31.5352 79.0412,29.5352 78.5,27.5C 77.624,26.7492 76.624,26.2492 75.5,26C 76.3493,22.8932 76.6826,19.8932 76.5,17C 74.0204,14.3411 70.6871,12.0078 66.5,10C 61.1667,8.66667 55.8333,7.33333 50.5,6C 48.1616,4.49185 47.1616,2.32518 47.5,-0.5 Z"/></g>
<g><path style="opacity:1" fill="#bbe1c6" d="M 97.5,-0.5 C 109.5,-0.5 121.5,-0.5 133.5,-0.5C 136.135,3.55418 138.302,7.88751 140,12.5C 140.759,14.0629 141.926,15.0629 143.5,15.5C 145.691,19.2239 147.358,23.2239 148.5,27.5C 147.087,31.7235 146.421,36.0568 146.5,40.5C 143.833,40.5 141.167,40.5 138.5,40.5C 132.491,38.2884 126.157,37.1217 119.5,37C 117.579,36.6397 115.912,35.8064 114.5,34.5C 112.61,29.6566 110.943,24.8233 109.5,20C 109.025,16.7744 107.358,13.7744 104.5,11C 104.833,10.6667 105.167,10.3333 105.5,10C 103.947,8.90321 102.614,7.56987 101.5,6C 101.833,5.66667 102.167,5.33333 102.5,5C 99.9441,3.94549 98.2775,2.11216 97.5,-0.5 Z"/></g>
<g><path style="opacity:1" fill="#bbe1c6" d="M 136.5,-0.5 C 160.5,-0.5 184.5,-0.5 208.5,-0.5C 208.666,4.84372 208.499,10.1771 208,15.5C 205.748,20.5957 204.581,25.9291 204.5,31.5C 208.172,32.0447 207.838,32.3781 203.5,32.5C 203.296,34.6854 202.63,36.6854 201.5,38.5C 199.407,37.9553 197.407,37.122 195.5,36C 189.937,30.7643 184.104,25.931 178,21.5C 177.127,21.7355 176.293,22.0688 175.5,22.5C 170.788,33.5477 162.454,39.5477 150.5,40.5C 150.167,40.5 149.833,40.5 149.5,40.5C 150.549,35.2 151.049,29.8666 151,24.5C 150.073,20.0817 147.573,17.0817 143.5,15.5C 141.939,9.8133 139.606,4.47996 136.5,-0.5 Z"/></g>
<g><path style="opacity:1" fill="#a7d8b5" d="M 208.5,-0.5 C 234.5,-0.5 260.5,-0.5 286.5,-0.5C 286.098,3.91237 285.265,8.2457 284,12.5C 279.594,21.1737 275.927,30.1737 273,39.5C 272.28,45.9929 271.114,52.3262 269.5,58.5C 267.833,58.5 266.167,58.5 264.5,58.5C 261.375,57.5206 258.042,57.1872 254.5,57.5C 255.209,56.596 256.209,56.2627 257.5,56.5C 257.083,53.9208 257.75,51.7542 259.5,50C 258.128,48.7581 257.128,47.2581 256.5,45.5C 252.435,44.4061 248.769,42.5727 245.5,40C 241.089,41.4991 237.422,40.4991 234.5,37C 233.207,36.51 231.873,36.3433 230.5,36.5C 230.401,39.5857 229.068,41.919 226.5,43.5C 218.025,42.0724 209.692,40.4058 201.5,38.5C 202.63,36.6854 203.296,34.6854 203.5,32.5C 207.838,32.3781 208.172,32.0447 204.5,31.5C 204.581,25.9291 205.748,20.5957 208,15.5C 208.499,10.1771 208.666,4.84372 208.5,-0.5 Z"/></g>
<g><path style="opacity:1" fill="#abe991" d="M 53.5,-0.5 C 61.5,-0.5 69.5,-0.5 77.5,-0.5C 77.7135,1.14387 77.3802,2.64387 76.5,4C 70.1667,4.66667 63.8333,4.66667 57.5,4C 55.249,3.25247 53.9156,1.75247 53.5,-0.5 Z"/></g>
<g><path style="opacity:1" fill="#86caaf" d="M 3.5,-0.5 C 5.5,-0.5 7.5,-0.5 9.5,-0.5C 10.3501,5.55353 11.5168,11.5535 13,17.5C 13.4996,24.1583 13.6663,30.825 13.5,37.5C 13.5,37.8333 13.5,38.1667 13.5,38.5C 13.11,41.7967 12.11,44.7967 10.5,47.5C 9.44802,47.6495 8.44802,47.4828 7.5,47C 8.72012,45.4747 9.38678,43.6413 9.5,41.5C 9.71204,38.9886 9.04537,36.8219 7.5,35C 8.44915,34.3828 9.28248,34.5494 10,35.5C 11.4364,32.1866 11.9364,28.8532 11.5,25.5C 10.2011,21.4123 8.53439,17.579 6.5,14C 6.83333,13.6667 7.16667,13.3333 7.5,13C 5.86449,11.566 4.86449,9.73263 4.5,7.5C 5.90227,6.15753 5.56893,5.3242 3.5,5C 3.35093,3.18429 3.35093,1.35096 3.5,-0.5 Z"/></g>
<g><path style="opacity:1" fill="#e8d687" d="M 133.5,-0.5 C 134.5,-0.5 135.5,-0.5 136.5,-0.5C 139.606,4.47996 141.939,9.8133 143.5,15.5C 141.926,15.0629 140.759,14.0629 140,12.5C 138.302,7.88751 136.135,3.55418 133.5,-0.5 Z"/></g>
<g><path style="opacity:1" fill="#83cb9e" d="M 9.5,-0.5 C 14.1667,-0.5 18.8333,-0.5 23.5,-0.5C 22.7379,3.15397 21.2379,6.4873 19,9.5C 18.5045,11.4727 18.3379,13.4727 18.5,15.5C 17.5,15.5 16.5,15.5 15.5,15.5C 15.6663,22.175 15.4996,28.8417 15,35.5C 14.7216,36.4158 14.2216,37.0825 13.5,37.5C 13.6663,30.825 13.4996,24.1583 13,17.5C 11.5168,11.5535 10.3501,5.55353 9.5,-0.5 Z"/></g>
<g><path style="opacity:1" fill="#81cab0" d="M 331.5,-0.5 C 332.167,-0.5 332.833,-0.5 333.5,-0.5C 333.069,4.68093 333.069,10.0143 333.5,15.5C 336.761,17.3769 341.095,18.3769 346.5,18.5C 355.897,19.8368 359.397,15.8368 357,6.5C 355.259,5.24234 353.426,4.24234 351.5,3.5C 350.737,2.73209 349.737,2.23209 348.5,2C 347.748,1.32924 347.414,0.495904 347.5,-0.5C 352.167,-0.5 356.833,-0.5 361.5,-0.5C 361.5,5.5 361.5,11.5 361.5,17.5C 359.089,19.2665 356.422,20.7665 353.5,22C 347.59,22.5288 341.757,22.0288 336,20.5C 333.287,20.411 330.787,21.0776 328.5,22.5C 323.096,28.9017 316.762,34.235 309.5,38.5C 308.525,43.3995 309.192,48.3995 311.5,53.5C 312.881,57.0494 314.881,60.2161 317.5,63C 324.121,66.8088 331.121,69.8088 338.5,72C 346.064,70.8833 353.731,70.05 361.5,69.5C 361.5,72.8333 361.5,76.1667 361.5,79.5C 359.167,79.5 356.833,79.5 354.5,79.5C 354.97,82.3456 354.137,84.6789 352,86.5C 351.333,88.1667 351.333,89.8333 352,91.5C 354.483,94.4887 357.65,95.8221 361.5,95.5C 361.5,96.8333 361.5,98.1667 361.5,99.5C 358.15,99.665 354.817,99.4983 351.5,99C 347.634,95.048 343.467,91.548 339,88.5C 331.97,91.9268 324.637,94.5935 317,96.5C 313.166,98.754 310.999,101.754 310.5,105.5C 309.167,105.5 307.833,105.5 306.5,105.5C 307.439,102.197 308.439,98.8635 309.5,95.5C 311.527,95.6621 313.527,95.4955 315.5,95C 318.414,92.6937 321.747,91.3604 325.5,91C 327.348,88.8208 329.515,86.9874 332,85.5C 332.015,83.2086 332.182,81.0419 332.5,79C 328.346,75.2889 324.013,72.1222 319.5,69.5C 317.732,67.8037 315.565,66.4704 313,65.5C 312.904,60.1806 310.737,56.0139 306.5,53C 302.246,53.0506 298.08,52.8839 294,52.5C 292.895,55.9371 290.728,58.4371 287.5,60C 281.833,60.6667 276.167,60.6667 270.5,60C 269.944,59.6174 269.611,59.1174 269.5,58.5C 275.004,58.638 280.338,57.8047 285.5,56C 291.027,50.473 296.527,44.973 302,39.5C 302.693,31.2685 300.026,24.9352 294,20.5C 291.098,16.6261 291.598,12.9594 295.5,9.5C 297.421,8.35901 299.421,8.19234 301.5,9C 305.52,11.0344 309.52,13.0344 313.5,15C 320.377,16.8859 326.043,15.2192 330.5,10C 329.075,8.28587 329.408,6.95254 331.5,6C 330.655,4.0784 330.655,1.91173 331.5,-0.5 Z"/></g>
<g><path style="opacity:1" fill="#84e191" d="M 335.5,-0.5 C 339.5,-0.5 343.5,-0.5 347.5,-0.5C 347.414,0.495904 347.748,1.32924 348.5,2C 349.737,2.23209 350.737,2.73209 351.5,3.5C 351.682,5.67458 352.349,7.67458 353.5,9.5C 352.106,11.6457 351.44,13.979 351.5,16.5C 346.189,17.4815 341.855,15.9815 338.5,12C 337.552,11.5172 336.552,11.3505 335.5,11.5C 335.5,7.5 335.5,3.5 335.5,-0.5 Z"/></g>
<g><path style="opacity:1" fill="#82d396" d="M 56.5,15.5 C 55.2599,16.973 54.2599,18.6396 53.5,20.5C 56.0125,22.9257 59.0125,24.5924 62.5,25.5C 63.4656,27.396 63.7989,29.396 63.5,31.5C 62.1667,31.5 60.8333,31.5 59.5,31.5C 59.67,30.1779 59.3366,29.0113 58.5,28C 55.1211,26.2615 51.7878,24.4282 48.5,22.5C 47.5258,20.2573 47.1924,17.924 47.5,15.5C 50.5,15.5 53.5,15.5 56.5,15.5 Z"/></g>
<g><path style="opacity:1" fill="#76c4a8" d="M 248.5,5.5 C 250.309,4.70927 252.309,4.70927 254.5,5.5C 256.601,10.214 258.601,15.0473 260.5,20C 259.458,22.5408 257.625,24.3742 255,25.5C 254.228,25.3552 253.561,25.0219 253,24.5C 251.4,21.0597 249.567,17.7264 247.5,14.5C 247.709,13.914 248.043,13.414 248.5,13C 245.808,10.3676 246.141,8.03424 249.5,6C 249.272,5.60123 248.938,5.43456 248.5,5.5 Z"/></g>
<g><path style="opacity:1" fill="#bae1c6" d="M 286.5,-0.5 C 301.5,-0.5 316.5,-0.5 331.5,-0.5C 330.655,1.91173 330.655,4.0784 331.5,6C 329.408,6.95254 329.075,8.28587 330.5,10C 326.043,15.2192 320.377,16.8859 313.5,15C 309.52,13.0344 305.52,11.0344 301.5,9C 299.421,8.19234 297.421,8.35901 295.5,9.5C 291.598,12.9594 291.098,16.6261 294,20.5C 300.026,24.9352 302.693,31.2685 302,39.5C 296.527,44.973 291.027,50.473 285.5,56C 280.338,57.8047 275.004,58.638 269.5,58.5C 271.114,52.3262 272.28,45.9929 273,39.5C 275.927,30.1737 279.594,21.1737 284,12.5C 285.265,8.2457 286.098,3.91237 286.5,-0.5 Z"/></g>
<g><path style="opacity:1" fill="#80cc9c" d="M 333.5,-0.5 C 334.167,-0.5 334.833,-0.5 335.5,-0.5C 335.5,3.5 335.5,7.5 335.5,11.5C 336.552,11.3505 337.552,11.5172 338.5,12C 341.855,15.9815 346.189,17.4815 351.5,16.5C 351.44,13.979 352.106,11.6457 353.5,9.5C 352.349,7.67458 351.682,5.67458 351.5,3.5C 353.426,4.24234 355.259,5.24234 357,6.5C 359.397,15.8368 355.897,19.8368 346.5,18.5C 341.095,18.3769 336.761,17.3769 333.5,15.5C 333.069,10.0143 333.069,4.68093 333.5,-0.5 Z"/></g>
<g><path style="opacity:1" fill="#82ca9d" d="M 56.5,15.5 C 59.8333,15.5 63.1667,15.5 66.5,15.5C 66.5,17.1667 66.5,18.8333 66.5,20.5C 68.9489,23.7366 70.6156,27.4032 71.5,31.5C 74.476,35.8138 77.1427,40.1472 79.5,44.5C 83.7326,44.3319 84.7326,45.6652 82.5,48.5C 84.5195,51.2667 86.6862,53.9334 89,56.5C 89.4828,57.448 89.6495,58.448 89.5,59.5C 86.6306,58.3932 84.6306,56.3932 83.5,53.5C 82.3112,52.5713 80.9778,52.238 79.5,52.5C 79.2895,49.0296 78.1229,49.0296 76,52.5C 75.7978,54.2556 75.2978,55.9223 74.5,57.5C 71.7258,59.1261 69.3925,61.1261 67.5,63.5C 68.6441,60.5534 70.3107,57.8867 72.5,55.5C 69.4872,47.4561 66.4872,39.4561 63.5,31.5C 63.7989,29.396 63.4656,27.396 62.5,25.5C 59.0125,24.5924 56.0125,22.9257 53.5,20.5C 54.2599,18.6396 55.2599,16.973 56.5,15.5 Z"/></g>
<g><path style="opacity:1" fill="#82c6a0" d="M 307.5,20.5 C 312.167,20.5 316.833,20.5 321.5,20.5C 321.201,25.6284 318.368,28.2951 313,28.5C 310.914,27.5819 308.747,26.9153 306.5,26.5C 306.325,24.3792 306.659,22.3792 307.5,20.5 Z"/></g>
<g><path style="opacity:1" fill="#8ee892" d="M 63.5,63.5 C 63.5,64.5 63.5,65.5 63.5,66.5C 62.3172,67.5045 60.9839,68.3378 59.5,69C 57.3327,71.4248 55.3327,73.9248 53.5,76.5C 51.5,77.5 49.5,78.5 47.5,79.5C 48.9952,75.1605 51.8285,71.8272 56,69.5C 57.128,67.6547 57.628,65.6547 57.5,63.5C 58.5,63.5 59.5,63.5 60.5,63.5C 62.0573,52.9289 59.3906,43.7622 52.5,36C 45.3475,34.7417 40.3475,37.4083 37.5,44C 35.4213,44.8077 33.4213,44.641 31.5,43.5C 28.6593,39.5861 25.826,39.5861 23,43.5C 21.8239,52.89 20.3239,62.2233 18.5,71.5C 18.0565,83.6992 23.7231,88.6992 35.5,86.5C 37.1534,84.0529 39.4868,82.7196 42.5,82.5C 41.9125,86.0512 39.9125,89.2179 36.5,92C 23.9275,96.0309 16.5942,91.3642 14.5,78C 15.3954,67.8639 16.3954,57.6972 17.5,47.5C 16.5,47.5 15.5,47.5 14.5,47.5C 14.0722,43.5744 15.2389,40.2411 18,37.5C 18.6483,31.221 20.315,25.221 23,19.5C 26.6283,18.458 30.1283,17.1246 33.5,15.5C 34.1667,15.8333 34.8333,16.1667 35.5,16.5C 35.0133,17.4461 34.6799,18.4461 34.5,19.5C 36.47,28.2504 41.47,30.917 49.5,27.5C 52.4404,28.3035 55.1071,29.6369 57.5,31.5C 62.5427,41.5893 64.5427,52.256 63.5,63.5 Z"/></g>
<g><path style="opacity:1" fill="#c3e991" d="M 95.5,18.5 C 97.4428,19.2911 98.4428,20.7911 98.5,23C 98.0315,25.1956 97.0315,27.029 95.5,28.5C 92.1501,28.665 88.8168,28.4983 85.5,28C 83.467,19.1998 86.8003,16.0332 95.5,18.5 Z"/></g>
<g><path style="opacity:1" fill="#bae1c7" d="M 361.5,17.5 C 361.5,27.5 361.5,37.5 361.5,47.5C 350.147,47.1678 338.814,47.5012 327.5,48.5C 324.837,51.1708 322.003,53.5042 319,55.5C 318.653,53.8198 317.653,52.8198 316,52.5C 314.56,53.1476 313.06,53.4809 311.5,53.5C 309.192,48.3995 308.525,43.3995 309.5,38.5C 316.762,34.235 323.096,28.9017 328.5,22.5C 330.787,21.0776 333.287,20.411 336,20.5C 341.757,22.0288 347.59,22.5288 353.5,22C 356.422,20.7665 359.089,19.2665 361.5,17.5 Z"/></g>
<g><path style="opacity:1" fill="#e5d589" d="M 143.5,15.5 C 147.573,17.0817 150.073,20.0817 151,24.5C 151.049,29.8666 150.549,35.2 149.5,40.5C 148.5,40.5 147.5,40.5 146.5,40.5C 146.421,36.0568 147.087,31.7235 148.5,27.5C 147.358,23.2239 145.691,19.2239 143.5,15.5 Z"/></g>
<g><path style="opacity:1" fill="#7ec599" d="M 195.5,43.5 C 192.821,43.4754 191.488,42.142 191.5,39.5C 189.801,39.6602 188.134,39.4935 186.5,39C 183.105,35.4881 179.105,34.6548 174.5,36.5C 172.298,39.0588 169.632,40.7255 166.5,41.5C 163.507,43.4964 160.174,44.4964 156.5,44.5C 156.715,46.1788 156.048,47.1788 154.5,47.5C 154.539,46.2438 154.039,45.2438 153,44.5C 152.667,48.1667 152.333,51.8333 152,55.5C 151,56.5 150,57.5 149,58.5C 147.556,56.8446 145.722,56.178 143.5,56.5C 142.081,55.5489 140.415,55.2155 138.5,55.5C 138.5,55.1667 138.5,54.8333 138.5,54.5C 142.5,54.5 146.5,54.5 150.5,54.5C 151.482,51.0381 151.815,47.3714 151.5,43.5C 159.323,43.9208 165.656,41.0875 170.5,35C 172.025,33.9914 173.692,33.4914 175.5,33.5C 175.5,32.1667 175.5,30.8333 175.5,29.5C 178.684,30.6427 182.017,31.3094 185.5,31.5C 185.393,33.9032 186.393,35.7365 188.5,37C 191.405,38.0375 194.239,39.2042 197,40.5C 197.239,41.788 196.739,42.788 195.5,43.5 Z"/></g>
<g><path style="opacity:1" fill="#83dc92" d="M 195.5,43.5 C 195.833,44.5 196.5,45.1667 197.5,45.5C 202.705,49.6032 208.372,52.9365 214.5,55.5C 210.928,55.0624 207.428,54.3958 204,53.5C 203.667,53.8333 203.333,54.1667 203,54.5C 192.291,48.9247 188.791,51.4247 192.5,62C 192.095,62.9454 191.428,63.6121 190.5,64C 194.375,67.3807 198.375,70.5474 202.5,73.5C 198.889,73.3605 196.223,71.6938 194.5,68.5C 189.432,68.5828 186.265,66.2495 185,61.5C 182.92,59.8767 180.754,58.3767 178.5,57C 173.82,57.0349 169.153,57.5349 164.5,58.5C 161.976,56.8131 159.31,55.4798 156.5,54.5C 156.318,52.4086 156.652,50.4086 157.5,48.5C 160.993,46.5953 163.993,44.262 166.5,41.5C 169.632,40.7255 172.298,39.0588 174.5,36.5C 179.105,34.6548 183.105,35.4881 186.5,39C 188.134,39.4935 189.801,39.6602 191.5,39.5C 191.488,42.142 192.821,43.4754 195.5,43.5 Z"/></g>
<g><path style="opacity:1" fill="#bae1c6" d="M 254.5,57.5 C 249.3,56.7613 244.133,57.0947 239,58.5C 233.167,57.3333 229.667,53.8333 228.5,48C 228.833,47.6667 229.167,47.3333 229.5,47C 227.574,46.5776 226.574,45.4109 226.5,43.5C 229.068,41.919 230.401,39.5857 230.5,36.5C 231.873,36.3433 233.207,36.51 234.5,37C 237.422,40.4991 241.089,41.4991 245.5,40C 248.769,42.5727 252.435,44.4061 256.5,45.5C 257.128,47.2581 258.128,48.7581 259.5,50C 257.75,51.7542 257.083,53.9208 257.5,56.5C 256.209,56.2627 255.209,56.596 254.5,57.5 Z"/></g>
<g><path style="opacity:1" fill="#82c9a5" d="M 95.5,-0.5 C 96.1667,-0.5 96.8333,-0.5 97.5,-0.5C 98.2775,2.11216 99.9441,3.94549 102.5,5C 102.167,5.33333 101.833,5.66667 101.5,6C 102.614,7.56987 103.947,8.90321 105.5,10C 105.167,10.3333 104.833,10.6667 104.5,11C 107.358,13.7744 109.025,16.7744 109.5,20C 110.943,24.8233 112.61,29.6566 114.5,34.5C 115.912,35.8064 117.579,36.6397 119.5,37C 126.157,37.1217 132.491,38.2884 138.5,40.5C 137.699,42.0418 137.366,43.7085 137.5,45.5C 136.711,45.2172 136.044,44.7172 135.5,44C 127.784,43.8014 120.118,43.3014 112.5,42.5C 109.7,43.7319 106.7,44.3985 103.5,44.5C 96.8479,46.2797 93.1812,43.9464 92.5,37.5C 97.7944,37.2691 102.294,35.2691 106,31.5C 106.798,27.2191 106.298,23.2191 104.5,19.5C 104.5,18.1667 104.5,16.8333 104.5,15.5C 103.5,15.5 102.5,15.5 101.5,15.5C 101.649,14.448 101.483,13.448 101,12.5C 96.0774,9.50824 94.244,5.1749 95.5,-0.5 Z"/></g>
<g><path style="opacity:1" fill="#80b095" d="M 138.5,40.5 C 141.167,40.5 143.833,40.5 146.5,40.5C 147.5,40.5 148.5,40.5 149.5,40.5C 149.833,40.5 150.167,40.5 150.5,40.5C 150.5,40.8333 150.5,41.1667 150.5,41.5C 146.774,41.1774 143.107,41.5108 139.5,42.5C 140.257,45.038 141.59,45.7047 143.5,44.5C 143.833,44.5 144.167,44.5 144.5,44.5C 145.568,45.4345 146.901,45.7678 148.5,45.5C 148.808,47.924 148.474,50.2573 147.5,52.5C 146.749,51.624 146.249,50.624 146,49.5C 144.677,52.0586 142.843,52.7253 140.5,51.5C 141.609,49.7859 140.942,49.1192 138.5,49.5C 138.5,51.1667 138.5,52.8333 138.5,54.5C 137.523,51.7131 137.19,48.7131 137.5,45.5C 137.366,43.7085 137.699,42.0418 138.5,40.5 Z"/></g>
<g><path style="opacity:1" fill="#b9e0c6" d="M -0.5,-0.5 C 0.833333,-0.5 2.16667,-0.5 3.5,-0.5C 3.35093,1.35096 3.35093,3.18429 3.5,5C 5.56893,5.3242 5.90227,6.15753 4.5,7.5C 4.86449,9.73263 5.86449,11.566 7.5,13C 7.16667,13.3333 6.83333,13.6667 6.5,14C 8.53439,17.579 10.2011,21.4123 11.5,25.5C 11.9364,28.8532 11.4364,32.1866 10,35.5C 9.28248,34.5494 8.44915,34.3828 7.5,35C 9.04537,36.8219 9.71204,38.9886 9.5,41.5C 9.38678,43.6413 8.72012,45.4747 7.5,47C 8.44802,47.4828 9.44802,47.6495 10.5,47.5C 10.5,47.8333 10.5,48.1667 10.5,48.5C 10.3774,55.2026 9.87744,61.8693 9,68.5C 6.41291,75.3059 4.24624,82.3059 2.5,89.5C 2.62252,92.0442 2.62252,94.5442 2.5,97C 1.47344,97.5133 0.473444,98.0133 -0.5,98.5C -0.5,65.5 -0.5,32.5 -0.5,-0.5 Z"/></g>
<g><path style="opacity:1" fill="#aad7bf" d="M 150.5,41.5 C 150.5,45.8333 150.5,50.1667 150.5,54.5C 146.5,54.5 142.5,54.5 138.5,54.5C 138.5,52.8333 138.5,51.1667 138.5,49.5C 140.942,49.1192 141.609,49.7859 140.5,51.5C 142.843,52.7253 144.677,52.0586 146,49.5C 146.249,50.624 146.749,51.624 147.5,52.5C 148.474,50.2573 148.808,47.924 148.5,45.5C 146.901,45.7678 145.568,45.4345 144.5,44.5C 145.773,43.9232 145.773,43.2565 144.5,42.5C 143.702,42.9569 143.369,43.6236 143.5,44.5C 141.59,45.7047 140.257,45.038 139.5,42.5C 143.107,41.5108 146.774,41.1774 150.5,41.5 Z"/></g>
<g><path style="opacity:1" fill="#437367" d="M 144.5,44.5 C 144.167,44.5 143.833,44.5 143.5,44.5C 143.369,43.6236 143.702,42.9569 144.5,42.5C 145.773,43.2565 145.773,43.9232 144.5,44.5 Z"/></g>
<g><path style="opacity:1" fill="#81d098" d="M 154.5,47.5 C 154.428,50.1933 154.095,52.8599 153.5,55.5C 154.215,59.2325 156.215,60.2325 159.5,58.5C 162.24,59.5811 165.073,60.5811 168,61.5C 170.727,60.9371 173.393,60.2705 176,59.5C 177.992,60.3281 179.492,61.6614 180.5,63.5C 173.66,63.2716 166.66,63.2716 159.5,63.5C 159.579,64.9305 159.246,66.2638 158.5,67.5C 155.031,69.7995 151.698,72.2995 148.5,75C 146.444,75.3108 144.444,75.8108 142.5,76.5C 141.033,75.3047 139.533,75.3047 138,76.5C 136.739,76.2409 135.739,75.5742 135,74.5C 134.617,75.056 134.117,75.3893 133.5,75.5C 133.281,74.325 133.614,73.325 134.5,72.5C 136.713,75.0801 138.88,75.0801 141,72.5C 141.308,73.3081 141.808,73.9747 142.5,74.5C 143.334,72.1655 144.667,70.1655 146.5,68.5C 145.35,65.6795 144.184,65.3462 143,67.5C 142.51,66.2068 142.343,64.8734 142.5,63.5C 141.167,63.5 139.833,63.5 138.5,63.5C 139.875,60.9729 141.542,58.6396 143.5,56.5C 145.722,56.178 147.556,56.8446 149,58.5C 150,57.5 151,56.5 152,55.5C 152.333,51.8333 152.667,48.1667 153,44.5C 154.039,45.2438 154.539,46.2438 154.5,47.5 Z"/></g>
<g><path style="opacity:1" fill="#7cc69b" d="M 234.5,63.5 C 232.473,63.6621 230.473,63.4955 228.5,63C 227.347,61.117 225.681,60.2837 223.5,60.5C 223.5,59.5 223.5,58.5 223.5,57.5C 220.461,56.99 217.461,56.3234 214.5,55.5C 208.372,52.9365 202.705,49.6032 197.5,45.5C 198.893,44.7402 200.393,44.0735 202,43.5C 206.123,44.9052 210.29,46.0719 214.5,47C 217.482,47.498 220.482,47.6646 223.5,47.5C 223.5,50.1667 223.5,52.8333 223.5,55.5C 226.942,58.3932 230.942,60.5599 235.5,62C 234.944,62.3826 234.611,62.8826 234.5,63.5 Z"/></g>
<g><path style="opacity:1" fill="#80d493" d="M 166.5,41.5 C 163.993,44.262 160.993,46.5953 157.5,48.5C 156.652,50.4086 156.318,52.4086 156.5,54.5C 159.31,55.4798 161.976,56.8131 164.5,58.5C 169.153,57.5349 173.82,57.0349 178.5,57C 180.754,58.3767 182.92,59.8767 185,61.5C 186.265,66.2495 189.432,68.5828 194.5,68.5C 196.223,71.6938 198.889,73.3605 202.5,73.5C 202.5,74.1667 202.5,74.8333 202.5,75.5C 200.914,74.8519 199.247,74.3519 197.5,74C 191.985,70.0684 186.318,66.5684 180.5,63.5C 179.492,61.6614 177.992,60.3281 176,59.5C 173.393,60.2705 170.727,60.9371 168,61.5C 165.073,60.5811 162.24,59.5811 159.5,58.5C 156.215,60.2325 154.215,59.2325 153.5,55.5C 154.095,52.8599 154.428,50.1933 154.5,47.5C 156.048,47.1788 156.715,46.1788 156.5,44.5C 160.174,44.4964 163.507,43.4964 166.5,41.5 Z"/></g>
<g><path style="opacity:1" fill="#80c8ad" d="M 201.5,38.5 C 209.692,40.4058 218.025,42.0724 226.5,43.5C 226.574,45.4109 227.574,46.5776 229.5,47C 229.167,47.3333 228.833,47.6667 228.5,48C 229.667,53.8333 233.167,57.3333 239,58.5C 244.133,57.0947 249.3,56.7613 254.5,57.5C 258.042,57.1872 261.375,57.5206 264.5,58.5C 255.982,59.5233 247.648,61.19 239.5,63.5C 237.833,63.5 236.167,63.5 234.5,63.5C 234.611,62.8826 234.944,62.3826 235.5,62C 230.942,60.5599 226.942,58.3932 223.5,55.5C 223.5,52.8333 223.5,50.1667 223.5,47.5C 220.482,47.6646 217.482,47.498 214.5,47C 210.29,46.0719 206.123,44.9052 202,43.5C 200.393,44.0735 198.893,44.7402 197.5,45.5C 196.5,45.1667 195.833,44.5 195.5,43.5C 196.739,42.788 197.239,41.788 197,40.5C 194.239,39.2042 191.405,38.0375 188.5,37C 186.393,35.7365 185.393,33.9032 185.5,31.5C 182.017,31.3094 178.684,30.6427 175.5,29.5C 175.5,30.8333 175.5,32.1667 175.5,33.5C 173.692,33.4914 172.025,33.9914 170.5,35C 165.656,41.0875 159.323,43.9208 151.5,43.5C 151.815,47.3714 151.482,51.0381 150.5,54.5C 150.5,50.1667 150.5,45.8333 150.5,41.5C 150.5,41.1667 150.5,40.8333 150.5,40.5C 162.454,39.5477 170.788,33.5477 175.5,22.5C 176.293,22.0688 177.127,21.7355 178,21.5C 184.104,25.931 189.937,30.7643 195.5,36C 197.407,37.122 199.407,37.9553 201.5,38.5 Z"/></g>
<g><path style="opacity:1" fill="#82d396" d="M 104.5,19.5 C 106.298,23.2191 106.798,27.2191 106,31.5C 102.294,35.2691 97.7944,37.2691 92.5,37.5C 93.1812,43.9464 96.8479,46.2797 103.5,44.5C 106.7,44.3985 109.7,43.7319 112.5,42.5C 120.118,43.3014 127.784,43.8014 135.5,44C 136.044,44.7172 136.711,45.2172 137.5,45.5C 137.19,48.7131 137.523,51.7131 138.5,54.5C 138.5,54.8333 138.5,55.1667 138.5,55.5C 138.167,56.5 137.5,57.1667 136.5,57.5C 136.979,53.0887 136.312,48.922 134.5,45C 127.233,44.7335 120.066,45.5668 113,47.5C 107.292,47.096 101.625,46.4294 96,45.5C 93.3673,45.9232 91.2006,47.0899 89.5,49C 90.5358,51.7741 91.3691,54.6074 92,57.5C 94.5723,59.8081 95.739,62.8081 95.5,66.5C 95.3333,68.8333 95.1667,71.1667 95,73.5C 94.7216,74.4158 94.2216,75.0825 93.5,75.5C 94.2834,71.8542 94.4501,68.1875 94,64.5C 92.2608,62.9571 90.7608,61.2904 89.5,59.5C 89.6495,58.448 89.4828,57.448 89,56.5C 86.6862,53.9334 84.5195,51.2667 82.5,48.5C 84.7326,45.6652 83.7326,44.3319 79.5,44.5C 77.1427,40.1472 74.476,35.8138 71.5,31.5C 70.6156,27.4032 68.9489,23.7366 66.5,20.5C 68.371,20.8588 69.871,21.8588 71,23.5C 72.3358,29.6845 75.8358,34.3512 81.5,37.5C 82.2458,38.7362 82.5792,40.0695 82.5,41.5C 87.7872,42.8616 90.4539,40.8616 90.5,35.5C 95.5101,35.1608 100.177,33.8275 104.5,31.5C 104.5,27.5 104.5,23.5 104.5,19.5 Z"/></g>
<g><path style="opacity:1" fill="#83df90" d="M 136.5,57.5 C 136.267,59.0618 135.6,60.3951 134.5,61.5C 130.444,65.1984 128.777,69.865 129.5,75.5C 129.5,76.8333 129.5,78.1667 129.5,79.5C 127.076,79.1924 124.743,79.5258 122.5,80.5C 121.872,82.2581 120.872,83.7581 119.5,85C 114.377,88.0439 109.044,90.7105 103.5,93C 102.619,93.7083 101.953,94.5416 101.5,95.5C 100.833,95.5 100.167,95.5 99.5,95.5C 95.6909,94.8232 92.8576,96.1565 91,99.5C 89.413,98.6633 88.5796,97.3299 88.5,95.5C 90.5819,90.397 91.5819,85.0636 91.5,79.5C 92.1667,78.1667 92.8333,76.8333 93.5,75.5C 94.2216,75.0825 94.7216,74.4158 95,73.5C 95.1667,71.1667 95.3333,68.8333 95.5,66.5C 95.739,62.8081 94.5723,59.8081 92,57.5C 91.3691,54.6074 90.5358,51.7741 89.5,49C 91.2006,47.0899 93.3673,45.9232 96,45.5C 101.625,46.4294 107.292,47.096 113,47.5C 120.066,45.5668 127.233,44.7335 134.5,45C 136.312,48.922 136.979,53.0887 136.5,57.5 Z"/></g>
<g><path style="opacity:1" fill="#99c878" d="M 138.5,55.5 C 140.415,55.2155 142.081,55.5489 143.5,56.5C 141.542,58.6396 139.875,60.9729 138.5,63.5C 137.833,63.5 137.167,63.5 136.5,63.5C 136.5,62.1667 135.833,61.5 134.5,61.5C 135.6,60.3951 136.267,59.0618 136.5,57.5C 137.5,57.1667 138.167,56.5 138.5,55.5 Z"/></g>
<g><path style="opacity:1" fill="#abdbb8" d="M 361.5,47.5 C 361.5,54.8333 361.5,62.1667 361.5,69.5C 353.731,70.05 346.064,70.8833 338.5,72C 331.121,69.8088 324.121,66.8088 317.5,63C 314.881,60.2161 312.881,57.0494 311.5,53.5C 313.06,53.4809 314.56,53.1476 316,52.5C 317.653,52.8198 318.653,53.8198 319,55.5C 322.003,53.5042 324.837,51.1708 327.5,48.5C 338.814,47.5012 350.147,47.1678 361.5,47.5 Z"/></g>
<g><path style="opacity:1" fill="#82c99d" d="M 180.5,63.5 C 186.318,66.5684 191.985,70.0684 197.5,74C 199.247,74.3519 200.914,74.8519 202.5,75.5C 204.104,76.287 204.771,77.6203 204.5,79.5C 207.406,80.4117 209.739,82.0783 211.5,84.5C 211.5,85.1667 211.5,85.8333 211.5,86.5C 209.377,83.4382 206.377,81.9382 202.5,82C 202.491,80.2703 202.158,78.437 201.5,76.5C 197.671,76.1767 194.338,74.8434 191.5,72.5C 185.322,74.4606 178.989,75.6272 172.5,76C 166.397,80.7785 160.564,80.6119 155,75.5C 151.546,76.1235 148.212,77.1235 145,78.5C 142.73,77.0012 140.73,77.3346 139,79.5C 138.05,78.9777 137.216,78.311 136.5,77.5C 135.935,79.5435 134.935,81.2102 133.5,82.5C 133.5,80.5 133.5,78.5 133.5,76.5C 133.5,76.1667 133.5,75.8333 133.5,75.5C 134.117,75.3893 134.617,75.056 135,74.5C 135.739,75.5742 136.739,76.2409 138,76.5C 139.533,75.3047 141.033,75.3047 142.5,76.5C 144.444,75.8108 146.444,75.3108 148.5,75C 151.698,72.2995 155.031,69.7995 158.5,67.5C 159.246,66.2638 159.579,64.9305 159.5,63.5C 166.66,63.2716 173.66,63.2716 180.5,63.5 Z"/></g>
<g><path style="opacity:1" fill="#82db91" d="M 136.5,63.5 C 137.167,63.5 137.833,63.5 138.5,63.5C 139.833,63.5 141.167,63.5 142.5,63.5C 142.343,64.8734 142.51,66.2068 143,67.5C 144.184,65.3462 145.35,65.6795 146.5,68.5C 144.667,70.1655 143.334,72.1655 142.5,74.5C 141.808,73.9747 141.308,73.3081 141,72.5C 138.88,75.0801 136.713,75.0801 134.5,72.5C 133.614,73.325 133.281,74.325 133.5,75.5C 133.5,75.8333 133.5,76.1667 133.5,76.5C 132.833,76.5 132.5,76.1667 132.5,75.5C 132.765,71.009 134.098,67.009 136.5,63.5 Z"/></g>
<g><path style="opacity:1" fill="#78c497" d="M 319.5,69.5 C 315.486,69.3345 311.486,69.5012 307.5,70C 306.675,71.6883 305.675,71.8549 304.5,70.5C 303.571,71.6888 303.238,73.0222 303.5,74.5C 299.774,74.8226 296.107,74.4892 292.5,73.5C 290.797,70.0937 289.13,66.7603 287.5,63.5C 285.5,63.5 283.5,63.5 281.5,63.5C 280.167,63.5 278.833,63.5 277.5,63.5C 264.991,62.3339 252.325,62.3339 239.5,63.5C 247.648,61.19 255.982,59.5233 264.5,58.5C 266.167,58.5 267.833,58.5 269.5,58.5C 269.611,59.1174 269.944,59.6174 270.5,60C 276.167,60.6667 281.833,60.6667 287.5,60C 290.728,58.4371 292.895,55.9371 294,52.5C 298.08,52.8839 302.246,53.0506 306.5,53C 310.737,56.0139 312.904,60.1806 313,65.5C 315.565,66.4704 317.732,67.8037 319.5,69.5 Z"/></g>
<g><path style="opacity:1" fill="#9ed56c" d="M 134.5,61.5 C 135.833,61.5 136.5,62.1667 136.5,63.5C 134.098,67.009 132.765,71.009 132.5,75.5C 131.71,76.6085 131.21,77.9419 131,79.5C 130.79,77.9419 130.29,76.6085 129.5,75.5C 128.777,69.865 130.444,65.1984 134.5,61.5 Z"/></g>
<g><path style="opacity:1" fill="#90e993" d="M 99.5,50.5 C 107.435,51.9521 115.435,53.2855 123.5,54.5C 124.383,55.548 125.05,56.7147 125.5,58C 122.394,67.2127 117.727,75.546 111.5,83C 106.523,85.8265 101.189,87.3265 95.5,87.5C 95.012,84.2893 95.6787,81.456 97.5,79C 97.1667,78.6667 96.8333,78.3333 96.5,78C 99.0074,73.4773 100.674,68.6439 101.5,63.5C 99.1057,60.7706 97.1057,57.7706 95.5,54.5C 96.437,52.712 97.7703,51.3786 99.5,50.5 Z"/></g>
<g><path style="opacity:1" fill="#8de78f" d="M 280.5,68.5 C 280.374,73.0113 280.04,77.5113 279.5,82C 279.252,85.2649 278.419,88.0982 277,90.5C 277.333,90.8333 277.667,91.1667 278,91.5C 280.118,89.2684 282.618,87.6017 285.5,86.5C 289.471,87.1972 293.471,87.6972 297.5,88C 298.381,88.7083 299.047,89.5416 299.5,90.5C 291.608,86.9488 284.441,87.9488 278,93.5C 277.506,95.1341 277.34,96.8008 277.5,98.5C 276.167,98.5 274.833,98.5 273.5,98.5C 272.54,97.7168 271.873,96.5502 271.5,95C 271.706,93.1348 272.372,91.4681 273.5,90C 272.144,88.4329 271.477,86.5996 271.5,84.5C 269.345,84.628 267.345,84.128 265.5,83C 263.86,78.2856 260.693,75.1189 256,73.5C 255.1,68.8528 257.1,66.5195 262,66.5C 263.669,67.1662 265.169,67.1662 266.5,66.5C 266.489,67.4415 266.989,68.1081 268,68.5C 271.88,67.2108 276.046,67.2108 280.5,68.5 Z"/></g>
<g><path style="opacity:1" fill="#cae78f" d="M 47.5,79.5 C 45.3364,79.7215 43.6697,80.7215 42.5,82.5C 39.4868,82.7196 37.1534,84.0529 35.5,86.5C 23.7231,88.6992 18.0565,83.6992 18.5,71.5C 20.3239,62.2233 21.8239,52.89 23,43.5C 25.826,39.5861 28.6593,39.5861 31.5,43.5C 33.4213,44.641 35.4213,44.8077 37.5,44C 40.3475,37.4083 45.3475,34.7417 52.5,36C 59.3906,43.7622 62.0573,52.9289 60.5,63.5C 59.5,63.5 58.5,63.5 57.5,63.5C 57.628,65.6547 57.128,67.6547 56,69.5C 51.8285,71.8272 48.9952,75.1605 47.5,79.5 Z"/></g>
<g><path style="opacity:1" fill="#cedb88" d="M 45.5,51.5 C 47.1765,52.1834 47.8432,53.5168 47.5,55.5C 49.7224,55.178 51.5557,55.8446 53,57.5C 53.2695,60.2241 53.7695,62.8908 54.5,65.5C 53.3717,66.2621 52.2051,66.9288 51,67.5C 50.2733,69.953 49.2733,72.2864 48,74.5C 43.9593,73.6451 40.7927,75.1451 38.5,79C 39.8333,79.6667 39.8333,80.3333 38.5,81C 36.0643,81.1238 33.731,80.6238 31.5,79.5C 31.5,78.5 31.5,77.5 31.5,76.5C 29.8561,76.7135 28.3561,76.3802 27,75.5C 26.835,72.0195 26.6684,68.6862 26.5,65.5C 28.568,62.8433 29.9013,59.8433 30.5,56.5C 31.1667,57.5 31.8333,58.5 32.5,59.5C 34.6672,59.1729 37.0006,58.5063 39.5,57.5C 39.8678,53.7987 41.8678,51.7987 45.5,51.5 Z"/></g>
<g><path style="opacity:1" fill="#80c6ac" d="M 10.5,48.5 C 11.1638,50.8097 11.4971,53.3097 11.5,56C 9.90971,67.124 9.40971,78.2906 10,89.5C 13.5961,92.6533 15.4295,96.6533 15.5,101.5C 18.7396,101.768 21.9063,102.434 25,103.5C 28.229,106.013 31.0624,108.846 33.5,112C 31.7732,114.904 31.1065,118.07 31.5,121.5C 29.5832,119.704 27.7499,117.704 26,115.5C 25.5172,114.552 25.3505,113.552 25.5,112.5C 21.8512,111.594 18.3512,110.26 15,108.5C 14.79,110.058 14.29,111.391 13.5,112.5C 13.5,111.167 13.5,109.833 13.5,108.5C 13.5,105.5 13.5,102.5 13.5,99.5C 8.83333,99.5 4.16667,99.5 -0.5,99.5C -0.5,99.1667 -0.5,98.8333 -0.5,98.5C 0.473444,98.0133 1.47344,97.5133 2.5,97C 2.62252,94.5442 2.62252,92.0442 2.5,89.5C 4.24624,82.3059 6.41291,75.3059 9,68.5C 9.87744,61.8693 10.3774,55.2026 10.5,48.5 Z"/></g>
<g><path style="opacity:1" fill="#bbe1c7" d="M 85.5,87.5 C 84.6906,88.4687 83.6906,89.3021 82.5,90C 82.8333,90.3333 83.1667,90.6667 83.5,91C 82.0564,92.126 81.3898,93.626 81.5,95.5C 82.0962,101.685 82.7628,107.852 83.5,114C 82.112,117.539 79.4454,119.372 75.5,119.5C 73.149,118.827 70.8157,118.16 68.5,117.5C 67.1365,115.627 65.4699,113.961 63.5,112.5C 62.675,111.614 61.675,111.281 60.5,111.5C 58.7079,107.409 56.0413,103.909 52.5,101C 52.8333,100.667 53.1667,100.333 53.5,100C 50.3323,99.4177 49.999,98.4177 52.5,97C 51.6721,96.0853 50.6721,95.4186 49.5,95C 52.028,93.9826 52.028,92.8159 49.5,91.5C 50.5,90.8333 51.5,90.1667 52.5,89.5C 51.8333,89.1667 51.1667,88.8333 50.5,88.5C 52.5713,87.0241 53.5713,85.0241 53.5,82.5C 56.2601,80.7457 58.2601,78.4124 59.5,75.5C 63.7097,71.6471 68.043,67.8138 72.5,64C 82.0648,60.9331 87.3982,64.2664 88.5,74C 87.7151,75.7902 87.7151,77.4569 88.5,79C 86.4311,79.3242 86.0977,80.1575 87.5,81.5C 86.9747,82.1924 86.3081,82.6924 85.5,83C 86.4132,84.4139 86.4132,85.9139 85.5,87.5 Z"/></g>
<g><path style="opacity:1" fill="#87e48f" d="M 214.5,55.5 C 216.597,60.1074 220.264,62.1074 225.5,61.5C 225.33,62.8221 225.663,63.9887 226.5,65C 232.081,67.9909 237.915,70.4909 244,72.5C 243.554,74.8829 242.388,77.0496 240.5,79C 241.624,79.2492 242.624,79.7492 243.5,80.5C 242.726,81.7112 241.893,81.7112 241,80.5C 237.833,83.6667 234.667,86.8333 231.5,90C 226.833,90.6667 222.167,90.6667 217.5,90C 216.554,86.9838 214.554,85.1504 211.5,84.5C 209.739,82.0783 207.406,80.4117 204.5,79.5C 204.771,77.6203 204.104,76.287 202.5,75.5C 202.5,74.8333 202.5,74.1667 202.5,73.5C 198.375,70.5474 194.375,67.3807 190.5,64C 191.428,63.6121 192.095,62.9454 192.5,62C 188.791,51.4247 192.291,48.9247 203,54.5C 203.333,54.1667 203.667,53.8333 204,53.5C 207.428,54.3958 210.928,55.0624 214.5,55.5 Z"/></g>
<g><path style="opacity:1" fill="#b6e990" d="M 216.5,81.5 C 218.149,82.4728 219.816,83.4728 221.5,84.5C 223.197,84.1012 224.863,83.6012 226.5,83C 227.337,81.9887 227.67,80.8221 227.5,79.5C 228.5,79.5 229.5,79.5 230.5,79.5C 229.909,76.3864 228.242,73.8864 225.5,72C 224.451,71.5078 223.451,71.6744 222.5,72.5C 221.77,70.6587 221.103,68.8254 220.5,67C 216.459,66.1735 212.459,66.3401 208.5,67.5C 210.171,69.5098 210.838,71.8431 210.5,74.5C 208.129,71.3627 207.129,67.6961 207.5,63.5C 212.912,63.6502 218.246,64.3169 223.5,65.5C 224.955,69.8051 227.788,73.1385 232,75.5C 232.667,77.5 232.667,79.5 232,81.5C 228.087,84.8698 223.587,86.0364 218.5,85C 217.177,84.1841 216.511,83.0174 216.5,81.5 Z"/></g>
<g><path style="opacity:1" fill="#cee78f" d="M 216.5,81.5 C 213.652,79.8948 211.652,77.5615 210.5,74.5C 210.838,71.8431 210.171,69.5098 208.5,67.5C 212.459,66.3401 216.459,66.1735 220.5,67C 221.103,68.8254 221.77,70.6587 222.5,72.5C 223.451,71.6744 224.451,71.5078 225.5,72C 228.242,73.8864 229.909,76.3864 230.5,79.5C 229.5,79.5 228.5,79.5 227.5,79.5C 227.67,80.8221 227.337,81.9887 226.5,83C 224.863,83.6012 223.197,84.1012 221.5,84.5C 219.816,83.4728 218.149,82.4728 216.5,81.5 Z"/></g>
<g><path style="opacity:1" fill="#7cdb8a" d="M 277.5,63.5 C 278.833,63.5 280.167,63.5 281.5,63.5C 282.735,65.9571 284.735,67.2905 287.5,67.5C 286.926,71.2666 288.093,74.2666 291,76.5C 291.483,77.448 291.649,78.448 291.5,79.5C 293.527,79.6621 295.527,79.4955 297.5,79C 302.777,76.8574 307.944,74.6908 313,72.5C 318.422,72.4514 322.255,74.7848 324.5,79.5C 319.743,79.9965 315.243,79.3298 311,77.5C 308.744,79.0855 306.244,79.7521 303.5,79.5C 303.5,81.1667 303.5,82.8333 303.5,84.5C 298.536,84.4866 294.036,83.1533 290,80.5C 289.377,76.0684 288.377,75.7351 287,79.5C 286.25,78.8742 285.416,78.3742 284.5,78C 285.2,74.0957 284.033,70.5957 281,67.5C 280.601,67.7284 280.435,68.0618 280.5,68.5C 276.046,67.2108 271.88,67.2108 268,68.5C 266.989,68.1081 266.489,67.4415 266.5,66.5C 265.169,67.1662 263.669,67.1662 262,66.5C 257.1,66.5195 255.1,68.8528 256,73.5C 260.693,75.1189 263.86,78.2856 265.5,83C 267.345,84.128 269.345,84.628 271.5,84.5C 271.477,86.5996 272.144,88.4329 273.5,90C 272.372,91.4681 271.706,93.1348 271.5,95C 271.873,96.5502 272.54,97.7168 273.5,98.5C 272.749,99.5735 271.749,99.7401 270.5,99C 268.836,93.8416 265.836,89.6749 261.5,86.5C 260.753,84.0354 259.253,82.0354 257,80.5C 256.667,80.8333 256.333,81.1667 256,81.5C 253.544,79.6787 250.711,79.012 247.5,79.5C 249.022,74.288 250.689,69.1213 252.5,64C 260.827,63.5003 269.16,63.3336 277.5,63.5 Z"/></g>
<g><path style="opacity:1" fill="#82da92" d="M 214.5,55.5 C 217.461,56.3234 220.461,56.99 223.5,57.5C 223.5,58.5 223.5,59.5 223.5,60.5C 225.681,60.2837 227.347,61.117 228.5,63C 230.473,63.4955 232.473,63.6621 234.5,63.5C 236.167,63.5 237.833,63.5 239.5,63.5C 252.325,62.3339 264.991,62.3339 277.5,63.5C 269.16,63.3336 260.827,63.5003 252.5,64C 250.689,69.1213 249.022,74.288 247.5,79.5C 243.286,82.0467 240.619,85.7134 239.5,90.5C 232.004,92.8601 224.337,93.0268 216.5,91C 215.589,88.5852 213.922,87.0852 211.5,86.5C 211.5,85.8333 211.5,85.1667 211.5,84.5C 214.554,85.1504 216.554,86.9838 217.5,90C 222.167,90.6667 226.833,90.6667 231.5,90C 234.667,86.8333 237.833,83.6667 241,80.5C 241.893,81.7112 242.726,81.7112 243.5,80.5C 242.624,79.7492 241.624,79.2492 240.5,79C 242.388,77.0496 243.554,74.8829 244,72.5C 237.915,70.4909 232.081,67.9909 226.5,65C 225.663,63.9887 225.33,62.8221 225.5,61.5C 220.264,62.1074 216.597,60.1074 214.5,55.5 Z"/></g>
<g><path style="opacity:1" fill="#7ade86" d="M 324.5,79.5 C 326.022,80.1909 327.022,81.3576 327.5,83C 325.898,84.822 324.231,86.6553 322.5,88.5C 318.845,89.332 315.179,90.1654 311.5,91C 308.96,92.0404 307.293,93.8737 306.5,96.5C 305.583,95.8728 304.583,95.5394 303.5,95.5C 303.36,93.8762 304.027,92.7096 305.5,92C 303.655,90.872 301.655,90.372 299.5,90.5C 299.047,89.5416 298.381,88.7083 297.5,88C 293.471,87.6972 289.471,87.1972 285.5,86.5C 282.618,87.6017 280.118,89.2684 278,91.5C 277.667,91.1667 277.333,90.8333 277,90.5C 278.419,88.0982 279.252,85.2649 279.5,82C 280.04,77.5113 280.374,73.0113 280.5,68.5C 280.435,68.0618 280.601,67.7284 281,67.5C 284.033,70.5957 285.2,74.0957 284.5,78C 285.416,78.3742 286.25,78.8742 287,79.5C 288.377,75.7351 289.377,76.0684 290,80.5C 294.036,83.1533 298.536,84.4866 303.5,84.5C 303.5,82.8333 303.5,81.1667 303.5,79.5C 306.244,79.7521 308.744,79.0855 311,77.5C 315.243,79.3298 319.743,79.9965 324.5,79.5 Z"/></g>
<g><path style="opacity:1" fill="#82ccb6" d="M 191.5,79.5 C 190.391,79.5569 189.391,79.8902 188.5,80.5C 180.856,81.6524 173.856,84.4857 167.5,89C 162.764,90.0808 158.097,91.4141 153.5,93C 151.963,94.1096 151.297,95.6096 151.5,97.5C 149.5,97.5 147.5,97.5 145.5,97.5C 145.5,99.8333 145.5,102.167 145.5,104.5C 143.462,101.288 140.795,98.4551 137.5,96C 137.833,95.6667 138.167,95.3333 138.5,95C 136.775,95.4087 135.108,95.2421 133.5,94.5C 135.413,91.8844 137.579,89.551 140,87.5C 140.483,86.552 140.649,85.552 140.5,84.5C 148.49,83.9417 156.49,83.4417 164.5,83C 165.766,82.6905 166.933,82.1905 168,81.5C 168.333,81.8333 168.667,82.1667 169,82.5C 169.374,81.5838 169.874,80.7504 170.5,80C 177.503,76.7481 184.836,75.4148 192.5,76C 191.663,77.0113 191.33,78.1779 191.5,79.5 Z"/></g>
<g><path style="opacity:1" fill="#83c8a7" d="M 211.5,86.5 C 216.515,94.4438 223.849,97.2772 233.5,95C 235.158,93.3375 237.158,92.5041 239.5,92.5C 239.5,94.1667 239.5,95.8333 239.5,97.5C 233.974,97.1786 228.64,97.5119 223.5,98.5C 220.689,98.1743 218.022,97.3409 215.5,96C 211.307,92.6349 207.307,89.1349 203.5,85.5C 200.367,81.9336 196.367,79.9336 191.5,79.5C 191.33,78.1779 191.663,77.0113 192.5,76C 184.836,75.4148 177.503,76.7481 170.5,80C 169.874,80.7504 169.374,81.5838 169,82.5C 168.667,82.1667 168.333,81.8333 168,81.5C 166.933,82.1905 165.766,82.6905 164.5,83C 156.49,83.4417 148.49,83.9417 140.5,84.5C 140.649,85.552 140.483,86.552 140,87.5C 137.579,89.551 135.413,91.8844 133.5,94.5C 135.108,95.2421 136.775,95.4087 138.5,95C 138.167,95.3333 137.833,95.6667 137.5,96C 140.795,98.4551 143.462,101.288 145.5,104.5C 145.5,106.167 145.5,107.833 145.5,109.5C 140.637,109.181 135.97,109.514 131.5,110.5C 130.167,110.5 128.833,110.5 127.5,110.5C 127.5,108.167 127.5,105.833 127.5,103.5C 127.335,100.15 127.502,96.8168 128,93.5C 130.605,90.1064 132.438,86.4397 133.5,82.5C 134.935,81.2102 135.935,79.5435 136.5,77.5C 137.216,78.311 138.05,78.9777 139,79.5C 140.73,77.3346 142.73,77.0012 145,78.5C 148.212,77.1235 151.546,76.1235 155,75.5C 160.564,80.6119 166.397,80.7785 172.5,76C 178.989,75.6272 185.322,74.4606 191.5,72.5C 194.338,74.8434 197.671,76.1767 201.5,76.5C 202.158,78.437 202.491,80.2703 202.5,82C 206.377,81.9382 209.377,83.4382 211.5,86.5 Z"/></g>
<g><path style="opacity:1" fill="#81c8a5" d="M 361.5,79.5 C 361.5,84.8333 361.5,90.1667 361.5,95.5C 357.65,95.8221 354.483,94.4887 352,91.5C 351.333,89.8333 351.333,88.1667 352,86.5C 354.137,84.6789 354.97,82.3456 354.5,79.5C 356.833,79.5 359.167,79.5 361.5,79.5 Z"/></g>
<g><path style="opacity:1" fill="#84c5aa" d="M 53.5,82.5 C 53.5713,85.0241 52.5713,87.0241 50.5,88.5C 51.1667,88.8333 51.8333,89.1667 52.5,89.5C 51.5,90.1667 50.5,90.8333 49.5,91.5C 52.028,92.8159 52.028,93.9826 49.5,95C 50.6721,95.4186 51.6721,96.0853 52.5,97C 49.999,98.4177 50.3323,99.4177 53.5,100C 53.1667,100.333 52.8333,100.667 52.5,101C 56.0413,103.909 58.7079,107.409 60.5,111.5C 58.3175,110.7 56.6508,109.2 55.5,107C 54.552,106.517 53.552,106.351 52.5,106.5C 51.5084,106.672 50.8417,106.338 50.5,105.5C 50.5858,104.504 50.2524,103.671 49.5,103C 46.3097,102.432 44.643,100.599 44.5,97.5C 45.2141,94.0111 46.3807,90.6777 48,87.5C 50.3549,86.3076 52.1882,84.641 53.5,82.5 Z"/></g>
<g><path style="opacity:1" fill="#9bc17a" d="M 129.5,75.5 C 130.29,76.6085 130.79,77.9419 131,79.5C 131.21,77.9419 131.71,76.6085 132.5,75.5C 132.5,76.1667 132.833,76.5 133.5,76.5C 133.5,78.5 133.5,80.5 133.5,82.5C 132.438,86.4397 130.605,90.1064 128,93.5C 127.502,96.8168 127.335,100.15 127.5,103.5C 126.527,105.948 126.194,108.615 126.5,111.5C 126.167,111.5 125.833,111.5 125.5,111.5C 124.833,111.5 124.167,111.5 123.5,111.5C 123.5,106.167 123.5,100.833 123.5,95.5C 124.77,91.6259 126.604,87.9592 129,84.5C 129.494,82.8659 129.66,81.1992 129.5,79.5C 129.5,78.1667 129.5,76.8333 129.5,75.5 Z"/></g>
<g><path style="opacity:1" fill="#b6e88e" d="M 299.5,90.5 C 300.362,95.8129 300.529,101.146 300,106.5C 297.457,107.876 297.291,109.043 299.5,110C 298.095,111.269 296.429,111.769 294.5,111.5C 299.01,106.177 299.676,99.8432 296.5,92.5C 291.099,90.7757 286.099,91.4424 281.5,94.5C 283.345,96.5364 283.845,98.8697 283,101.5C 280.02,95.9135 278.52,96.2469 278.5,102.5C 277.566,101.432 277.232,100.099 277.5,98.5C 277.34,96.8008 277.506,95.1341 278,93.5C 284.441,87.9488 291.608,86.9488 299.5,90.5 Z"/></g>
<g><path style="opacity:1" fill="#a9d9b7" d="M 191.5,79.5 C 196.367,79.9336 200.367,81.9336 203.5,85.5C 201.424,88.08 200.091,91.08 199.5,94.5C 198.758,95.2868 197.925,95.9535 197,96.5C 196.667,101.5 196.333,106.5 196,111.5C 192.875,115.697 190.708,115.197 189.5,110C 190.75,107.834 191.416,105.501 191.5,103C 189.338,99.2135 188.004,95.0469 187.5,90.5C 188.21,87.2008 188.543,83.8674 188.5,80.5C 189.391,79.8902 190.391,79.5569 191.5,79.5 Z"/></g>
<g><path style="opacity:1" fill="#80cc98" d="M 247.5,79.5 C 250.711,79.012 253.544,79.6787 256,81.5C 256.333,81.1667 256.667,80.8333 257,80.5C 259.253,82.0354 260.753,84.0354 261.5,86.5C 264.426,90.6912 266.592,95.3579 268,100.5C 273.299,102.419 276.799,106.086 278.5,111.5C 277.732,112.263 277.232,113.263 277,114.5C 276.28,112.944 275.113,111.944 273.5,111.5C 272.634,108.833 271.634,106.167 270.5,103.5C 269.167,103.167 267.833,102.833 266.5,102.5C 264.208,97.2844 261.542,92.2844 258.5,87.5C 254.038,86.5767 249.705,85.7434 245.5,85C 244.016,87.9767 242.016,90.4767 239.5,92.5C 237.158,92.5041 235.158,93.3375 233.5,95C 223.849,97.2772 216.515,94.4438 211.5,86.5C 213.922,87.0852 215.589,88.5852 216.5,91C 224.337,93.0268 232.004,92.8601 239.5,90.5C 240.619,85.7134 243.286,82.0467 247.5,79.5 Z"/></g>
<g><path style="opacity:1" fill="#83c8a2" d="M 89.5,59.5 C 90.7608,61.2904 92.2608,62.9571 94,64.5C 94.4501,68.1875 94.2834,71.8542 93.5,75.5C 92.8333,76.8333 92.1667,78.1667 91.5,79.5C 90.1305,83.4289 88.6305,87.4289 87,91.5C 84.9445,100.435 88.1112,103.935 96.5,102C 97.8333,101 99.1667,100 100.5,99C 99.6634,97.9887 99.33,96.8221 99.5,95.5C 100.167,95.5 100.833,95.5 101.5,95.5C 106.116,93.933 110.783,92.2663 115.5,90.5C 117.217,91.6685 117.884,93.3352 117.5,95.5C 116.5,95.5 115.5,95.5 114.5,95.5C 115.332,107.195 116.665,107.195 118.5,95.5C 122.319,95.5285 123.319,93.8618 121.5,90.5C 121.868,89.09 122.701,88.09 124,87.5C 123.917,90.1194 123.75,92.786 123.5,95.5C 123.5,100.833 123.5,106.167 123.5,111.5C 122.167,111.5 120.833,111.5 119.5,111.5C 117.912,115.621 116.912,119.954 116.5,124.5C 116.944,128.163 117.278,131.829 117.5,135.5C 116.596,134.791 116.263,133.791 116.5,132.5C 113.09,132.616 111.756,130.95 112.5,127.5C 110.712,127.785 109.045,127.452 107.5,126.5C 106,124.167 104.5,121.833 103,119.5C 102.744,115.754 103.244,112.087 104.5,108.5C 106.857,108.663 109.19,108.497 111.5,108C 103.869,106.96 96.202,106.294 88.5,106C 86.627,104.915 84.9603,103.582 83.5,102C 83.708,97.264 84.3746,92.4307 85.5,87.5C 86.4132,85.9139 86.4132,84.4139 85.5,83C 86.3081,82.6924 86.9747,82.1924 87.5,81.5C 86.0977,80.1575 86.4311,79.3242 88.5,79C 87.7151,77.4569 87.7151,75.7902 88.5,74C 87.3982,64.2664 82.0648,60.9331 72.5,64C 68.043,67.8138 63.7097,71.6471 59.5,75.5C 60.8333,72.5 62.1667,69.5 63.5,66.5C 63.5,65.5 63.5,64.5 63.5,63.5C 64.8333,63.5 66.1667,63.5 67.5,63.5C 69.3925,61.1261 71.7258,59.1261 74.5,57.5C 75.2978,55.9223 75.7978,54.2556 76,52.5C 78.1229,49.0296 79.2895,49.0296 79.5,52.5C 80.9778,52.238 82.3112,52.5713 83.5,53.5C 84.6306,56.3932 86.6306,58.3932 89.5,59.5 Z"/></g>
<g><path style="opacity:1" fill="#82ca9b" d="M 129.5,79.5 C 129.66,81.1992 129.494,82.8659 129,84.5C 126.604,87.9592 124.77,91.6259 123.5,95.5C 123.75,92.786 123.917,90.1194 124,87.5C 122.701,88.09 121.868,89.09 121.5,90.5C 123.319,93.8618 122.319,95.5285 118.5,95.5C 116.665,107.195 115.332,107.195 114.5,95.5C 115.5,95.5 116.5,95.5 117.5,95.5C 117.884,93.3352 117.217,91.6685 115.5,90.5C 110.783,92.2663 106.116,93.933 101.5,95.5C 101.953,94.5416 102.619,93.7083 103.5,93C 109.044,90.7105 114.377,88.0439 119.5,85C 120.872,83.7581 121.872,82.2581 122.5,80.5C 124.743,79.5258 127.076,79.1924 129.5,79.5 Z"/></g>
<g><path style="opacity:1" fill="#bbe1c7" d="M 188.5,80.5 C 188.543,83.8674 188.21,87.2008 187.5,90.5C 188.004,95.0469 189.338,99.2135 191.5,103C 191.416,105.501 190.75,107.834 189.5,110C 190.708,115.197 192.875,115.697 196,111.5C 196.333,106.5 196.667,101.5 197,96.5C 197.925,95.9535 198.758,95.2868 199.5,94.5C 200.091,91.08 201.424,88.08 203.5,85.5C 207.307,89.1349 211.307,92.6349 215.5,96C 218.022,97.3409 220.689,98.1743 223.5,98.5C 228.962,99.3842 234.462,99.7175 240,99.5C 243.667,97.1667 247.333,94.8333 251,92.5C 253.742,93.5704 256.242,95.0704 258.5,97C 262.289,100.77 265.956,104.603 269.5,108.5C 267.925,111.719 265.258,113.552 261.5,114C 257.045,120.228 251.045,123.228 243.5,123C 240.398,119.459 236.731,118.459 232.5,120C 227.711,124.332 225.211,129.832 225,136.5C 223.955,137.373 223.122,138.373 222.5,139.5C 219.887,140.435 217.221,140.602 214.5,140C 207.599,132.048 200.099,125.548 192,120.5C 189.959,116.916 187.792,113.416 185.5,110C 180.815,108.829 176.148,107.662 171.5,106.5C 170.999,102.132 168.666,99.4651 164.5,98.5C 160.366,97.5151 156.032,97.1818 151.5,97.5C 151.297,95.6096 151.963,94.1096 153.5,93C 158.097,91.4141 162.764,90.0808 167.5,89C 173.856,84.4857 180.856,81.6524 188.5,80.5 Z"/></g>
<g><path style="opacity:1" fill="#557b70" d="M 151.5,97.5 C 156.032,97.1818 160.366,97.5151 164.5,98.5C 158.5,98.5 152.5,98.5 146.5,98.5C 146.5,102.833 146.5,107.167 146.5,111.5C 146.167,111.5 145.833,111.5 145.5,111.5C 145.5,110.833 145.5,110.167 145.5,109.5C 145.5,107.833 145.5,106.167 145.5,104.5C 145.5,102.167 145.5,99.8333 145.5,97.5C 147.5,97.5 149.5,97.5 151.5,97.5 Z"/></g>
<g><path style="opacity:1" fill="#82c9a1" d="M 13.5,38.5 C 13.8359,54.2908 13.0026,69.9575 11,85.5C 12.6692,90.2522 15.8359,93.5855 20.5,95.5C 21.6843,96.6879 21.6843,97.8545 20.5,99C 25.4878,99.6896 30.3211,100.856 35,102.5C 35.498,105.482 35.6646,108.482 35.5,111.5C 34.4309,114.408 34.2642,117.408 35,120.5C 37.2797,122.614 39.113,124.947 40.5,127.5C 43.7059,133.38 47.7059,138.714 52.5,143.5C 50.9064,143.08 49.4064,142.414 48,141.5C 47.2352,141.57 46.7352,141.903 46.5,142.5C 45.8501,142.196 45.1835,141.863 44.5,141.5C 40.123,134.804 35.7897,128.137 31.5,121.5C 31.1065,118.07 31.7732,114.904 33.5,112C 31.0624,108.846 28.229,106.013 25,103.5C 21.9063,102.434 18.7396,101.768 15.5,101.5C 15.4295,96.6533 13.5961,92.6533 10,89.5C 9.40971,78.2906 9.90971,67.124 11.5,56C 11.4971,53.3097 11.1638,50.8097 10.5,48.5C 10.5,48.1667 10.5,47.8333 10.5,47.5C 12.11,44.7967 13.11,41.7967 13.5,38.5 Z"/></g>
<g><path style="opacity:1" fill="#82cf9a" d="M 63.5,66.5 C 62.1667,69.5 60.8333,72.5 59.5,75.5C 58.2601,78.4124 56.2601,80.7457 53.5,82.5C 52.1882,84.641 50.3549,86.3076 48,87.5C 46.3807,90.6777 45.2141,94.0111 44.5,97.5C 44.643,100.599 46.3097,102.432 49.5,103C 50.2524,103.671 50.5858,104.504 50.5,105.5C 45.7101,102.683 41.0435,102.85 36.5,106C 37.3411,107.996 37.0077,109.829 35.5,111.5C 35.6646,108.482 35.498,105.482 35,102.5C 30.3211,100.856 25.4878,99.6896 20.5,99C 21.6843,97.8545 21.6843,96.6879 20.5,95.5C 26.3741,97.1202 32.3741,97.6202 38.5,97C 40.8148,94.1603 42.6481,90.9936 44,87.5C 47.5642,84.1449 50.7308,80.4782 53.5,76.5C 55.3327,73.9248 57.3327,71.4248 59.5,69C 60.9839,68.3378 62.3172,67.5045 63.5,66.5 Z"/></g>
<g><path style="opacity:1" fill="#83d196" d="M 91.5,79.5 C 91.5819,85.0636 90.5819,90.397 88.5,95.5C 88.5796,97.3299 89.413,98.6633 91,99.5C 92.8576,96.1565 95.6909,94.8232 99.5,95.5C 99.33,96.8221 99.6634,97.9887 100.5,99C 99.1667,100 97.8333,101 96.5,102C 88.1112,103.935 84.9445,100.435 87,91.5C 88.6305,87.4289 90.1305,83.4289 91.5,79.5 Z"/></g>
<g><path style="opacity:1" fill="#8de494" d="M 261.5,86.5 C 265.836,89.6749 268.836,93.8416 270.5,99C 271.749,99.7401 272.749,99.5735 273.5,98.5C 274.833,98.5 276.167,98.5 277.5,98.5C 277.232,100.099 277.566,101.432 278.5,102.5C 279.209,103.404 280.209,103.737 281.5,103.5C 281.197,106.588 282.53,108.254 285.5,108.5C 285.5,109.5 285.5,110.5 285.5,111.5C 288.5,111.5 291.5,111.5 294.5,111.5C 296.429,111.769 298.095,111.269 299.5,110C 297.291,109.043 297.457,107.876 300,106.5C 300.529,101.146 300.362,95.8129 299.5,90.5C 301.655,90.372 303.655,90.872 305.5,92C 304.027,92.7096 303.36,93.8762 303.5,95.5C 304.704,100.177 304.704,104.844 303.5,109.5C 302.325,109.281 301.325,109.614 300.5,110.5C 299.978,114.693 297.645,116.693 293.5,116.5C 288.891,115.973 284.891,114.306 281.5,111.5C 280.5,111.5 279.5,111.5 278.5,111.5C 276.799,106.086 273.299,102.419 268,100.5C 266.592,95.3579 264.426,90.6912 261.5,86.5 Z"/></g>
<g><path style="opacity:1" fill="#cce38c" d="M 294.5,111.5 C 291.5,111.5 288.5,111.5 285.5,111.5C 285.5,110.5 285.5,109.5 285.5,108.5C 282.53,108.254 281.197,106.588 281.5,103.5C 280.209,103.737 279.209,103.404 278.5,102.5C 278.52,96.2469 280.02,95.9135 283,101.5C 283.845,98.8697 283.345,96.5364 281.5,94.5C 286.099,91.4424 291.099,90.7757 296.5,92.5C 299.676,99.8432 299.01,106.177 294.5,111.5 Z"/></g>
<g><path style="opacity:1" fill="#a8d6d5" d="M -0.5,99.5 C 4.16667,99.5 8.83333,99.5 13.5,99.5C 13.5,102.5 13.5,105.5 13.5,108.5C 11.8311,110.662 9.83106,110.995 7.5,109.5C 6.76109,109.631 6.09442,109.464 5.5,109C 6.38017,107.644 6.71351,106.144 6.5,104.5C 4.16667,104.5 1.83333,104.5 -0.5,104.5C -0.5,102.833 -0.5,101.167 -0.5,99.5 Z"/></g>
<g><path style="opacity:1" fill="#457577" d="M 3.5,100.5 C 5.33702,100.639 5.67036,101.306 4.5,102.5C 3.70245,102.043 3.36912,101.376 3.5,100.5 Z"/></g>
<g><path style="opacity:1" fill="#85d896" d="M 50.5,105.5 C 50.8417,106.338 51.5084,106.672 52.5,106.5C 55.4488,108.373 57.4488,111.039 58.5,114.5C 55.5941,113.425 53.0941,111.758 51,109.5C 50.0546,109.905 49.3879,110.572 49,111.5C 49.0464,109.687 48.8797,108.021 48.5,106.5C 45.5719,105.516 42.5719,105.183 39.5,105.5C 39.5,107.5 39.5,109.5 39.5,111.5C 41.4147,111.216 43.0813,111.549 44.5,112.5C 43.8333,112.5 43.5,112.833 43.5,113.5C 42.2921,114.234 40.9587,114.567 39.5,114.5C 39.3718,118.881 39.7051,123.215 40.5,127.5C 39.113,124.947 37.2797,122.614 35,120.5C 34.2642,117.408 34.4309,114.408 35.5,111.5C 37.0077,109.829 37.3411,107.996 36.5,106C 41.0435,102.85 45.7101,102.683 50.5,105.5 Z"/></g>
<g><path style="opacity:1" fill="#85cab0" d="M 273.5,111.5 C 272.833,111.5 272.167,111.5 271.5,111.5C 271.573,109.973 270.906,108.973 269.5,108.5C 265.956,104.603 262.289,100.77 258.5,97C 256.242,95.0704 253.742,93.5704 251,92.5C 247.333,94.8333 243.667,97.1667 240,99.5C 234.462,99.7175 228.962,99.3842 223.5,98.5C 228.64,97.5119 233.974,97.1786 239.5,97.5C 239.5,95.8333 239.5,94.1667 239.5,92.5C 242.016,90.4767 244.016,87.9767 245.5,85C 249.705,85.7434 254.038,86.5767 258.5,87.5C 261.542,92.2844 264.208,97.2844 266.5,102.5C 267.833,102.833 269.167,103.167 270.5,103.5C 271.634,106.167 272.634,108.833 273.5,111.5 Z"/></g>
<g><path style="opacity:1" fill="#3f6d6e" d="M 8.5,104.5 C 9.30943,105.469 10.3094,106.302 11.5,107C 10.552,107.483 9.55198,107.649 8.5,107.5C 8.5,106.5 8.5,105.5 8.5,104.5 Z"/></g>
<g><path style="opacity:1" fill="#f2f6f4" d="M 324.5,106.5 C 324.5,110.833 324.5,115.167 324.5,119.5C 318.5,119.5 312.5,119.5 306.5,119.5C 306.5,115.167 306.5,110.833 306.5,106.5C 312.5,106.5 318.5,106.5 324.5,106.5 Z"/></g>
<g><path style="opacity:1" fill="#7ba7a3" d="M -0.5,104.5 C 1.83333,104.5 4.16667,104.5 6.5,104.5C 6.71351,106.144 6.38017,107.644 5.5,109C 6.09442,109.464 6.76109,109.631 7.5,109.5C 7.19607,110.15 6.86273,110.817 6.5,111.5C 8.74269,112.474 11.076,112.808 13.5,112.5C 10.7131,113.477 7.7131,113.81 4.5,113.5C 2.83333,113.5 1.16667,113.5 -0.5,113.5C -0.5,110.5 -0.5,107.5 -0.5,104.5 Z"/></g>
<g><path style="opacity:1" fill="#557a67" d="M 306.5,105.5 C 307.833,105.5 309.167,105.5 310.5,105.5C 315.363,105.181 320.03,105.514 324.5,106.5C 318.5,106.5 312.5,106.5 306.5,106.5C 306.5,110.833 306.5,115.167 306.5,119.5C 305.596,118.791 305.263,117.791 305.5,116.5C 305.5,114.5 305.5,112.5 305.5,110.5C 305.216,108.585 305.549,106.919 306.5,105.5 Z"/></g>
<g><path style="opacity:1" fill="#666a6c" d="M 314.5,107.5 C 316.337,107.639 316.67,108.306 315.5,109.5C 314.702,109.043 314.369,108.376 314.5,107.5 Z"/></g>
<g><path style="opacity:1" fill="#85cbb0" d="M 85.5,87.5 C 84.3746,92.4307 83.708,97.264 83.5,102C 84.9603,103.582 86.627,104.915 88.5,106C 96.202,106.294 103.869,106.96 111.5,108C 109.19,108.497 106.857,108.663 104.5,108.5C 103.244,112.087 102.744,115.754 103,119.5C 104.5,121.833 106,124.167 107.5,126.5C 109.045,127.452 110.712,127.785 112.5,127.5C 111.756,130.95 113.09,132.616 116.5,132.5C 116.263,133.791 116.596,134.791 117.5,135.5C 118.347,136.966 119.68,137.8 121.5,138C 122.397,140.311 123.73,142.144 125.5,143.5C 125.5,144.5 125.5,145.5 125.5,146.5C 118.75,142.608 112.084,138.441 105.5,134C 101.615,131.738 98.1151,132.238 95,135.5C 94.0977,137.927 93.2644,140.26 92.5,142.5C 92.5,137.5 92.5,132.5 92.5,127.5C 93.5,127.5 94.5,127.5 95.5,127.5C 95.3433,126.127 95.51,124.793 96,123.5C 100.594,119.828 100.427,116.328 95.5,113C 95.6448,112.228 95.9781,111.561 96.5,111C 94.559,109.097 92.2257,108.264 89.5,108.5C 90.1267,116.943 86.2933,121.61 78,122.5C 74.3867,121.317 71.22,119.65 68.5,117.5C 70.8157,118.16 73.149,118.827 75.5,119.5C 79.4454,119.372 82.112,117.539 83.5,114C 82.7628,107.852 82.0962,101.685 81.5,95.5C 81.3898,93.626 82.0564,92.126 83.5,91C 83.1667,90.6667 82.8333,90.3333 82.5,90C 83.6906,89.3021 84.6906,88.4687 85.5,87.5 Z"/></g>
<g><path style="opacity:1" fill="#aad6d3" d="M 164.5,98.5 C 164.5,102.833 164.5,107.167 164.5,111.5C 158.5,111.5 152.5,111.5 146.5,111.5C 146.5,107.167 146.5,102.833 146.5,98.5C 152.5,98.5 158.5,98.5 164.5,98.5 Z"/></g>
<g><path style="opacity:1" fill="#7da9aa" d="M 154.5,104.5 C 156.23,103.088 157.73,103.422 159,105.5C 159.483,104.552 159.649,103.552 159.5,102.5C 160.833,102.5 162.167,102.5 163.5,102.5C 163.5,104.833 163.5,107.167 163.5,109.5C 158.959,109.669 158.626,109.002 162.5,107.5C 160.926,106.369 159.259,106.202 157.5,107C 156.167,107.667 156.167,108.333 157.5,109C 156.365,109.749 155.365,109.583 154.5,108.5C 155.167,107.5 155.833,106.5 156.5,105.5C 156.043,104.702 155.376,104.369 154.5,104.5 Z"/></g>
<g><path style="opacity:1" fill="#639291" d="M 154.5,104.5 C 153.365,105.474 152.365,106.641 151.5,108C 151.833,108.333 152.167,108.667 152.5,109C 151.365,109.749 150.365,109.583 149.5,108.5C 150.167,107.5 150.833,106.5 151.5,105.5C 150.975,104.808 150.308,104.308 149.5,104C 151.197,103.616 152.863,103.782 154.5,104.5 Z"/></g>
<g><path style="opacity:1" fill="#507270" d="M 154.5,99.5 C 156.337,99.6395 156.67,100.306 155.5,101.5C 154.702,101.043 154.369,100.376 154.5,99.5 Z"/></g>
<g><path style="opacity:1" fill="#ebf3f1" d="M 13.5,108.5 C 13.5,109.833 13.5,111.167 13.5,112.5C 11.076,112.808 8.74269,112.474 6.5,111.5C 6.86273,110.817 7.19607,110.15 7.5,109.5C 9.83106,110.995 11.8311,110.662 13.5,108.5 Z"/></g>
<g><path style="opacity:1" fill="#7cd193" d="M 281.5,63.5 C 283.5,63.5 285.5,63.5 287.5,63.5C 289.13,66.7603 290.797,70.0937 292.5,73.5C 296.107,74.4892 299.774,74.8226 303.5,74.5C 303.238,73.0222 303.571,71.6888 304.5,70.5C 305.675,71.8549 306.675,71.6883 307.5,70C 311.486,69.5012 315.486,69.3345 319.5,69.5C 324.013,72.1222 328.346,75.2889 332.5,79C 332.182,81.0419 332.015,83.2086 332,85.5C 329.515,86.9874 327.348,88.8208 325.5,91C 321.747,91.3604 318.414,92.6937 315.5,95C 313.527,95.4955 311.527,95.6621 309.5,95.5C 308.439,98.8635 307.439,102.197 306.5,105.5C 305.549,106.919 305.216,108.585 305.5,110.5C 304.883,110.611 304.383,110.944 304,111.5C 303.505,113.473 303.338,115.473 303.5,117.5C 296.679,117.992 290.012,117.325 283.5,115.5C 282.824,114.398 282.158,113.398 281.5,112.5C 281.5,112.167 281.5,111.833 281.5,111.5C 284.891,114.306 288.891,115.973 293.5,116.5C 297.645,116.693 299.978,114.693 300.5,110.5C 301.325,109.614 302.325,109.281 303.5,109.5C 304.704,104.844 304.704,100.177 303.5,95.5C 304.583,95.5394 305.583,95.8728 306.5,96.5C 307.293,93.8737 308.96,92.0404 311.5,91C 315.179,90.1654 318.845,89.332 322.5,88.5C 324.231,86.6553 325.898,84.822 327.5,83C 327.022,81.3576 326.022,80.1909 324.5,79.5C 322.255,74.7848 318.422,72.4514 313,72.5C 307.944,74.6908 302.777,76.8574 297.5,79C 295.527,79.4955 293.527,79.6621 291.5,79.5C 291.649,78.448 291.483,77.448 291,76.5C 288.093,74.2666 286.926,71.2666 287.5,67.5C 284.735,67.2905 282.735,65.9571 281.5,63.5 Z"/></g>
<g><path style="opacity:1" fill="#bae1c6" d="M 361.5,99.5 C 361.5,142.833 361.5,186.167 361.5,229.5C 327.5,229.5 293.5,229.5 259.5,229.5C 259.831,225.167 259.498,221 258.5,217C 258.167,216.5 257.833,216 257.5,215.5C 256.682,218.107 256.182,220.774 256,223.5C 255.333,219.833 255.333,216.167 256,212.5C 257.003,214.935 257.503,214.602 257.5,211.5C 257.069,209.246 256.403,207.079 255.5,205C 256.545,195.7 260.045,187.534 266,180.5C 266.793,176.577 266.626,172.744 265.5,169C 267.917,162.255 270.083,155.421 272,148.5C 273,146.833 274,145.167 275,143.5C 275.946,135.765 277.78,128.265 280.5,121C 278.881,118.84 279.214,117.34 281.5,116.5C 286.512,120.109 292.179,121.609 298.5,121C 301.239,119.974 303.572,118.474 305.5,116.5C 305.263,117.791 305.596,118.791 306.5,119.5C 312.5,119.5 318.5,119.5 324.5,119.5C 324.5,115.167 324.5,110.833 324.5,106.5C 320.03,105.514 315.363,105.181 310.5,105.5C 310.999,101.754 313.166,98.754 317,96.5C 324.637,94.5935 331.97,91.9268 339,88.5C 343.467,91.548 347.634,95.048 351.5,99C 354.817,99.4983 358.15,99.665 361.5,99.5 Z"/></g>
<g><path style="opacity:1" fill="#dcf7e3" d="M 171.5,106.5 C 176.148,107.662 180.815,108.829 185.5,110C 187.792,113.416 189.959,116.916 192,120.5C 200.099,125.548 207.599,132.048 214.5,140C 217.221,140.602 219.887,140.435 222.5,139.5C 220.484,142.144 217.817,142.977 214.5,142C 207.233,134.392 199.4,127.558 191,121.5C 189.082,117.996 186.916,114.663 184.5,111.5C 180.644,109.997 176.644,109.33 172.5,109.5C 172.443,108.391 172.11,107.391 171.5,106.5 Z"/></g>
<g><path style="opacity:1" fill="#8f9392" d="M 313.5,111.5 C 317.525,110.377 318.191,111.544 315.5,115C 317.169,115.122 318.835,114.788 320.5,114C 319.027,113.29 318.36,112.124 318.5,110.5C 321.598,110.413 321.932,110.913 319.5,112C 322.124,112.576 322.791,113.91 321.5,116C 317.129,116.828 312.795,116.661 308.5,115.5C 309.167,114.5 309.833,113.5 310.5,112.5C 308.252,111.676 308.086,110.676 310,109.5C 310.816,110.823 311.983,111.489 313.5,111.5 Z"/></g>
<g><path style="opacity:1" fill="#f3f9f5" d="M 313.5,111.5 C 315.028,111.517 315.528,112.184 315,113.5C 309.772,116.26 309.272,115.593 313.5,111.5 Z"/></g>
<g><path style="opacity:1" fill="#82c9a1" d="M 52.5,106.5 C 53.552,106.351 54.552,106.517 55.5,107C 56.6508,109.2 58.3175,110.7 60.5,111.5C 61.675,111.281 62.675,111.614 63.5,112.5C 65.4699,113.961 67.1365,115.627 68.5,117.5C 71.22,119.65 74.3867,121.317 78,122.5C 86.2933,121.61 90.1267,116.943 89.5,108.5C 92.2257,108.264 94.559,109.097 96.5,111C 95.9781,111.561 95.6448,112.228 95.5,113C 100.427,116.328 100.594,119.828 96,123.5C 95.51,124.793 95.3433,126.127 95.5,127.5C 94.5,127.5 93.5,127.5 92.5,127.5C 92.5,132.5 92.5,137.5 92.5,142.5C 92.5,142.833 92.5,143.167 92.5,143.5C 91.1667,143.5 89.8333,143.5 88.5,143.5C 87.9512,145.901 87.1178,148.235 86,150.5C 83.157,153.011 80.657,155.844 78.5,159C 75.4786,159.673 72.4786,160.007 69.5,160C 68.3589,157.692 66.6922,155.859 64.5,154.5C 63.5713,153.311 63.238,151.978 63.5,150.5C 68.2268,154.454 73.5602,155.287 79.5,153C 80.365,151.641 81.365,150.474 82.5,149.5C 82.8333,148.5 83.5,147.833 84.5,147.5C 85.4584,147.047 86.2917,146.381 87,145.5C 87.8303,139.472 87.6636,133.472 86.5,127.5C 85.4096,126.273 84.0762,125.44 82.5,125C 78.4724,124.608 74.4724,124.108 70.5,123.5C 68.8004,121.79 67.4671,119.79 66.5,117.5C 64.6957,116.232 62.6957,115.565 60.5,115.5C 60.1583,114.662 59.4916,114.328 58.5,114.5C 57.4488,111.039 55.4488,108.373 52.5,106.5 Z"/></g>
<g><path style="opacity:1" fill="#86c9ab" d="M 305.5,110.5 C 305.5,112.5 305.5,114.5 305.5,116.5C 303.572,118.474 301.239,119.974 298.5,121C 292.179,121.609 286.512,120.109 281.5,116.5C 277.673,115.578 277.673,114.245 281.5,112.5C 282.158,113.398 282.824,114.398 283.5,115.5C 290.012,117.325 296.679,117.992 303.5,117.5C 303.338,115.473 303.505,113.473 304,111.5C 304.383,110.944 304.883,110.611 305.5,110.5 Z"/></g>
<g><path style="opacity:1" fill="#82ca9f" d="M 131.5,110.5 C 135.97,109.514 140.637,109.181 145.5,109.5C 145.5,110.167 145.5,110.833 145.5,111.5C 147.216,116.213 150.55,119.213 155.5,120.5C 152.381,124.546 151.881,128.88 154,133.5C 154.75,134.126 155.584,134.626 156.5,135C 155.709,137.75 155.709,140.583 156.5,143.5C 155.5,143.5 154.5,143.5 153.5,143.5C 153.225,147.21 154.558,150.043 157.5,152C 156.809,153.067 156.309,154.234 156,155.5C 155.667,155.167 155.333,154.833 155,154.5C 154.025,157.76 152.858,160.927 151.5,164C 148.649,165.289 145.649,165.789 142.5,165.5C 142.5,164.5 142.5,163.5 142.5,162.5C 140.821,162.285 139.821,162.952 139.5,164.5C 136.247,160.967 133.247,157.301 130.5,153.5C 129.241,152.021 128.241,150.354 127.5,148.5C 127.5,146.833 127.5,145.167 127.5,143.5C 130.167,143.5 132.833,143.5 135.5,143.5C 135.5,144.5 135.5,145.5 135.5,146.5C 137.355,148.033 139.188,149.7 141,151.5C 141.287,153.891 141.787,156.224 142.5,158.5C 144.695,159.769 146.861,159.769 149,158.5C 151.816,155.439 152.482,152.106 151,148.5C 150.667,141.5 150.333,134.5 150,127.5C 150.177,123.175 148.344,120.175 144.5,118.5C 141.72,113.4 137.387,110.733 131.5,110.5 Z"/></g>
<g><path style="opacity:1" fill="#82d199" d="M 60.5,115.5 C 62.6957,115.565 64.6957,116.232 66.5,117.5C 67.4671,119.79 68.8004,121.79 70.5,123.5C 65.6295,122.618 62.2962,119.952 60.5,115.5 Z"/></g>
<g><path style="opacity:1" fill="#86da91" d="M 123.5,111.5 C 122.245,120.534 122.411,129.534 124,138.5C 124.278,139.416 124.778,140.082 125.5,140.5C 125.5,141.5 125.5,142.5 125.5,143.5C 123.73,142.144 122.397,140.311 121.5,138C 119.68,137.8 118.347,136.966 117.5,135.5C 117.278,131.829 116.944,128.163 116.5,124.5C 116.912,119.954 117.912,115.621 119.5,111.5C 120.833,111.5 122.167,111.5 123.5,111.5 Z"/></g>
<g><path style="opacity:1" fill="#aadf6b" d="M 123.5,111.5 C 124.167,111.5 124.833,111.5 125.5,111.5C 125.265,119.93 125.932,128.263 127.5,136.5C 127.5,136.833 127.5,137.167 127.5,137.5C 126.599,138.29 125.932,139.29 125.5,140.5C 124.778,140.082 124.278,139.416 124,138.5C 122.411,129.534 122.245,120.534 123.5,111.5 Z"/></g>
<g><path style="opacity:1" fill="#81cab5" d="M 164.5,98.5 C 168.666,99.4651 170.999,102.132 171.5,106.5C 172.11,107.391 172.443,108.391 172.5,109.5C 173.624,113.786 174.624,118.119 175.5,122.5C 175.818,123.647 176.484,124.481 177.5,125C 176.538,131.525 177.538,137.859 180.5,144C 174.824,147.655 169.491,151.822 164.5,156.5C 162.599,159.702 160.265,162.369 157.5,164.5C 158.697,158.395 160.364,152.062 162.5,145.5C 160.656,142.473 159.656,139.14 159.5,135.5C 159.64,132.957 160.306,130.623 161.5,128.5C 160.833,127.833 160.167,127.167 159.5,126.5C 161.67,124.914 164.004,123.58 166.5,122.5C 168.316,119.384 168.316,116.05 166.5,112.5C 166.043,111.702 165.376,111.369 164.5,111.5C 164.5,107.167 164.5,102.833 164.5,98.5 Z"/></g>
<g><path style="opacity:1" fill="#def9e6" d="M 269.5,108.5 C 269.714,110.144 269.38,111.644 268.5,113C 263.086,114.41 258.753,117.41 255.5,122C 252.02,123.103 248.687,124.269 245.5,125.5C 242.957,124.643 240.623,123.31 238.5,121.5C 236.833,122.833 235.167,122.833 233.5,121.5C 232.145,122.188 231.145,123.188 230.5,124.5C 229.883,124.611 229.383,124.944 229,125.5C 228.148,129.927 226.982,134.261 225.5,138.5C 224.675,139.386 223.675,139.719 222.5,139.5C 223.122,138.373 223.955,137.373 225,136.5C 225.211,129.832 227.711,124.332 232.5,120C 236.731,118.459 240.398,119.459 243.5,123C 251.045,123.228 257.045,120.228 261.5,114C 265.258,113.552 267.925,111.719 269.5,108.5 Z"/></g>
<g><path style="opacity:1" fill="#bbe1c6" d="M 269.5,108.5 C 270.906,108.973 271.573,109.973 271.5,111.5C 271.666,115.514 271.499,119.514 271,123.5C 269.449,127.352 267.949,131.185 266.5,135C 266.972,137.399 265.972,139.399 263.5,141C 258.411,142.251 254.911,140.418 253,135.5C 252.821,132.447 252.321,129.447 251.5,126.5C 249.591,125.652 247.591,125.318 245.5,125.5C 248.687,124.269 252.02,123.103 255.5,122C 258.753,117.41 263.086,114.41 268.5,113C 269.38,111.644 269.714,110.144 269.5,108.5 Z"/></g>
<g><path style="opacity:1" fill="#82d796" d="M 70.5,123.5 C 74.4724,124.108 78.4724,124.608 82.5,125C 84.0762,125.44 85.4096,126.273 86.5,127.5C 87.6636,133.472 87.8303,139.472 87,145.5C 86.2917,146.381 85.4584,147.047 84.5,147.5C 85.1656,142.852 85.8322,138.186 86.5,133.5C 86.2811,132.062 85.7811,130.729 85,129.5C 80.7851,127.206 76.2851,125.706 71.5,125C 70.944,124.617 70.6107,124.117 70.5,123.5 Z"/></g>
<g><path style="opacity:1" fill="#83de90" d="M 135.5,146.5 C 135.5,145.5 135.5,144.5 135.5,143.5C 132.833,143.5 130.167,143.5 127.5,143.5C 127.5,141.5 127.5,139.5 127.5,137.5C 127.5,137.167 127.5,136.833 127.5,136.5C 129.693,137.68 132.026,138.68 134.5,139.5C 140.428,136.561 142.094,131.894 139.5,125.5C 136.691,121.134 132.691,119.467 127.5,120.5C 129.996,118.676 132.996,117.676 136.5,117.5C 137.442,117.608 138.275,117.941 139,118.5C 137.766,121.685 138.932,123.685 142.5,124.5C 143.428,122.665 144.594,122.332 146,123.5C 147.143,133.822 147.643,144.156 147.5,154.5C 145.61,154.297 144.11,154.963 143,156.5C 142.892,152.823 142.892,149.157 143,145.5C 142.167,146.5 141.333,147.5 140.5,148.5C 139.158,146.995 137.492,146.328 135.5,146.5 Z"/></g>
<g><path style="opacity:1" fill="#bbe1c7" d="M 172.5,109.5 C 176.644,109.33 180.644,109.997 184.5,111.5C 186.916,114.663 189.082,117.996 191,121.5C 199.4,127.558 207.233,134.392 214.5,142C 217.817,142.977 220.484,142.144 222.5,139.5C 223.675,139.719 224.675,139.386 225.5,138.5C 226.982,134.261 228.148,129.927 229,125.5C 229.383,124.944 229.883,124.611 230.5,124.5C 232.869,132.4 235.036,140.4 237,148.5C 238.212,159.531 238.379,170.531 237.5,181.5C 235.062,183.535 232.395,185.201 229.5,186.5C 226.123,191.225 223.123,196.225 220.5,201.5C 220.608,202.442 220.941,203.275 221.5,204C 230.897,205.859 231.897,209.859 224.5,216C 223.398,220.287 223.398,224.787 224.5,229.5C 212.5,229.5 200.5,229.5 188.5,229.5C 188.737,225.727 188.237,222.06 187,218.5C 183.344,211.359 179.511,204.359 175.5,197.5C 168.839,192.964 162.839,193.797 157.5,200C 154.78,204.826 150.614,209.659 145,214.5C 144.654,216.218 144.154,217.885 143.5,219.5C 145.385,220.197 145.718,221.197 144.5,222.5C 145.054,225.087 146.054,227.42 147.5,229.5C 145.5,229.5 143.5,229.5 141.5,229.5C 139.91,220.432 141.743,212.099 147,204.5C 147.667,201.833 147.667,199.167 147,196.5C 140.038,182.735 134.538,168.401 130.5,153.5C 133.247,157.301 136.247,160.967 139.5,164.5C 145.279,174.911 151.279,174.911 157.5,164.5C 160.265,162.369 162.599,159.702 164.5,156.5C 169.491,151.822 174.824,147.655 180.5,144C 177.538,137.859 176.538,131.525 177.5,125C 176.484,124.481 175.818,123.647 175.5,122.5C 174.624,118.119 173.624,113.786 172.5,109.5 Z"/></g>
<g><path style="opacity:1" fill="#a5e991" d="M 43.5,113.5 C 43.5,112.833 43.8333,112.5 44.5,112.5C 45.8734,112.343 47.2068,112.51 48.5,113C 50.596,113.737 52.2627,114.903 53.5,116.5C 51.5588,116.131 49.7255,115.464 48,114.5C 46.4082,118.11 46.4082,121.777 48,125.5C 50.0559,126.583 51.3892,128.25 52,130.5C 54.8772,133.487 57.8772,133.821 61,131.5C 61.1073,127.929 60.274,124.596 58.5,121.5C 60.9754,122.687 61.9754,124.687 61.5,127.5C 63.5,127.5 65.5,127.5 67.5,127.5C 67.281,128.675 67.6143,129.675 68.5,130.5C 71.9046,131.248 75.2379,132.248 78.5,133.5C 79.8333,135.833 79.8333,138.167 78.5,140.5C 75.3619,144.629 72.3619,144.462 69.5,140C 67.5273,139.505 65.5273,139.338 63.5,139.5C 63.5,138.5 63.5,137.5 63.5,136.5C 51.8687,136.005 44.202,130.171 40.5,119C 40.599,116.452 41.9323,114.952 44.5,114.5C 44.3764,113.893 44.0431,113.56 43.5,113.5 Z"/></g>
<g><path style="opacity:1" fill="#96e993" d="M 125.5,111.5 C 125.833,111.5 126.167,111.5 126.5,111.5C 126.162,115.296 126.495,118.296 127.5,120.5C 132.691,119.467 136.691,121.134 139.5,125.5C 142.094,131.894 140.428,136.561 134.5,139.5C 132.026,138.68 129.693,137.68 127.5,136.5C 125.932,128.263 125.265,119.93 125.5,111.5 Z"/></g>
<g><path style="opacity:1" fill="#8ce992" d="M -0.5,133.5 C 1.448,135.789 3.448,138.122 5.5,140.5C 6.32496,141.386 7.32496,141.719 8.5,141.5C 8.59295,145.968 9.09295,150.301 10,154.5C 8.61238,155.554 7.11238,155.72 5.5,155C 3.8542,153.179 1.8542,152.013 -0.5,151.5C -0.5,145.5 -0.5,139.5 -0.5,133.5 Z"/></g>
<g><path style="opacity:1" fill="#8be592" d="M 58.5,114.5 C 59.4916,114.328 60.1583,114.662 60.5,115.5C 62.2962,119.952 65.6295,122.618 70.5,123.5C 70.6107,124.117 70.944,124.617 71.5,125C 76.2851,125.706 80.7851,127.206 85,129.5C 85.7811,130.729 86.2811,132.062 86.5,133.5C 85.8322,138.186 85.1656,142.852 84.5,147.5C 83.5,147.833 82.8333,148.5 82.5,149.5C 80.4017,148.086 79.4017,148.752 79.5,151.5C 77.1432,151.663 74.8098,151.497 72.5,151C 70.6518,148.821 68.4852,146.987 66,145.5C 64.8173,146.731 63.6507,146.731 62.5,145.5C 63.5063,144.604 63.5063,143.938 62.5,143.5C 59.2547,143.974 55.9214,143.974 52.5,143.5C 47.7059,138.714 43.7059,133.38 40.5,127.5C 39.7051,123.215 39.3718,118.881 39.5,114.5C 40.9587,114.567 42.2921,114.234 43.5,113.5C 44.0431,113.56 44.3764,113.893 44.5,114.5C 41.9323,114.952 40.599,116.452 40.5,119C 44.202,130.171 51.8687,136.005 63.5,136.5C 63.5,137.5 63.5,138.5 63.5,139.5C 65.5273,139.338 67.5273,139.505 69.5,140C 72.3619,144.462 75.3619,144.629 78.5,140.5C 79.8333,138.167 79.8333,135.833 78.5,133.5C 75.2379,132.248 71.9046,131.248 68.5,130.5C 67.6143,129.675 67.281,128.675 67.5,127.5C 65.5,127.5 63.5,127.5 61.5,127.5C 61.9754,124.687 60.9754,122.687 58.5,121.5C 56.5,120.167 54.8333,118.5 53.5,116.5C 52.2627,114.903 50.596,113.737 48.5,113C 47.2068,112.51 45.8734,112.343 44.5,112.5C 43.0813,111.549 41.4147,111.216 39.5,111.5C 39.5,109.5 39.5,107.5 39.5,105.5C 42.5719,105.183 45.5719,105.516 48.5,106.5C 48.8797,108.021 49.0464,109.687 49,111.5C 49.3879,110.572 50.0546,109.905 51,109.5C 53.0941,111.758 55.5941,113.425 58.5,114.5 Z"/></g>
<g><path style="opacity:1" fill="#cbe78f" d="M 53.5,116.5 C 54.8333,118.5 56.5,120.167 58.5,121.5C 60.274,124.596 61.1073,127.929 61,131.5C 57.8772,133.821 54.8772,133.487 52,130.5C 51.3892,128.25 50.0559,126.583 48,125.5C 46.4082,121.777 46.4082,118.11 48,114.5C 49.7255,115.464 51.5588,116.131 53.5,116.5 Z"/></g>
<g><path style="opacity:1" fill="#bae1c6" d="M 31.5,121.5 C 35.7897,128.137 40.123,134.804 44.5,141.5C 45.1835,141.863 45.8501,142.196 46.5,142.5C 48.1687,145.51 50.502,147.843 53.5,149.5C 54.2811,150.729 54.7811,152.062 55,153.5C 55.3333,152.833 55.6667,152.167 56,151.5C 60.9371,155.382 64.9371,160.048 68,165.5C 69.4413,166.87 71.108,167.87 73,168.5C 77.6159,162.049 82.7826,156.049 88.5,150.5C 90.303,148.381 91.6363,146.048 92.5,143.5C 92.5,143.167 92.5,142.833 92.5,142.5C 93.2644,140.26 94.0977,137.927 95,135.5C 98.1151,132.238 101.615,131.738 105.5,134C 112.084,138.441 118.75,142.608 125.5,146.5C 125.5,145.5 125.5,144.5 125.5,143.5C 126.451,144.919 126.784,146.585 126.5,148.5C 129.469,162.911 134.302,176.577 141,189.5C 144.702,195.787 145.202,202.287 142.5,209C 140.02,212.013 138.354,215.513 137.5,219.5C 138.327,222.783 138.66,226.116 138.5,229.5C 106.167,229.5 73.8333,229.5 41.5,229.5C 42.5673,226.432 44.5673,224.432 47.5,223.5C 47.1616,220.675 48.1616,218.508 50.5,217C 49.5509,216.383 48.7175,216.549 48,217.5C 47.5172,216.552 47.3505,215.552 47.5,214.5C 43.1982,214.02 39.8649,212.02 37.5,208.5C 35.5,207.167 33.5,207.167 31.5,208.5C 29.845,213.143 27.6783,217.477 25,221.5C 22.4259,223.002 19.5926,224.002 16.5,224.5C 15.6906,226.071 15.3573,227.738 15.5,229.5C 10.1667,229.5 4.83333,229.5 -0.5,229.5C -0.5,221.5 -0.5,213.5 -0.5,205.5C 1.83333,205.5 4.16667,205.5 6.5,205.5C 7.48612,201.03 7.81946,196.363 7.5,191.5C 4.83333,191.5 2.16667,191.5 -0.5,191.5C -0.5,180.5 -0.5,169.5 -0.5,158.5C 7.55454,164.925 13.5545,163.259 17.5,153.5C 17.5579,149.786 17.0579,146.12 16,142.5C 9.26619,136.192 4.76619,128.526 2.5,119.5C 4.10446,117.821 4.77112,115.821 4.5,113.5C 7.7131,113.81 10.7131,113.477 13.5,112.5C 14.29,111.391 14.79,110.058 15,108.5C 18.3512,110.26 21.8512,111.594 25.5,112.5C 25.3505,113.552 25.5172,114.552 26,115.5C 27.7499,117.704 29.5832,119.704 31.5,121.5 Z"/></g>
<g><path style="opacity:1" fill="#abc267" d="M 127.5,137.5 C 127.5,139.5 127.5,141.5 127.5,143.5C 127.5,145.167 127.5,146.833 127.5,148.5C 127.167,148.5 126.833,148.5 126.5,148.5C 126.784,146.585 126.451,144.919 125.5,143.5C 125.5,142.5 125.5,141.5 125.5,140.5C 125.932,139.29 126.599,138.29 127.5,137.5 Z"/></g>
<g><path style="opacity:1" fill="#84dc94" d="M -0.5,127.5 C 3.7732,132.466 7.7732,137.799 11.5,143.5C 15.047,155.675 11.047,159.675 -0.5,155.5C -0.5,154.167 -0.5,152.833 -0.5,151.5C 1.8542,152.013 3.8542,153.179 5.5,155C 7.11238,155.72 8.61238,155.554 10,154.5C 9.09295,150.301 8.59295,145.968 8.5,141.5C 7.32496,141.719 6.32496,141.386 5.5,140.5C 3.448,138.122 1.448,135.789 -0.5,133.5C -0.5,131.5 -0.5,129.5 -0.5,127.5 Z"/></g>
<g><path style="opacity:1" fill="#83cba4" d="M -0.5,113.5 C 1.16667,113.5 2.83333,113.5 4.5,113.5C 4.77112,115.821 4.10446,117.821 2.5,119.5C 4.76619,128.526 9.26619,136.192 16,142.5C 17.0579,146.12 17.5579,149.786 17.5,153.5C 13.5545,163.259 7.55454,164.925 -0.5,158.5C -0.5,157.5 -0.5,156.5 -0.5,155.5C 11.047,159.675 15.047,155.675 11.5,143.5C 7.7732,137.799 3.7732,132.466 -0.5,127.5C -0.5,122.833 -0.5,118.167 -0.5,113.5 Z"/></g>
<g><path style="opacity:1" fill="#80c6a5" d="M 145.5,111.5 C 145.833,111.5 146.167,111.5 146.5,111.5C 152.5,111.5 158.5,111.5 164.5,111.5C 165.376,111.369 166.043,111.702 166.5,112.5C 168.316,116.05 168.316,119.384 166.5,122.5C 164.004,123.58 161.67,124.914 159.5,126.5C 160.167,127.167 160.833,127.833 161.5,128.5C 160.306,130.623 159.64,132.957 159.5,135.5C 159.656,139.14 160.656,142.473 162.5,145.5C 160.364,152.062 158.697,158.395 157.5,164.5C 151.279,174.911 145.279,174.911 139.5,164.5C 139.821,162.952 140.821,162.285 142.5,162.5C 142.5,163.5 142.5,164.5 142.5,165.5C 145.649,165.789 148.649,165.289 151.5,164C 152.858,160.927 154.025,157.76 155,154.5C 155.333,154.833 155.667,155.167 156,155.5C 156.309,154.234 156.809,153.067 157.5,152C 154.558,150.043 153.225,147.21 153.5,143.5C 154.5,143.5 155.5,143.5 156.5,143.5C 155.709,140.583 155.709,137.75 156.5,135C 155.584,134.626 154.75,134.126 154,133.5C 151.881,128.88 152.381,124.546 155.5,120.5C 150.55,119.213 147.216,116.213 145.5,111.5 Z"/></g>
<g><path style="opacity:1" fill="#82d794" d="M 127.5,103.5 C 127.5,105.833 127.5,108.167 127.5,110.5C 128.833,110.5 130.167,110.5 131.5,110.5C 137.387,110.733 141.72,113.4 144.5,118.5C 148.344,120.175 150.177,123.175 150,127.5C 150.333,134.5 150.667,141.5 151,148.5C 152.482,152.106 151.816,155.439 149,158.5C 146.861,159.769 144.695,159.769 142.5,158.5C 141.787,156.224 141.287,153.891 141,151.5C 139.188,149.7 137.355,148.033 135.5,146.5C 137.492,146.328 139.158,146.995 140.5,148.5C 141.333,147.5 142.167,146.5 143,145.5C 142.892,149.157 142.892,152.823 143,156.5C 144.11,154.963 145.61,154.297 147.5,154.5C 147.643,144.156 147.143,133.822 146,123.5C 144.594,122.332 143.428,122.665 142.5,124.5C 138.932,123.685 137.766,121.685 139,118.5C 138.275,117.941 137.442,117.608 136.5,117.5C 132.996,117.676 129.996,118.676 127.5,120.5C 126.495,118.296 126.162,115.296 126.5,111.5C 126.194,108.615 126.527,105.948 127.5,103.5 Z"/></g>
<g><path style="opacity:1" fill="#85cbb2" d="M 52.5,143.5 C 52.33,144.822 52.6634,145.989 53.5,147C 57.1666,147.571 60.5,148.737 63.5,150.5C 63.238,151.978 63.5713,153.311 64.5,154.5C 66.6922,155.859 68.3589,157.692 69.5,160C 72.4786,160.007 75.4786,159.673 78.5,159C 80.657,155.844 83.157,153.011 86,150.5C 87.1178,148.235 87.9512,145.901 88.5,143.5C 89.8333,143.5 91.1667,143.5 92.5,143.5C 91.6363,146.048 90.303,148.381 88.5,150.5C 82.7826,156.049 77.6159,162.049 73,168.5C 71.108,167.87 69.4413,166.87 68,165.5C 64.9371,160.048 60.9371,155.382 56,151.5C 55.6667,152.167 55.3333,152.833 55,153.5C 54.7811,152.062 54.2811,150.729 53.5,149.5C 50.502,147.843 48.1687,145.51 46.5,142.5C 46.7352,141.903 47.2352,141.57 48,141.5C 49.4064,142.414 50.9064,143.08 52.5,143.5 Z"/></g>
<g><path style="opacity:1" fill="#83d596" d="M 52.5,143.5 C 55.9214,143.974 59.2547,143.974 62.5,143.5C 63.5063,143.938 63.5063,144.604 62.5,145.5C 63.6507,146.731 64.8173,146.731 66,145.5C 68.4852,146.987 70.6518,148.821 72.5,151C 74.8098,151.497 77.1432,151.663 79.5,151.5C 79.4017,148.752 80.4017,148.086 82.5,149.5C 81.365,150.474 80.365,151.641 79.5,153C 73.5602,155.287 68.2268,154.454 63.5,150.5C 60.5,148.737 57.1666,147.571 53.5,147C 52.6634,145.989 52.33,144.822 52.5,143.5 Z"/></g>
<g><path style="opacity:1" fill="#e6d689" d="M 126.5,148.5 C 126.833,148.5 127.167,148.5 127.5,148.5C 128.241,150.354 129.241,152.021 130.5,153.5C 134.538,168.401 140.038,182.735 147,196.5C 147.667,199.167 147.667,201.833 147,204.5C 141.743,212.099 139.91,220.432 141.5,229.5C 140.5,229.5 139.5,229.5 138.5,229.5C 138.66,226.116 138.327,222.783 137.5,219.5C 138.354,215.513 140.02,212.013 142.5,209C 145.202,202.287 144.702,195.787 141,189.5C 134.302,176.577 129.469,162.911 126.5,148.5 Z"/></g>
<g><path style="opacity:1" fill="#e5ebe7" d="M 159.5,166.5 C 161.722,166.178 163.556,166.845 165,168.5C 165.497,170.81 165.663,173.143 165.5,175.5C 157.771,176.122 155.771,173.122 159.5,166.5 Z"/></g>
<g><path style="opacity:1" fill="#a8d8b5" d="M 271.5,111.5 C 272.167,111.5 272.833,111.5 273.5,111.5C 275.113,111.944 276.28,112.944 277,114.5C 277.232,113.263 277.732,112.263 278.5,111.5C 279.5,111.5 280.5,111.5 281.5,111.5C 281.5,111.833 281.5,112.167 281.5,112.5C 277.673,114.245 277.673,115.578 281.5,116.5C 279.214,117.34 278.881,118.84 280.5,121C 277.78,128.265 275.946,135.765 275,143.5C 274,145.167 273,146.833 272,148.5C 270.083,155.421 267.917,162.255 265.5,169C 266.626,172.744 266.793,176.577 266,180.5C 260.045,187.534 256.545,195.7 255.5,205C 256.403,207.079 257.069,209.246 257.5,211.5C 257.503,214.602 257.003,214.935 256,212.5C 255.333,216.167 255.333,219.833 256,223.5C 256.182,220.774 256.682,218.107 257.5,215.5C 257.833,216 258.167,216.5 258.5,217C 259.498,221 259.831,225.167 259.5,229.5C 247.833,229.5 236.167,229.5 224.5,229.5C 223.398,224.787 223.398,220.287 224.5,216C 231.897,209.859 230.897,205.859 221.5,204C 220.941,203.275 220.608,202.442 220.5,201.5C 223.123,196.225 226.123,191.225 229.5,186.5C 232.395,185.201 235.062,183.535 237.5,181.5C 238.379,170.531 238.212,159.531 237,148.5C 235.036,140.4 232.869,132.4 230.5,124.5C 231.145,123.188 232.145,122.188 233.5,121.5C 235.167,122.833 236.833,122.833 238.5,121.5C 240.623,123.31 242.957,124.643 245.5,125.5C 247.591,125.318 249.591,125.652 251.5,126.5C 252.321,129.447 252.821,132.447 253,135.5C 254.911,140.418 258.411,142.251 263.5,141C 265.972,139.399 266.972,137.399 266.5,135C 267.949,131.185 269.449,127.352 271,123.5C 271.499,119.514 271.666,115.514 271.5,111.5 Z"/></g>
<g><path style="opacity:1" fill="#6c736c" d="M -0.5,192.5 C -0.5,192.167 -0.5,191.833 -0.5,191.5C 2.16667,191.5 4.83333,191.5 7.5,191.5C 7.81946,196.363 7.48612,201.03 6.5,205.5C 6.5,201.167 6.5,196.833 6.5,192.5C 4.16667,192.5 1.83333,192.5 -0.5,192.5 Z"/></g>
<g><path style="opacity:1" fill="#7f8482" d="M -0.5,201.5 C -0.5,200.167 -0.5,198.833 -0.5,197.5C 0.221579,197.918 0.721579,198.584 1,199.5C 1.83333,198.5 2.66667,197.5 3.5,196.5C 6.61126,201.722 5.27792,203.389 -0.5,201.5 Z"/></g>
<g><path style="opacity:1" fill="#f8f9f7" d="M -0.5,192.5 C 1.83333,192.5 4.16667,192.5 6.5,192.5C 6.5,196.833 6.5,201.167 6.5,205.5C 4.16667,205.5 1.83333,205.5 -0.5,205.5C -0.5,204.167 -0.5,202.833 -0.5,201.5C 5.27792,203.389 6.61126,201.722 3.5,196.5C 2.66667,197.5 1.83333,198.5 1,199.5C 0.721579,198.584 0.221579,197.918 -0.5,197.5C -0.5,195.833 -0.5,194.167 -0.5,192.5 Z"/></g>
<g><path style="opacity:1" fill="#83cb9f" d="M 175.5,197.5 C 179.511,204.359 183.344,211.359 187,218.5C 188.237,222.06 188.737,225.727 188.5,229.5C 188.167,229.5 187.833,229.5 187.5,229.5C 187.186,225.27 186.02,221.27 184,217.5C 180.902,213.617 178.068,209.617 175.5,205.5C 173.75,200.119 170.084,198.453 164.5,200.5C 163.423,202.729 162.756,205.063 162.5,207.5C 161.5,207.5 160.5,207.5 159.5,207.5C 159.666,211.846 159.499,216.179 159,220.5C 156.788,223.002 155.955,226.002 156.5,229.5C 156.167,229.5 155.833,229.5 155.5,229.5C 155.66,226.116 155.327,222.783 154.5,219.5C 154.939,217.896 155.606,216.396 156.5,215C 156.167,214.5 155.833,214 155.5,213.5C 154.281,214.263 153.281,215.263 152.5,216.5C 152.167,215.833 151.833,215.167 151.5,214.5C 155.28,209.994 158.28,204.994 160.5,199.5C 162.373,197.279 164.707,195.946 167.5,195.5C 170.011,196.655 172.678,197.322 175.5,197.5 Z"/></g>
<g><path style="opacity:1" fill="#84caae" d="M 118.5,184.5 C 124.014,183.486 127.847,185.486 130,190.5C 130.23,196.115 129.063,201.449 126.5,206.5C 118.754,213.025 109.754,215.858 99.5,215C 96.6026,213.285 95.2693,210.785 95.5,207.5C 90.2865,207.465 85.2865,206.465 80.5,204.5C 75.9752,201.43 74.8085,197.43 77,192.5C 79.8773,191.17 82.7107,191.336 85.5,193C 88.5306,195.064 90.8639,197.731 92.5,201C 94.01,201.85 95.51,202.683 97,203.5C 102.392,200.583 106.225,196.75 108.5,192C 111.684,189.248 115.018,186.748 118.5,184.5 Z"/></g>
<g><path style="opacity:1" fill="#82d397" d="M 117.5,188.5 C 120.86,188.616 124.193,188.949 127.5,189.5C 127.666,193.846 127.499,198.179 127,202.5C 125.647,203.685 124.48,205.019 123.5,206.5C 118.387,207.352 113.387,208.185 108.5,209C 108.213,204.958 108.213,200.791 108.5,196.5C 109.5,196.5 110.5,196.5 111.5,196.5C 111.5,194.833 111.5,193.167 111.5,191.5C 114.313,191.975 116.313,190.975 117.5,188.5 Z"/></g>
<g><path style="opacity:1" fill="#84e090" d="M 117.5,190.5 C 119.5,190.5 121.5,190.5 123.5,190.5C 125.285,200.052 121.285,204.719 111.5,204.5C 111.5,202.833 111.5,201.167 111.5,199.5C 116.187,198.494 118.187,195.494 117.5,190.5 Z"/></g>
<g><path style="opacity:1" fill="#91e592" d="M 175.5,205.5 C 178.068,209.617 180.902,213.617 184,217.5C 186.02,221.27 187.186,225.27 187.5,229.5C 186.5,229.5 185.5,229.5 184.5,229.5C 183.115,223.213 180.448,217.38 176.5,212C 174.421,211.192 172.421,211.359 170.5,212.5C 169.139,214.028 167.972,215.695 167,217.5C 166.501,221.486 166.334,225.486 166.5,229.5C 165.167,229.5 163.833,229.5 162.5,229.5C 161.084,221.398 162.084,213.564 165.5,206C 164.483,204.951 164.316,203.784 165,202.5C 167.064,201.409 169.231,201.242 171.5,202C 172.705,203.376 174.038,204.542 175.5,205.5 Z"/></g>
<g><path style="opacity:1" fill="#cbe68d" d="M 184.5,229.5 C 182.833,229.5 181.167,229.5 179.5,229.5C 179.664,226.813 179.497,224.146 179,221.5C 177.333,219.731 175.667,218.065 174,216.5C 169.809,220.253 168.975,224.586 171.5,229.5C 169.833,229.5 168.167,229.5 166.5,229.5C 166.334,225.486 166.501,221.486 167,217.5C 167.972,215.695 169.139,214.028 170.5,212.5C 172.421,211.359 174.421,211.192 176.5,212C 180.448,217.38 183.115,223.213 184.5,229.5 Z"/></g>
<g><path style="opacity:1" fill="#84db93" d="M 175.5,205.5 C 174.038,204.542 172.705,203.376 171.5,202C 169.231,201.242 167.064,201.409 165,202.5C 164.316,203.784 164.483,204.951 165.5,206C 162.084,213.564 161.084,221.398 162.5,229.5C 160.5,229.5 158.5,229.5 156.5,229.5C 155.955,226.002 156.788,223.002 159,220.5C 159.499,216.179 159.666,211.846 159.5,207.5C 160.5,207.5 161.5,207.5 162.5,207.5C 162.756,205.063 163.423,202.729 164.5,200.5C 170.084,198.453 173.75,200.119 175.5,205.5 Z"/></g>
<g><path style="opacity:1" fill="#84c9b2" d="M 175.5,197.5 C 172.678,197.322 170.011,196.655 167.5,195.5C 164.707,195.946 162.373,197.279 160.5,199.5C 158.28,204.994 155.28,209.994 151.5,214.5C 151.833,215.167 152.167,215.833 152.5,216.5C 153.281,215.263 154.281,214.263 155.5,213.5C 155.833,214 156.167,214.5 156.5,215C 155.606,216.396 154.939,217.896 154.5,219.5C 155.327,222.783 155.66,226.116 155.5,229.5C 152.833,229.5 150.167,229.5 147.5,229.5C 146.054,227.42 145.054,225.087 144.5,222.5C 145.718,221.197 145.385,220.197 143.5,219.5C 144.154,217.885 144.654,216.218 145,214.5C 150.614,209.659 154.78,204.826 157.5,200C 162.839,193.797 168.839,192.964 175.5,197.5 Z"/></g>
<g><path style="opacity:1" fill="#aad8b6" d="M 41.5,229.5 C 32.8333,229.5 24.1667,229.5 15.5,229.5C 15.3573,227.738 15.6906,226.071 16.5,224.5C 19.5926,224.002 22.4259,223.002 25,221.5C 27.6783,217.477 29.845,213.143 31.5,208.5C 33.5,207.167 35.5,207.167 37.5,208.5C 39.8649,212.02 43.1982,214.02 47.5,214.5C 47.3505,215.552 47.5172,216.552 48,217.5C 48.7175,216.549 49.5509,216.383 50.5,217C 48.1616,218.508 47.1616,220.675 47.5,223.5C 44.5673,224.432 42.5673,226.432 41.5,229.5 Z"/></g>
<g><path style="opacity:1" fill="#d2da8a" d="M 179.5,229.5 C 176.833,229.5 174.167,229.5 171.5,229.5C 168.975,224.586 169.809,220.253 174,216.5C 175.667,218.065 177.333,219.731 179,221.5C 179.497,224.146 179.664,226.813 179.5,229.5 Z"/></g>
</svg>
