<?xml version="1.0" encoding="UTF-8"?>
<!DOCTYPE svg PUBLIC "-//W3C//DTD SVG 1.1//EN" "http://www.w3.org/Graphics/SVG/1.1/DTD/svg11.dtd">
<svg xmlns="http://www.w3.org/2000/svg" version="1.1" width="512px" height="512px" style="shape-rendering:geometricPrecision; text-rendering:geometricPrecision; image-rendering:optimizeQuality; fill-rule:evenodd; clip-rule:evenodd" xmlns:xlink="http://www.w3.org/1999/xlink">
<g><path style="opacity:0.999" fill="#1e2023" d="M 22.5,-0.5 C 178.167,-0.5 333.833,-0.5 489.5,-0.5C 500.101,3.10172 507.435,10.1017 511.5,20.5C 511.5,177.5 511.5,334.5 511.5,491.5C 507.082,500.919 500.082,507.585 490.5,511.5C 333.833,511.5 177.167,511.5 20.5,511.5C 10.1017,507.435 3.10172,500.101 -0.5,489.5C -0.5,333.833 -0.5,178.167 -0.5,22.5C 3.4914,11.1753 11.1581,3.5086 22.5,-0.5 Z"/></g>
<g><path style="opacity:1" fill="#202225" d="M 246.5,10.5 C 344.391,10.6748 418.891,52.0081 470,134.5C 506.765,201.925 512.432,271.925 487,344.5C 453.325,426.835 393.158,478.335 306.5,499C 216.284,514.814 139.117,490.314 75,425.5C 20.4381,363.446 0.104744,291.446 14,209.5C 34.1797,120.992 86.3464,59.8249 170.5,26C 195.227,17.155 220.561,11.9883 246.5,10.5 Z"/></g>
<g><path style="opacity:1" fill="#212326" d="M 245.5,31.5 C 335.006,31.155 403.506,68.4884 451,143.5C 485.075,204.927 490.742,268.927 468,335.5C 433.234,420.248 370.401,469.081 279.5,482C 194.721,488.182 126.221,458.015 74,391.5C 28.7348,325.976 18.7348,255.31 44,179.5C 74.2807,104.267 128.781,56.7673 207.5,37C 220.219,34.4963 232.886,32.663 245.5,31.5 Z"/></g>
<g><path style="opacity:1" fill="#242629" d="M 362.5,137.5 C 361.213,140.406 360.213,143.406 359.5,146.5C 352.301,158.589 352.968,170.256 361.5,181.5C 360.522,181.811 359.855,182.478 359.5,183.5C 367.032,192.624 376.699,196.124 388.5,194C 392.795,193.102 396.628,191.269 400,188.5C 405.374,198.953 409.374,209.953 412,221.5C 412.168,243.67 412.668,265.67 413.5,287.5C 411.547,301.622 403.547,310.122 389.5,313C 374.744,313.618 364.41,307.118 358.5,293.5C 357.678,272.573 357.178,251.573 357,230.5C 356.604,227.343 355.771,224.343 354.5,221.5C 341.533,192.346 319.2,180.513 287.5,186C 270.27,190.921 257.937,201.421 250.5,217.5C 247.6,222.848 245.267,228.515 243.5,234.5C 239.991,242.343 236.658,250.343 233.5,258.5C 232.176,261.149 230.842,263.816 229.5,266.5C 228.818,265.757 228.151,265.091 227.5,264.5C 221.871,249.928 215.871,235.594 209.5,221.5C 208.352,217.213 206.685,213.213 204.5,209.5C 199.91,191.431 188.243,183.264 169.5,185C 162.966,186.852 157.466,190.352 153,195.5C 149.327,201.841 146.494,208.508 144.5,215.5C 136.759,232.658 129.259,249.991 122,267.5C 121.722,266.584 121.222,265.918 120.5,265.5C 118.961,259.434 116.628,253.767 113.5,248.5C 109.448,237.394 105.114,226.394 100.5,215.5C 121.943,150.559 166.276,111.725 233.5,99C 282.257,93.2024 325.257,106.036 362.5,137.5 Z"/></g>
<g><path style="opacity:1" fill="#1bb5dd" d="M 399.5,132.5 C 399.657,133.873 399.49,135.207 399,136.5C 398.612,135.572 397.945,134.905 397,134.5C 392.139,135.753 387.139,136.419 382,136.5C 377.5,136.167 373,135.833 368.5,135.5C 368.023,134.522 367.357,133.689 366.5,133C 367.406,131.301 367.739,129.467 367.5,127.5C 371.835,115.336 376.668,103.336 382,91.5C 388.379,104.926 394.213,118.593 399.5,132.5 Z"/></g>
<g><path style="opacity:1" fill="#19afdd" d="M 367.5,127.5 C 367.739,129.467 367.406,131.301 366.5,133C 367.357,133.689 368.023,134.522 368.5,135.5C 373,135.833 377.5,136.167 382,136.5C 387.139,136.419 392.139,135.753 397,134.5C 397.945,134.905 398.612,135.572 399,136.5C 399.49,135.207 399.657,133.873 399.5,132.5C 401.874,137.277 403.874,142.277 405.5,147.5C 406.167,151.833 406.833,156.167 407.5,160.5C 390.833,160.5 374.167,160.5 357.5,160.5C 357.5,158.833 357.5,157.167 357.5,155.5C 358.928,152.697 359.595,149.697 359.5,146.5C 360.213,143.406 361.213,140.406 362.5,137.5C 363.797,133.917 365.463,130.584 367.5,127.5 Z"/></g>
<g><path style="opacity:1" fill="#179cca" d="M 359.5,146.5 C 359.595,149.697 358.928,152.697 357.5,155.5C 356.778,155.918 356.278,156.584 356,157.5C 355.333,160.833 355.333,164.167 356,167.5C 356.333,166.833 356.667,166.167 357,165.5C 361.597,182.055 372.43,188.889 389.5,186C 401.535,181.764 407.535,173.264 407.5,160.5C 406.833,156.167 406.167,151.833 405.5,147.5C 413.516,161.435 411.516,173.935 399.5,185C 385.827,193.306 373.16,192.139 361.5,181.5C 352.968,170.256 352.301,158.589 359.5,146.5 Z"/></g>
<g><path style="opacity:1" fill="#17abdd" d="M 357.5,155.5 C 357.5,157.167 357.5,158.833 357.5,160.5C 374.167,160.5 390.833,160.5 407.5,160.5C 407.535,173.264 401.535,181.764 389.5,186C 372.43,188.889 361.597,182.055 357,165.5C 356.667,166.167 356.333,166.833 356,167.5C 355.333,164.167 355.333,160.833 356,157.5C 356.278,156.584 356.778,155.918 357.5,155.5 Z"/></g>
<g><path style="opacity:1" fill="#b01c24" d="M 94.5,202.5 C 91.6317,199.312 88.6317,196.145 85.5,193C 82.8232,192.751 80.4899,191.751 78.5,190C 55.2677,184.698 42.9343,193.864 41.5,217.5C 39.5469,201.603 46.2136,190.769 61.5,185C 77.1063,182.466 88.1063,188.3 94.5,202.5 Z"/></g>
<g><path style="opacity:1" fill="#144a8b" d="M 469.5,208.5 C 462.382,192.283 450.048,185.783 432.5,189C 426.688,192.334 421.355,196.167 416.5,200.5C 426.346,183.836 440.012,180.003 457.5,189C 464.177,193.855 468.177,200.355 469.5,208.5 Z"/></g>
<g><path style="opacity:1" fill="#d49b2a" d="M 354.5,221.5 C 353.833,221.5 353.167,221.5 352.5,221.5C 350.254,216.273 347.254,211.606 343.5,207.5C 322.846,186.627 299.179,182.794 272.5,196C 264.617,200.882 258.451,207.382 254,215.5C 253.184,216.823 252.017,217.489 250.5,217.5C 257.937,201.421 270.27,190.921 287.5,186C 319.2,180.513 341.533,192.346 354.5,221.5 Z"/></g>
<g><path style="opacity:1" fill="#fcb730" d="M 343.5,207.5 C 343.819,242.237 344.819,276.904 346.5,311.5C 346.457,312.416 346.124,313.083 345.5,313.5C 333.93,312.01 322.264,311.01 310.5,310.5C 308.806,308.446 307.639,306.112 307,303.5C 306.034,297.87 305.367,292.204 305,286.5C 304.667,271.833 304.333,257.167 304,242.5C 303.79,244.058 303.29,245.391 302.5,246.5C 302.795,244.265 302.461,242.265 301.5,240.5C 301.884,236.511 301.217,232.845 299.5,229.5C 292.547,214.69 280.88,208.857 264.5,212C 259.545,213.476 255.212,215.976 251.5,219.5C 250.702,219.043 250.369,218.376 250.5,217.5C 252.017,217.489 253.184,216.823 254,215.5C 258.451,207.382 264.617,200.882 272.5,196C 299.179,182.794 322.846,186.627 343.5,207.5 Z"/></g>
<g><path style="opacity:1" fill="#d5202a" d="M 94.5,202.5 C 95.3503,214.187 99.0169,224.853 105.5,234.5C 103.665,235.122 102.498,236.456 102,238.5C 94.6117,259.608 86.945,280.608 79,301.5C 77.6667,298.167 76.3333,294.833 75,291.5C 74.5831,292.756 73.7498,293.423 72.5,293.5C 61.6479,268.451 51.3145,243.118 41.5,217.5C 42.9343,193.864 55.2677,184.698 78.5,190C 80.4899,191.751 82.8232,192.751 85.5,193C 88.6317,196.145 91.6317,199.312 94.5,202.5 Z"/></g>
<g><path style="opacity:1" fill="#de472e" d="M 181.5,189.5 C 166.978,228.395 152.645,267.395 138.5,306.5C 139.025,307.192 139.692,307.692 140.5,308C 139.308,309.912 138.308,311.912 137.5,314C 138.167,314.333 138.833,314.667 139.5,315C 138.663,316.011 138.33,317.178 138.5,318.5C 138.167,318.5 137.833,318.5 137.5,318.5C 133.747,316.728 130.08,314.728 126.5,312.5C 139.754,272.089 154.087,231.756 169.5,191.5C 168.311,190.571 166.978,190.238 165.5,190.5C 170.623,188.297 175.956,187.964 181.5,189.5 Z"/></g>
<g><path style="opacity:1" fill="#dc412d" d="M 165.5,190.5 C 166.978,190.238 168.311,190.571 169.5,191.5C 154.087,231.756 139.754,272.089 126.5,312.5C 125.525,315.067 124.858,317.733 124.5,320.5C 125.675,320.281 126.675,320.614 127.5,321.5C 127.023,322.931 126.357,324.264 125.5,325.5C 121.719,323.779 117.719,322.779 113.5,322.5C 114.404,318.379 115.404,314.212 116.5,310C 116.167,309 115.833,308 115.5,307C 128.676,271.637 141.342,236.137 153.5,200.5C 155.559,194.808 159.559,191.475 165.5,190.5 Z"/></g>
<g><path style="opacity:1" fill="#e04e2e" d="M 181.5,189.5 C 186.985,189.208 191.319,191.208 194.5,195.5C 193.504,195.414 192.671,195.748 192,196.5C 179.333,231.167 166.667,265.833 154,300.5C 152.585,303.518 152.085,306.518 152.5,309.5C 152.711,313.517 152.711,317.85 152.5,322.5C 147.616,321.878 142.949,320.545 138.5,318.5C 138.33,317.178 138.663,316.011 139.5,315C 138.833,314.667 138.167,314.333 137.5,314C 138.308,311.912 139.308,309.912 140.5,308C 139.692,307.692 139.025,307.192 138.5,306.5C 152.645,267.395 166.978,228.395 181.5,189.5 Z"/></g>
<g><path style="opacity:1" fill="#e3542f" d="M 194.5,195.5 C 198.362,198.55 200.695,202.55 201.5,207.5C 192.07,232.621 182.737,257.788 173.5,283C 174.416,283.278 175.082,283.778 175.5,284.5C 173.983,284.511 172.816,285.177 172,286.5C 168.992,293.534 165.992,300.534 163,307.5C 161.49,309.208 159.99,310.874 158.5,312.5C 157.614,311.675 157.281,310.675 157.5,309.5C 155.833,309.5 154.167,309.5 152.5,309.5C 152.085,306.518 152.585,303.518 154,300.5C 166.667,265.833 179.333,231.167 192,196.5C 192.671,195.748 193.504,195.414 194.5,195.5 Z"/></g>
<g><path style="opacity:1" fill="#195eab" d="M 469.5,208.5 C 469.5,209.833 469.5,211.167 469.5,212.5C 468.686,214.631 468.186,216.964 468,219.5C 467.443,217.385 466.609,215.385 465.5,213.5C 449.5,212.167 433.5,212.167 417.5,213.5C 417.216,215.759 416.216,217.426 414.5,218.5C 414.5,214.5 414.5,210.5 414.5,206.5C 414.595,204.214 415.262,202.214 416.5,200.5C 421.355,196.167 426.688,192.334 432.5,189C 450.048,185.783 462.382,192.283 469.5,208.5 Z"/></g>
<g><path style="opacity:1" fill="#e25930" d="M 201.5,207.5 C 202.222,208.551 203.222,209.218 204.5,209.5C 206.685,213.213 208.352,217.213 209.5,221.5C 209.5,222.5 209.5,223.5 209.5,224.5C 208.603,225.598 207.77,225.598 207,224.5C 198.803,246.09 190.803,267.756 183,289.5C 182.577,294.673 183.744,299.84 186.5,305C 186.257,305.902 185.923,306.735 185.5,307.5C 182.261,300.68 179.261,293.68 176.5,286.5C 176.672,285.508 176.338,284.842 175.5,284.5C 175.082,283.778 174.416,283.278 173.5,283C 182.737,257.788 192.07,232.621 201.5,207.5 Z"/></g>
<g><path style="opacity:1" fill="#d63a2b" d="M 153.5,200.5 C 141.342,236.137 128.676,271.637 115.5,307C 115.833,308 116.167,309 116.5,310C 115.404,314.212 114.404,318.379 113.5,322.5C 110.15,322.335 106.817,322.502 103.5,323C 104.308,323.308 104.975,323.808 105.5,324.5C 104.197,327.113 103.531,329.613 103.5,332C 99.8919,331.235 96.2252,330.402 92.5,329.5C 92.33,328.178 92.6634,327.011 93.5,326C 92.8333,325.667 92.1667,325.333 91.5,325C 92.2931,323.915 92.9598,322.748 93.5,321.5C 97.4454,320.509 101.445,320.176 105.5,320.5C 104.544,316.489 105.211,312.656 107.5,309C 106.833,308.667 106.167,308.333 105.5,308C 110.939,293.962 115.939,279.795 120.5,265.5C 121.222,265.918 121.722,266.584 122,267.5C 129.259,249.991 136.759,232.658 144.5,215.5C 145.376,215.631 146.043,215.298 146.5,214.5C 148.352,209.462 150.685,204.796 153.5,200.5 Z"/></g>
<g><path style="opacity:1" fill="#b83a27" d="M 204.5,209.5 C 203.222,209.218 202.222,208.551 201.5,207.5C 200.695,202.55 198.362,198.55 194.5,195.5C 191.319,191.208 186.985,189.208 181.5,189.5C 175.956,187.964 170.623,188.297 165.5,190.5C 159.559,191.475 155.559,194.808 153.5,200.5C 150.685,204.796 148.352,209.462 146.5,214.5C 146.043,215.298 145.376,215.631 144.5,215.5C 146.494,208.508 149.327,201.841 153,195.5C 157.466,190.352 162.966,186.852 169.5,185C 188.243,183.264 199.91,191.431 204.5,209.5 Z"/></g>
<g><path style="opacity:1" fill="#c12127" d="M 94.5,202.5 C 96.7389,206.649 98.7389,210.982 100.5,215.5C 105.114,226.394 109.448,237.394 113.5,248.5C 112.624,248.631 111.957,248.298 111.5,247.5C 109.266,243.246 107.266,238.913 105.5,234.5C 99.0169,224.853 95.3503,214.187 94.5,202.5 Z"/></g>
<g><path style="opacity:1" fill="#f2b932" d="M 343.5,207.5 C 347.254,211.606 350.254,216.273 352.5,221.5C 354.477,250.129 354.977,278.795 354,307.5C 352.487,310.527 350.987,313.527 349.5,316.5C 348.167,316.5 346.833,316.5 345.5,316.5C 345.5,315.5 345.5,314.5 345.5,313.5C 346.124,313.083 346.457,312.416 346.5,311.5C 344.819,276.904 343.819,242.237 343.5,207.5 Z"/></g>
<g><path style="opacity:1" fill="#e3b331" d="M 352.5,221.5 C 353.167,221.5 353.833,221.5 354.5,221.5C 355.771,224.343 356.604,227.343 357,230.5C 357.178,251.573 357.678,272.573 358.5,293.5C 358.547,296.969 359.213,300.302 360.5,303.5C 361.499,306.162 362.499,308.828 363.5,311.5C 361.957,313.928 360.957,316.594 360.5,319.5C 361.5,319.5 362.5,319.5 363.5,319.5C 363.799,321.604 363.466,323.604 362.5,325.5C 358.85,331.459 355.183,337.459 351.5,343.5C 351.167,343.5 350.833,343.5 350.5,343.5C 347.436,343.072 344.436,342.406 341.5,341.5C 342.056,337.77 343.722,334.603 346.5,332C 345.692,330.294 344.359,329.461 342.5,329.5C 345.038,325.164 347.372,320.831 349.5,316.5C 350.987,313.527 352.487,310.527 354,307.5C 354.977,278.795 354.477,250.129 352.5,221.5 Z"/></g>
<g><path style="opacity:1" fill="#d16d2f" d="M 299.5,229.5 C 299.5,230.833 299.5,232.167 299.5,233.5C 290.775,232.776 282.442,232.776 274.5,233.5C 275.082,232.069 275.915,230.736 277,229.5C 280.08,230.696 282.58,229.863 284.5,227C 274.931,225.349 265.431,223.516 256,221.5C 250.879,225.117 246.712,229.45 243.5,234.5C 245.267,228.515 247.6,222.848 250.5,217.5C 250.369,218.376 250.702,219.043 251.5,219.5C 255.212,215.976 259.545,213.476 264.5,212C 280.88,208.857 292.547,214.69 299.5,229.5 Z"/></g>
<g><path style="opacity:1" fill="#1769b2" d="M 469.5,212.5 C 469.5,220.5 469.5,228.5 469.5,236.5C 467.787,235.365 467.12,233.698 467.5,231.5C 449.833,231.5 432.167,231.5 414.5,231.5C 414.5,227.167 414.5,222.833 414.5,218.5C 416.216,217.426 417.216,215.759 417.5,213.5C 433.5,212.167 449.5,212.167 465.5,213.5C 466.609,215.385 467.443,217.385 468,219.5C 468.186,216.964 468.686,214.631 469.5,212.5 Z"/></g>
<g><path style="opacity:1" fill="#db6b31" d="M 274.5,233.5 C 272.801,233.34 271.134,233.506 269.5,234C 267.408,236.036 265.074,237.536 262.5,238.5C 261.687,239.653 260.687,239.653 259.5,238.5C 256.262,240.275 253.262,242.275 250.5,244.5C 249.167,243.167 247.833,243.167 246.5,244.5C 243.905,243.868 241.738,244.868 240,247.5C 238.357,251.46 236.69,255.46 235,259.5C 234.617,258.944 234.117,258.611 233.5,258.5C 236.658,250.343 239.991,242.343 243.5,234.5C 246.712,229.45 250.879,225.117 256,221.5C 265.431,223.516 274.931,225.349 284.5,227C 282.58,229.863 280.08,230.696 277,229.5C 275.915,230.736 275.082,232.069 274.5,233.5 Z"/></g>
<g><path style="opacity:1" fill="#e76131" d="M 209.5,224.5 C 212.296,231.439 215.13,238.439 218,245.5C 218.494,247.134 218.66,248.801 218.5,250.5C 216.992,248.015 215.659,245.348 214.5,242.5C 206.078,262.083 198.411,282.083 191.5,302.5C 192.682,304.985 192.348,307.319 190.5,309.5C 188.925,308.544 187.258,307.877 185.5,307.5C 185.923,306.735 186.257,305.902 186.5,305C 183.744,299.84 182.577,294.673 183,289.5C 190.803,267.756 198.803,246.09 207,224.5C 207.77,225.598 208.603,225.598 209.5,224.5 Z"/></g>
<g><path style="opacity:1" fill="#e86632" d="M 218.5,250.5 C 218.654,252.97 219.654,254.97 221.5,256.5C 221.472,258.582 222.139,260.416 223.5,262C 218.167,276.333 212.833,290.667 207.5,305C 208.167,305.333 208.833,305.667 209.5,306C 208.74,307.441 208.074,308.941 207.5,310.5C 208.309,312.071 208.643,313.738 208.5,315.5C 209.675,315.281 210.675,315.614 211.5,316.5C 211.167,318.5 210.833,320.5 210.5,322.5C 213.007,324.048 212.674,325.048 209.5,325.5C 205.058,324.706 200.558,323.706 196,322.5C 195.667,323.167 195.333,323.833 195,324.5C 193.667,321.833 192.333,319.167 191,316.5C 190.617,317.056 190.117,317.389 189.5,317.5C 187.972,314.251 186.639,310.918 185.5,307.5C 187.258,307.877 188.925,308.544 190.5,309.5C 192.348,307.319 192.682,304.985 191.5,302.5C 198.411,282.083 206.078,262.083 214.5,242.5C 215.659,245.348 216.992,248.015 218.5,250.5 Z"/></g>
<g><path style="opacity:1" fill="#e86c32" d="M 246.5,244.5 C 244.914,246.625 243.081,248.625 241,250.5C 233.094,270.555 226.261,290.722 220.5,311C 222.481,311.605 222.815,312.605 221.5,314C 222.448,314.483 223.448,314.649 224.5,314.5C 224.5,315.5 224.5,316.5 224.5,317.5C 224.062,317.435 223.728,317.601 223.5,318C 225.689,318.677 226.022,319.844 224.5,321.5C 225.577,323.729 226.244,326.063 226.5,328.5C 227.675,328.281 228.675,328.614 229.5,329.5C 229.376,330.107 229.043,330.44 228.5,330.5C 221.584,330.191 215.251,328.524 209.5,325.5C 212.674,325.048 213.007,324.048 210.5,322.5C 210.833,320.5 211.167,318.5 211.5,316.5C 210.675,315.614 209.675,315.281 208.5,315.5C 208.643,313.738 208.309,312.071 207.5,310.5C 208.074,308.941 208.74,307.441 209.5,306C 208.833,305.667 208.167,305.333 207.5,305C 212.833,290.667 218.167,276.333 223.5,262C 222.139,260.416 221.472,258.582 221.5,256.5C 223.024,259.558 225.024,262.225 227.5,264.5C 228.151,265.091 228.818,265.757 229.5,266.5C 230.842,263.816 232.176,261.149 233.5,258.5C 234.117,258.611 234.617,258.944 235,259.5C 236.69,255.46 238.357,251.46 240,247.5C 241.738,244.868 243.905,243.868 246.5,244.5 Z"/></g>
<g><path style="opacity:1" fill="#d72e2b" d="M 105.5,234.5 C 107.266,238.913 109.266,243.246 111.5,247.5C 111.957,248.298 112.624,248.631 113.5,248.5C 116.628,253.767 118.961,259.434 120.5,265.5C 115.939,279.795 110.939,293.962 105.5,308C 106.167,308.333 106.833,308.667 107.5,309C 105.211,312.656 104.544,316.489 105.5,320.5C 101.445,320.176 97.4454,320.509 93.5,321.5C 92.9598,322.748 92.2931,323.915 91.5,325C 92.1667,325.333 92.8333,325.667 93.5,326C 92.6634,327.011 92.33,328.178 92.5,329.5C 87.2114,323.804 83.3781,317.137 81,309.5C 80.6174,310.056 80.1174,310.389 79.5,310.5C 76.893,304.952 74.5597,299.285 72.5,293.5C 73.7498,293.423 74.5831,292.756 75,291.5C 76.3333,294.833 77.6667,298.167 79,301.5C 86.945,280.608 94.6117,259.608 102,238.5C 102.498,236.456 103.665,235.122 105.5,234.5 Z"/></g>
<g><path style="opacity:1" fill="#a47b2b" d="M 301.5,240.5 C 302.461,242.265 302.795,244.265 302.5,246.5C 302.5,261.833 302.5,277.167 302.5,292.5C 301.833,275.833 301.167,259.167 300.5,242.5C 300.833,241.833 301.167,241.167 301.5,240.5 Z"/></g>
<g><path style="opacity:1" fill="#0d73b8" d="M 414.5,231.5 C 432.167,231.5 449.833,231.5 467.5,231.5C 467.12,233.698 467.787,235.365 469.5,236.5C 469.5,242.5 469.5,248.5 469.5,254.5C 466.5,254.833 465.167,253.5 465.5,250.5C 449.486,250.167 433.486,250.501 417.5,251.5C 417.229,254.047 416.229,256.047 414.5,257.5C 414.5,248.833 414.5,240.167 414.5,231.5 Z"/></g>
<g><path style="opacity:1" fill="#242628" d="M 300.5,242.5 C 301.167,259.167 301.833,275.833 302.5,292.5C 303.118,301.971 305.451,310.971 309.5,319.5C 311.834,325.51 315.167,330.843 319.5,335.5C 319.5,335.833 319.5,336.167 319.5,336.5C 318.402,337.601 318.235,338.934 319,340.5C 331.705,356.183 347.872,366.683 367.5,372C 323.533,412.827 272.2,426.16 213.5,412C 184.69,404.273 160.357,389.439 140.5,367.5C 142.885,365.116 144.885,362.45 146.5,359.5C 146.043,358.702 145.376,358.369 144.5,358.5C 145.6,357.395 146.267,356.062 146.5,354.5C 151.403,343.684 156.07,332.684 160.5,321.5C 164.928,311.64 169.094,301.64 173,291.5C 173.697,289.416 174.864,287.749 176.5,286.5C 179.261,293.68 182.261,300.68 185.5,307.5C 186.639,310.918 187.972,314.251 189.5,317.5C 194.397,330.949 200.064,343.949 206.5,356.5C 209.05,361.543 213.05,365.043 218.5,367C 238.275,371.785 251.275,364.618 257.5,345.5C 260.44,339.286 263.107,332.953 265.5,326.5C 277.165,298.505 288.832,270.505 300.5,242.5 Z"/></g>
<g><path style="opacity:1" fill="#ca592c" d="M 209.5,221.5 C 215.871,235.594 221.871,249.928 227.5,264.5C 225.024,262.225 223.024,259.558 221.5,256.5C 219.654,254.97 218.654,252.97 218.5,250.5C 218.66,248.801 218.494,247.134 218,245.5C 215.13,238.439 212.296,231.439 209.5,224.5C 209.5,223.5 209.5,222.5 209.5,221.5 Z"/></g>
<g><path style="opacity:1" fill="#ed7334" d="M 250.5,244.5 C 252.518,245.623 254.518,245.623 256.5,244.5C 258.962,246.066 261.462,246.399 264,245.5C 264.5,246 265,246.5 265.5,247C 263.129,248.879 260.462,250.045 257.5,250.5C 257.5,251.5 257.5,252.5 257.5,253.5C 254.762,252.965 252.928,253.965 252,256.5C 246.265,272.538 240.432,288.538 234.5,304.5C 235.325,305.386 236.325,305.719 237.5,305.5C 236.746,308.378 236.412,311.211 236.5,314C 237.308,314.308 237.975,314.808 238.5,315.5C 237.752,317.416 237.752,319.416 238.5,321.5C 234.61,319.988 229.943,318.654 224.5,317.5C 224.5,316.5 224.5,315.5 224.5,314.5C 223.448,314.649 222.448,314.483 221.5,314C 222.815,312.605 222.481,311.605 220.5,311C 226.261,290.722 233.094,270.555 241,250.5C 243.081,248.625 244.914,246.625 246.5,244.5C 247.833,243.167 249.167,243.167 250.5,244.5 Z"/></g>
<g><path style="opacity:1" fill="#ed7935" d="M 262.5,238.5 C 266.179,238.363 269.679,239.029 273,240.5C 274.902,239.614 276.735,239.947 278.5,241.5C 276.955,243.659 275.122,244.325 273,243.5C 271.414,245.044 269.58,246.211 267.5,247C 273.561,248.157 279.561,248.824 285.5,249C 284.034,249.635 282.7,250.469 281.5,251.5C 279.36,250.58 277.693,251.246 276.5,253.5C 276.631,254.376 276.298,255.043 275.5,255.5C 274.264,254.754 272.93,254.421 271.5,254.5C 271.5,255.5 271.5,256.5 271.5,257.5C 269.234,257.141 267.401,257.808 266,259.5C 260.598,274.538 255.098,289.538 249.5,304.5C 250.729,305.281 252.062,305.781 253.5,306C 252.127,307.861 251.794,309.694 252.5,311.5C 253.138,313.46 253.138,315.293 252.5,317C 253.167,317.333 253.833,317.667 254.5,318C 253.663,319.011 253.33,320.178 253.5,321.5C 255.59,321.45 256.923,322.45 257.5,324.5C 255.257,325.474 252.924,325.808 250.5,325.5C 250.5,324.5 250.5,323.5 250.5,322.5C 246.481,322.354 242.481,322.021 238.5,321.5C 237.752,319.416 237.752,317.416 238.5,315.5C 237.975,314.808 237.308,314.308 236.5,314C 236.412,311.211 236.746,308.378 237.5,305.5C 236.325,305.719 235.325,305.386 234.5,304.5C 240.432,288.538 246.265,272.538 252,256.5C 252.928,253.965 254.762,252.965 257.5,253.5C 257.5,252.5 257.5,251.5 257.5,250.5C 260.462,250.045 263.129,248.879 265.5,247C 265,246.5 264.5,246 264,245.5C 261.462,246.399 258.962,246.066 256.5,244.5C 254.518,245.623 252.518,245.623 250.5,244.5C 253.262,242.275 256.262,240.275 259.5,238.5C 260.687,239.653 261.687,239.653 262.5,238.5 Z"/></g>
<g><path style="opacity:1" fill="#f18037" d="M 276.5,253.5 C 278.679,254.059 280.846,254.726 283,255.5C 285.583,254.686 287.916,255.353 290,257.5C 289.987,260.897 289.321,264.23 288,267.5C 281.399,283.288 274.399,298.955 267,314.5C 265.981,315.687 264.814,316.687 263.5,317.5C 260.788,315.74 257.788,315.073 254.5,315.5C 254.33,314.178 254.663,313.011 255.5,312C 254.552,311.517 253.552,311.351 252.5,311.5C 251.794,309.694 252.127,307.861 253.5,306C 252.062,305.781 250.729,305.281 249.5,304.5C 255.098,289.538 260.598,274.538 266,259.5C 267.401,257.808 269.234,257.141 271.5,257.5C 271.5,256.5 271.5,255.5 271.5,254.5C 272.93,254.421 274.264,254.754 275.5,255.5C 276.298,255.043 276.631,254.376 276.5,253.5 Z"/></g>
<g><path style="opacity:1" fill="#137bbe" d="M 469.5,254.5 C 469.5,259.833 469.5,265.167 469.5,270.5C 468.522,270.189 467.855,269.522 467.5,268.5C 450.5,267.167 433.5,267.167 416.5,268.5C 416.145,269.522 415.478,270.189 414.5,270.5C 414.5,266.167 414.5,261.833 414.5,257.5C 416.229,256.047 417.229,254.047 417.5,251.5C 433.486,250.501 449.486,250.167 465.5,250.5C 465.167,253.5 466.5,254.833 469.5,254.5 Z"/></g>
<g><path style="opacity:1" fill="#1c85c4" d="M 469.5,270.5 C 469.5,277.167 469.5,283.833 469.5,290.5C 468.732,291.263 468.232,292.263 468,293.5C 466.92,291.447 466.086,289.28 465.5,287C 449.49,286.167 433.49,286.334 417.5,287.5C 417.043,289.598 416.043,291.264 414.5,292.5C 414.5,285.167 414.5,277.833 414.5,270.5C 415.478,270.189 416.145,269.522 416.5,268.5C 433.5,267.167 450.5,267.167 467.5,268.5C 467.855,269.522 468.522,270.189 469.5,270.5 Z"/></g>
<g><path style="opacity:1" fill="#e37933" d="M 299.5,229.5 C 301.217,232.845 301.884,236.511 301.5,240.5C 301.167,241.167 300.833,241.833 300.5,242.5C 288.832,270.505 277.165,298.505 265.5,326.5C 264.883,326.389 264.383,326.056 264,325.5C 262.287,329.873 259.787,333.707 256.5,337C 253.516,336.371 250.516,336.537 247.5,337.5C 248.5,338.167 249.5,338.833 250.5,339.5C 250.291,340.086 249.957,340.586 249.5,341C 252.08,342.481 252.913,344.648 252,347.5C 249.544,345.679 246.711,345.012 243.5,345.5C 243.5,344.5 243.5,343.5 243.5,342.5C 240.43,342.632 237.43,342.299 234.5,341.5C 232.396,341.799 230.396,341.466 228.5,340.5C 230.149,339.852 231.482,338.852 232.5,337.5C 230.093,335.364 228.759,333.031 228.5,330.5C 229.043,330.44 229.376,330.107 229.5,329.5C 228.675,328.614 227.675,328.281 226.5,328.5C 226.244,326.063 225.577,323.729 224.5,321.5C 226.022,319.844 225.689,318.677 223.5,318C 223.728,317.601 224.062,317.435 224.5,317.5C 229.943,318.654 234.61,319.988 238.5,321.5C 242.481,322.021 246.481,322.354 250.5,322.5C 250.5,323.5 250.5,324.5 250.5,325.5C 252.924,325.808 255.257,325.474 257.5,324.5C 256.923,322.45 255.59,321.45 253.5,321.5C 253.33,320.178 253.663,319.011 254.5,318C 253.833,317.667 253.167,317.333 252.5,317C 253.138,315.293 253.138,313.46 252.5,311.5C 253.552,311.351 254.552,311.517 255.5,312C 254.663,313.011 254.33,314.178 254.5,315.5C 257.788,315.073 260.788,315.74 263.5,317.5C 264.814,316.687 265.981,315.687 267,314.5C 274.399,298.955 281.399,283.288 288,267.5C 289.321,264.23 289.987,260.897 290,257.5C 287.916,255.353 285.583,254.686 283,255.5C 280.846,254.726 278.679,254.059 276.5,253.5C 277.693,251.246 279.36,250.58 281.5,251.5C 282.7,250.469 284.034,249.635 285.5,249C 279.561,248.824 273.561,248.157 267.5,247C 269.58,246.211 271.414,245.044 273,243.5C 275.122,244.325 276.955,243.659 278.5,241.5C 276.735,239.947 274.902,239.614 273,240.5C 269.679,239.029 266.179,238.363 262.5,238.5C 265.074,237.536 267.408,236.036 269.5,234C 271.134,233.506 272.801,233.34 274.5,233.5C 282.442,232.776 290.775,232.776 299.5,233.5C 299.5,232.167 299.5,230.833 299.5,229.5 Z"/></g>
<g><path style="opacity:1" fill="#1990cc" d="M 469.5,290.5 C 469.453,293.969 468.787,297.302 467.5,300.5C 466.421,305.073 464.754,309.407 462.5,313.5C 461.733,312.828 461.066,311.995 460.5,311C 441.456,310.192 422.456,310.359 403.5,311.5C 407.483,306.879 410.983,301.879 414,296.5C 414.49,295.207 414.657,293.873 414.5,292.5C 416.043,291.264 417.043,289.598 417.5,287.5C 433.49,286.334 449.49,286.167 465.5,287C 466.086,289.28 466.92,291.447 468,293.5C 468.232,292.263 468.732,291.263 469.5,290.5 Z"/></g>
<g><path style="opacity:1" fill="#1876a5" d="M 414.5,206.5 C 414.5,210.5 414.5,214.5 414.5,218.5C 414.5,222.833 414.5,227.167 414.5,231.5C 414.5,240.167 414.5,248.833 414.5,257.5C 414.5,261.833 414.5,266.167 414.5,270.5C 414.5,277.833 414.5,285.167 414.5,292.5C 414.657,293.873 414.49,295.207 414,296.5C 410.983,301.879 407.483,306.879 403.5,311.5C 392.812,318.729 381.812,319.229 370.5,313C 367.042,309.864 363.708,306.697 360.5,303.5C 359.213,300.302 358.547,296.969 358.5,293.5C 364.41,307.118 374.744,313.618 389.5,313C 403.547,310.122 411.547,301.622 413.5,287.5C 413.169,260.328 413.502,233.328 414.5,206.5 Z"/></g>
<g><path style="opacity:1" fill="#f4b12f" d="M 345.5,313.5 C 345.5,314.5 345.5,315.5 345.5,316.5C 346.833,316.5 348.167,316.5 349.5,316.5C 347.372,320.831 345.038,325.164 342.5,329.5C 335.774,331.568 328.774,332.068 321.5,331C 317.307,327.469 313.807,323.302 311,318.5C 310.617,319.056 310.117,319.389 309.5,319.5C 305.451,310.971 303.118,301.971 302.5,292.5C 302.5,277.167 302.5,261.833 302.5,246.5C 303.29,245.391 303.79,244.058 304,242.5C 304.333,257.167 304.667,271.833 305,286.5C 305.367,292.204 306.034,297.87 307,303.5C 307.639,306.112 308.806,308.446 310.5,310.5C 322.264,311.01 333.93,312.01 345.5,313.5 Z"/></g>
<g><path style="opacity:1" fill="#d74f2d" d="M 175.5,284.5 C 176.338,284.842 176.672,285.508 176.5,286.5C 174.864,287.749 173.697,289.416 173,291.5C 169.094,301.64 164.928,311.64 160.5,321.5C 159.883,321.389 159.383,321.056 159,320.5C 156.78,325.384 153.78,329.718 150,333.5C 146.849,331.632 143.349,330.632 139.5,330.5C 138.185,328.865 138.185,327.199 139.5,325.5C 137.525,324.212 137.525,322.545 139.5,320.5C 138.757,319.818 138.091,319.151 137.5,318.5C 137.833,318.5 138.167,318.5 138.5,318.5C 142.949,320.545 147.616,321.878 152.5,322.5C 152.711,317.85 152.711,313.517 152.5,309.5C 154.167,309.5 155.833,309.5 157.5,309.5C 157.281,310.675 157.614,311.675 158.5,312.5C 159.99,310.874 161.49,309.208 163,307.5C 165.992,300.534 168.992,293.534 172,286.5C 172.816,285.177 173.983,284.511 175.5,284.5 Z"/></g>
<g><path style="opacity:1" fill="#1998cb" d="M 360.5,303.5 C 363.708,306.697 367.042,309.864 370.5,313C 381.812,319.229 392.812,318.729 403.5,311.5C 422.456,310.359 441.456,310.192 460.5,311C 461.066,311.995 461.733,312.828 462.5,313.5C 455.169,325.838 444.836,334.505 431.5,339.5C 422.951,341.249 414.284,341.916 405.5,341.5C 405.167,341.5 404.833,341.5 404.5,341.5C 400.777,340.703 397.11,339.703 393.5,338.5C 390.833,337.167 388.167,335.833 385.5,334.5C 382.5,332.5 379.5,330.5 376.5,328.5C 371.428,323.335 367.095,317.668 363.5,311.5C 362.499,308.828 361.499,306.162 360.5,303.5 Z"/></g>
<g><path style="opacity:1" fill="#76ad3c" d="M 467.5,300.5 C 465.605,314.98 459.772,327.98 450,339.5C 446.258,343.747 442.092,347.414 437.5,350.5C 436.305,350.134 435.639,349.301 435.5,348C 436.94,345.123 437.94,342.123 438.5,339C 436.203,338.982 433.869,339.149 431.5,339.5C 444.836,334.505 455.169,325.838 462.5,313.5C 464.754,309.407 466.421,305.073 467.5,300.5 Z"/></g>
<g><path style="opacity:1" fill="#cf3f2b" d="M 92.5,329.5 C 96.2252,330.402 99.8919,331.235 103.5,332C 103.531,329.613 104.197,327.113 105.5,324.5C 104.975,323.808 104.308,323.308 103.5,323C 106.817,322.502 110.15,322.335 113.5,322.5C 117.719,322.779 121.719,323.779 125.5,325.5C 126.357,324.264 127.023,322.931 127.5,321.5C 126.675,320.614 125.675,320.281 124.5,320.5C 124.858,317.733 125.525,315.067 126.5,312.5C 130.08,314.728 133.747,316.728 137.5,318.5C 138.091,319.151 138.757,319.818 139.5,320.5C 137.525,322.545 137.525,324.212 139.5,325.5C 138.185,327.199 138.185,328.865 139.5,330.5C 137.94,332.129 138.273,333.296 140.5,334C 139.253,335.458 139.253,336.958 140.5,338.5C 139.829,339.946 138.662,340.612 137,340.5C 131.429,338.824 125.929,336.991 120.5,335C 118.527,334.505 116.527,334.338 114.5,334.5C 115.267,338.352 115.267,342.018 114.5,345.5C 108.746,345.564 103.08,344.898 97.5,343.5C 94.3443,340.476 92.1776,336.809 91,332.5C 90.3292,331.748 89.4959,331.414 88.5,331.5C 85.2637,324.684 82.2637,317.684 79.5,310.5C 80.1174,310.389 80.6174,310.056 81,309.5C 83.3781,317.137 87.2114,323.804 92.5,329.5 Z"/></g>
<g><path style="opacity:1" fill="#e3a62c" d="M 342.5,329.5 C 344.359,329.461 345.692,330.294 346.5,332C 343.722,334.603 342.056,337.77 341.5,341.5C 344.436,342.406 347.436,343.072 350.5,343.5C 349.885,347.266 348.218,350.433 345.5,353C 343.833,353.667 342.167,353.667 340.5,353C 333.518,347.171 326.518,341.338 319.5,335.5C 315.167,330.843 311.834,325.51 309.5,319.5C 310.117,319.389 310.617,319.056 311,318.5C 313.807,323.302 317.307,327.469 321.5,331C 328.774,332.068 335.774,331.568 342.5,329.5 Z"/></g>
<g><path style="opacity:1" fill="#c2ad32" d="M 376.5,328.5 C 379.5,330.5 382.5,332.5 385.5,334.5C 385.077,337.668 383.911,341.001 382,344.5C 378.78,350.166 375.947,355.999 373.5,362C 373.164,363.03 372.497,363.53 371.5,363.5C 369.516,363.617 367.85,362.95 366.5,361.5C 368.047,358.239 369.713,355.072 371.5,352C 370.495,350.328 369.161,348.995 367.5,348C 371.478,343.091 372.478,337.591 370.5,331.5C 371.154,329.885 371.654,328.218 372,326.5C 373.512,327.257 374.846,328.257 376,329.5C 376.399,329.272 376.565,328.938 376.5,328.5 Z"/></g>
<g><path style="opacity:1" fill="#cfab2f" d="M 363.5,311.5 C 367.095,317.668 371.428,323.335 376.5,328.5C 376.565,328.938 376.399,329.272 376,329.5C 374.846,328.257 373.512,327.257 372,326.5C 371.654,328.218 371.154,329.885 370.5,331.5C 372.478,337.591 371.478,343.091 367.5,348C 369.161,348.995 370.495,350.328 371.5,352C 369.713,355.072 368.047,358.239 366.5,361.5C 367.85,362.95 369.516,363.617 371.5,363.5C 367.229,364.91 362.895,365.243 358.5,364.5C 358.586,363.504 358.252,362.671 357.5,362C 358.167,361.333 358.833,360.667 359.5,360C 357.913,359.138 356.246,358.471 354.5,358C 357.184,354.464 359.184,350.631 360.5,346.5C 357.425,345.475 354.425,344.475 351.5,343.5C 355.183,337.459 358.85,331.459 362.5,325.5C 363.466,323.604 363.799,321.604 363.5,319.5C 362.5,319.5 361.5,319.5 360.5,319.5C 360.957,316.594 361.957,313.928 363.5,311.5 Z"/></g>
<g><path style="opacity:1" fill="#d7692f" d="M 209.5,325.5 C 215.251,328.524 221.584,330.191 228.5,330.5C 228.759,333.031 230.093,335.364 232.5,337.5C 231.482,338.852 230.149,339.852 228.5,340.5C 230.396,341.466 232.396,341.799 234.5,341.5C 235.684,342.688 235.684,343.855 234.5,345C 238.259,345.131 239.592,346.797 238.5,350C 239.308,350.308 239.975,350.808 240.5,351.5C 239.167,351.833 237.833,352.167 236.5,352.5C 231.356,351.948 226.356,351.114 221.5,350C 222.614,351.449 223.614,352.783 224.5,354C 223.862,355.707 223.862,357.54 224.5,359.5C 225.5,359.5 226.5,359.5 227.5,359.5C 227.737,360.791 227.404,361.791 226.5,362.5C 220.439,362.758 215.272,360.758 211,356.5C 210.667,357.167 210.333,357.833 210,358.5C 209.184,357.177 208.017,356.511 206.5,356.5C 200.064,343.949 194.397,330.949 189.5,317.5C 190.117,317.389 190.617,317.056 191,316.5C 192.333,319.167 193.667,321.833 195,324.5C 195.333,323.833 195.667,323.167 196,322.5C 200.558,323.706 205.058,324.706 209.5,325.5 Z"/></g>
<g><path style="opacity:1" fill="#97a934" d="M 404.5,341.5 C 404.833,341.5 405.167,341.5 405.5,341.5C 410.316,342.326 415.316,342.826 420.5,343C 419.062,343.219 417.729,343.719 416.5,344.5C 416.833,345.167 417.167,345.833 417.5,346.5C 420.086,347.48 422.753,347.813 425.5,347.5C 425.162,349.854 424.662,352.187 424,354.5C 421.856,356.466 420.356,358.8 419.5,361.5C 413.169,365.48 406.169,367.48 398.5,367.5C 400.922,365.599 402.922,363.266 404.5,360.5C 403.624,358.124 401.958,356.624 399.5,356C 401.26,352.984 402.927,349.817 404.5,346.5C 403.687,345.186 402.687,344.019 401.5,343C 402.737,342.768 403.737,342.268 404.5,341.5 Z"/></g>
<g><path style="opacity:1" fill="#d0a02b" d="M 319.5,335.5 C 326.518,341.338 333.518,347.171 340.5,353C 342.167,353.667 343.833,353.667 345.5,353C 348.218,350.433 349.885,347.266 350.5,343.5C 350.833,343.5 351.167,343.5 351.5,343.5C 354.425,344.475 357.425,345.475 360.5,346.5C 359.184,350.631 357.184,354.464 354.5,358C 356.246,358.471 357.913,359.138 359.5,360C 358.833,360.667 358.167,361.333 357.5,362C 358.252,362.671 358.586,363.504 358.5,364.5C 342.728,359.066 329.728,349.732 319.5,336.5C 319.5,336.167 319.5,335.833 319.5,335.5 Z"/></g>
<g><path style="opacity:1" fill="#83aa39" d="M 437.5,350.5 C 432.51,355.669 426.51,359.336 419.5,361.5C 420.356,358.8 421.856,356.466 424,354.5C 424.662,352.187 425.162,349.854 425.5,347.5C 422.753,347.813 420.086,347.48 417.5,346.5C 417.167,345.833 416.833,345.167 416.5,344.5C 417.729,343.719 419.062,343.219 420.5,343C 415.316,342.826 410.316,342.326 405.5,341.5C 414.284,341.916 422.951,341.249 431.5,339.5C 433.869,339.149 436.203,338.982 438.5,339C 437.94,342.123 436.94,345.123 435.5,348C 435.639,349.301 436.305,350.134 437.5,350.5 Z"/></g>
<g><path style="opacity:1" fill="#d36f30" d="M 265.5,326.5 C 263.107,332.953 260.44,339.286 257.5,345.5C 256.883,345.389 256.383,345.056 256,344.5C 251.783,359.164 242.283,365.664 227.5,364C 226.944,363.617 226.611,363.117 226.5,362.5C 227.404,361.791 227.737,360.791 227.5,359.5C 226.5,359.5 225.5,359.5 224.5,359.5C 223.862,357.54 223.862,355.707 224.5,354C 223.614,352.783 222.614,351.449 221.5,350C 226.356,351.114 231.356,351.948 236.5,352.5C 237.833,352.167 239.167,351.833 240.5,351.5C 239.975,350.808 239.308,350.308 238.5,350C 239.592,346.797 238.259,345.131 234.5,345C 235.684,343.855 235.684,342.688 234.5,341.5C 237.43,342.299 240.43,342.632 243.5,342.5C 243.5,343.5 243.5,344.5 243.5,345.5C 246.711,345.012 249.544,345.679 252,347.5C 252.913,344.648 252.08,342.481 249.5,341C 249.957,340.586 250.291,340.086 250.5,339.5C 249.5,338.833 248.5,338.167 247.5,337.5C 250.516,336.537 253.516,336.371 256.5,337C 259.787,333.707 262.287,329.873 264,325.5C 264.383,326.056 264.883,326.389 265.5,326.5 Z"/></g>
<g><path style="opacity:1" fill="#c74629" d="M 160.5,321.5 C 156.07,332.684 151.403,343.684 146.5,354.5C 145.883,354.389 145.383,354.056 145,353.5C 138.884,362.035 130.717,365.368 120.5,363.5C 120.5,362.5 120.5,361.5 120.5,360.5C 115.48,361.095 113.814,359.095 115.5,354.5C 114.675,353.614 113.675,353.281 112.5,353.5C 112.858,350.733 113.525,348.067 114.5,345.5C 115.267,342.018 115.267,338.352 114.5,334.5C 116.527,334.338 118.527,334.505 120.5,335C 125.929,336.991 131.429,338.824 137,340.5C 138.662,340.612 139.829,339.946 140.5,338.5C 139.253,336.958 139.253,335.458 140.5,334C 138.273,333.296 137.94,332.129 139.5,330.5C 143.349,330.632 146.849,331.632 150,333.5C 153.78,329.718 156.78,325.384 159,320.5C 159.383,321.056 159.883,321.389 160.5,321.5 Z"/></g>
<g><path style="opacity:1" fill="#b2a530" d="M 385.5,334.5 C 388.167,335.833 390.833,337.167 393.5,338.5C 392.238,338.907 390.905,339.24 389.5,339.5C 390.665,340.584 391.998,341.417 393.5,342C 392.833,342.333 392.167,342.667 391.5,343C 392.516,343.519 393.182,344.353 393.5,345.5C 392.74,347.437 391.74,349.27 390.5,351C 394.326,355.65 394.326,360.316 390.5,365C 394.5,365.667 394.5,366.333 390.5,367C 390.833,367.333 391.167,367.667 391.5,368C 385.843,368.499 380.176,368.666 374.5,368.5C 368.897,367.785 363.564,366.452 358.5,364.5C 362.895,365.243 367.229,364.91 371.5,363.5C 372.497,363.53 373.164,363.03 373.5,362C 375.947,355.999 378.78,350.166 382,344.5C 383.911,341.001 385.077,337.668 385.5,334.5 Z"/></g>
<g><path style="opacity:1" fill="#c4652c" d="M 257.5,345.5 C 251.275,364.618 238.275,371.785 218.5,367C 213.05,365.043 209.05,361.543 206.5,356.5C 208.017,356.511 209.184,357.177 210,358.5C 210.333,357.833 210.667,357.167 211,356.5C 215.272,360.758 220.439,362.758 226.5,362.5C 226.611,363.117 226.944,363.617 227.5,364C 242.283,365.664 251.783,359.164 256,344.5C 256.383,345.056 256.883,345.389 257.5,345.5 Z"/></g>
<g><path style="opacity:1" fill="#a0a331" d="M 393.5,338.5 C 397.11,339.703 400.777,340.703 404.5,341.5C 403.737,342.268 402.737,342.768 401.5,343C 402.687,344.019 403.687,345.186 404.5,346.5C 402.927,349.817 401.26,352.984 399.5,356C 401.958,356.624 403.624,358.124 404.5,360.5C 402.922,363.266 400.922,365.599 398.5,367.5C 397.737,368.268 396.737,368.768 395.5,369C 388.321,369.821 381.321,369.655 374.5,368.5C 380.176,368.666 385.843,368.499 391.5,368C 391.167,367.667 390.833,367.333 390.5,367C 394.5,366.333 394.5,365.667 390.5,365C 394.326,360.316 394.326,355.65 390.5,351C 391.74,349.27 392.74,347.437 393.5,345.5C 393.182,344.353 392.516,343.519 391.5,343C 392.167,342.667 392.833,342.333 393.5,342C 391.998,341.417 390.665,340.584 389.5,339.5C 390.905,339.24 392.238,338.907 393.5,338.5 Z"/></g>
<g><path style="opacity:1" fill="#bb3d27" d="M 88.5,331.5 C 89.4959,331.414 90.3292,331.748 91,332.5C 92.1776,336.809 94.3443,340.476 97.5,343.5C 103.08,344.898 108.746,345.564 114.5,345.5C 113.525,348.067 112.858,350.733 112.5,353.5C 113.675,353.281 114.675,353.614 115.5,354.5C 113.814,359.095 115.48,361.095 120.5,360.5C 120.5,361.5 120.5,362.5 120.5,363.5C 130.717,365.368 138.884,362.035 145,353.5C 145.383,354.056 145.883,354.389 146.5,354.5C 146.267,356.062 145.6,357.395 144.5,358.5C 135.439,368.346 124.439,371.179 111.5,367C 105.774,364.608 101.274,360.774 98,355.5C 94.533,347.595 91.3663,339.595 88.5,331.5 Z"/></g>
</svg>
