<?xml version="1.0" encoding="UTF-8"?>
<!DOCTYPE svg PUBLIC "-//W3C//DTD SVG 1.1//EN" "http://www.w3.org/Graphics/SVG/1.1/DTD/svg11.dtd">
<svg xmlns="http://www.w3.org/2000/svg" version="1.1" width="2133px" height="2133px" style="shape-rendering:geometricPrecision; text-rendering:geometricPrecision; image-rendering:optimizeQuality; fill-rule:evenodd; clip-rule:evenodd" xmlns:xlink="http://www.w3.org/1999/xlink">
<g><path style="opacity:0.998" fill="#000000" d="M 112.5,32.5 C 749.167,32.3333 1385.83,32.5 2022.5,33C 2058.68,49.013 2084.35,74.8464 2099.5,110.5C 2099.5,748.03 2099.5,1385.53 2099.5,2023C 2085.76,2049.44 2066.09,2071.11 2040.5,2088C 2033.63,2091.94 2026.63,2095.6 2019.5,2099C 1382.83,2099.67 746.167,2099.67 109.5,2099C 73.2921,2082.96 47.6254,2057.13 32.5,2021.5C 32.5001,1385.3 32.5001,749.137 32.5,113C 48.3655,75.9658 75.0322,49.1325 112.5,32.5 Z"/></g>
<g><path style="opacity:1" fill="#fefefe" d="M 119.5,56.5 C 751.167,56.3333 1382.83,56.5 2014.5,57C 2042.67,69.1667 2062.83,89.3333 2075,117.5C 2075.67,750.167 2075.67,1382.83 2075,2015.5C 2061,2042.5 2040.17,2062.33 2012.5,2075C 1380.83,2075.67 749.167,2075.67 117.5,2075C 89.3333,2062.83 69.1667,2042.67 57,2014.5C 56.3333,1382.83 56.3333,751.167 57,119.5C 70.0208,90.6462 90.8541,69.6462 119.5,56.5 Z"/></g>
<g><path style="opacity:1" fill="#1cb1dd" d="M 1675.5,637.5 C 1673.89,637.056 1672.72,636.056 1672,634.5C 1671.83,635.333 1671.67,636.167 1671.5,637C 1674.37,651.427 1676.7,665.927 1678.5,680.5C 1611.5,680.5 1544.5,680.5 1477.5,680.5C 1477.5,673.833 1477.5,667.167 1477.5,660.5C 1482.53,650.394 1484.69,639.727 1484,628.5C 1483.62,629.056 1483.12,629.389 1482.5,629.5C 1488.91,608.334 1496.75,587.667 1506,567.5C 1509.6,560.243 1513.6,553.243 1518,546.5C 1535.17,497.516 1554.5,449.516 1576,402.5C 1592.25,436.087 1607.59,470.087 1622,504.5C 1639.84,548.844 1657.67,593.178 1675.5,637.5 Z"/></g>
<g><path style="opacity:1" fill="#209dca" d="M 1477.5,660.5 C 1472.41,663.659 1469.91,668.326 1470,674.5C 1469.33,684.167 1469.33,693.833 1470,703.5C 1470.22,704.938 1470.72,706.271 1471.5,707.5C 1472.67,705.833 1473.83,704.167 1475,702.5C 1493.86,767.702 1537.03,795.202 1604.5,785C 1654.71,768.031 1679.38,733.198 1678.5,680.5C 1676.7,665.927 1674.37,651.427 1671.5,637C 1671.67,636.167 1671.83,635.333 1672,634.5C 1672.72,636.056 1673.89,637.056 1675.5,637.5C 1696.53,676.133 1695.36,714.133 1672,751.5C 1652.62,778.963 1626.12,795.463 1592.5,801C 1573.99,803.196 1555.99,801.196 1538.5,795C 1521.67,787.53 1506.51,777.697 1493,765.5C 1480.59,748.669 1471.92,730.002 1467,709.5C 1463.56,689.267 1465.56,669.601 1473,650.5C 1476.22,643.407 1479.38,636.407 1482.5,629.5C 1483.12,629.389 1483.62,629.056 1484,628.5C 1484.69,639.727 1482.53,650.394 1477.5,660.5 Z"/></g>
<g><path style="opacity:1" fill="#17aadc" d="M 1477.5,660.5 C 1477.5,667.167 1477.5,673.833 1477.5,680.5C 1544.5,680.5 1611.5,680.5 1678.5,680.5C 1679.38,733.198 1654.71,768.031 1604.5,785C 1537.03,795.202 1493.86,767.702 1475,702.5C 1473.83,704.167 1472.67,705.833 1471.5,707.5C 1470.72,706.271 1470.22,704.938 1470,703.5C 1469.33,693.833 1469.33,684.167 1470,674.5C 1469.91,668.326 1472.41,663.659 1477.5,660.5 Z"/></g>
<g><path style="opacity:1" fill="#164a8b" d="M 1924.5,856.5 C 1924.69,858.103 1924.19,859.437 1923,860.5C 1897.01,812.084 1856.51,789.584 1801.5,793C 1794.08,793.348 1786.74,794.348 1779.5,796C 1757.92,808.428 1737.92,822.928 1719.5,839.5C 1752.58,782.855 1800.25,765.689 1862.5,788C 1868.95,790.727 1875.29,793.727 1881.5,797C 1892.41,806.242 1902.24,816.409 1911,827.5C 1916.75,836.582 1921.25,846.248 1924.5,856.5 Z"/></g>
<g><path style="opacity:1" fill="#b12126" d="M 375.5,799.5 C 376.911,801.914 378.911,803.581 381.5,804.5C 383.833,807.5 386.5,810.167 389.5,812.5C 390.08,814.749 391.413,816.415 393.5,817.5C 400.428,825.685 406.094,834.685 410.5,844.5C 399.776,834.278 389.109,823.778 378.5,813C 367.444,811.636 357.777,807.303 349.5,800C 322.956,793.661 296.29,792.994 269.5,798C 238.905,808.261 218.739,828.761 209,859.5C 205.204,873.314 202.371,887.314 200.5,901.5C 195.78,851.44 215.447,814.273 259.5,790C 278.598,779.947 298.931,776.28 320.5,779C 341.099,780.249 359.432,787.082 375.5,799.5 Z"/></g>
<g><path style="opacity:1" fill="#b83b28" d="M 857.5,876.5 C 857.157,878.225 856.157,878.725 854.5,878C 851.669,875.999 849.003,873.833 846.5,871.5C 843.731,850.944 834.064,834.611 817.5,822.5C 804.828,804.836 787.495,796.836 765.5,798.5C 747.931,793.339 730.264,793.173 712.5,798C 709.524,798.705 706.858,799.871 704.5,801.5C 677.771,805.228 660.104,819.894 651.5,845.5C 640.193,862.782 631.026,881.115 624,900.5C 622.266,902.451 620.099,903.451 617.5,903.5C 620.688,889.436 625.188,875.769 631,862.5C 637.611,849.612 643.944,836.612 650,823.5C 667.79,803.711 689.29,789.544 714.5,781C 789.727,772.122 837.393,803.955 857.5,876.5 Z"/></g>
<g><path style="opacity:1" fill="#d49c2d" d="M 1463.5,926.5 C 1461.74,927.461 1459.74,927.795 1457.5,927.5C 1448.34,906.685 1436.01,888.018 1420.5,871.5C 1382.99,830.402 1336.66,804.902 1281.5,795C 1240.81,790.473 1201.47,795.807 1163.5,811C 1129.12,823.699 1100.62,844.533 1078,873.5C 1070.59,883.323 1063.92,893.656 1058,904.5C 1054.9,908.801 1050.73,911.134 1045.5,911.5C 1075.19,845.998 1124.86,803.498 1194.5,784C 1316.7,762.064 1405.2,806.23 1460,916.5C 1461.08,919.894 1462.24,923.228 1463.5,926.5 Z"/></g>
<g><path style="opacity:1" fill="#195eaa" d="M 1924.5,856.5 C 1926.16,861.31 1927.49,866.31 1928.5,871.5C 1928.5,909.833 1928.5,948.167 1928.5,986.5C 1927.83,986.5 1927.5,986.167 1927.5,985.5C 1927.67,956.498 1927.5,927.498 1927,898.5C 1925.66,904.529 1924.33,910.529 1923,916.5C 1920.85,909.547 1918.02,902.88 1914.5,896.5C 1913.62,895.749 1912.62,895.249 1911.5,895C 1847.51,890.514 1783.51,890.347 1719.5,894.5C 1719.05,902.4 1715.72,908.734 1709.5,913.5C 1708.5,897.514 1708.17,881.514 1708.5,865.5C 1708.73,859.642 1709.9,853.976 1712,848.5C 1713.64,844.7 1716.14,841.7 1719.5,839.5C 1737.92,822.928 1757.92,808.428 1779.5,796C 1786.74,794.348 1794.08,793.348 1801.5,793C 1856.51,789.584 1897.01,812.084 1923,860.5C 1924.19,859.437 1924.69,858.103 1924.5,856.5 Z"/></g>
<g><path style="opacity:1" fill="#fbb62f" d="M 1420.5,871.5 C 1422.32,1012.91 1426.15,1154.25 1432,1295.5C 1431.24,1297.06 1430.07,1298.06 1428.5,1298.5C 1381.26,1293.23 1333.92,1289.06 1286.5,1286C 1280.87,1278.24 1276.71,1269.74 1274,1260.5C 1270.83,1243.95 1268.49,1227.28 1267,1210.5C 1264.4,1144.86 1262.4,1079.19 1261,1013.5C 1259.86,1017.24 1258.53,1020.91 1257,1024.5C 1256.82,1021.64 1256.32,1018.97 1255.5,1016.5C 1254.32,1012.77 1252.99,1009.1 1251.5,1005.5C 1252.78,989.184 1249.78,973.85 1242.5,959.5C 1213.45,898.949 1165.78,875.449 1099.5,889C 1081.16,895.333 1064.83,905 1050.5,918C 1046.19,918.172 1044.53,916.006 1045.5,911.5C 1050.73,911.134 1054.9,908.801 1058,904.5C 1063.92,893.656 1070.59,883.323 1078,873.5C 1100.62,844.533 1129.12,823.699 1163.5,811C 1201.47,795.807 1240.81,790.473 1281.5,795C 1336.66,804.902 1382.99,830.402 1420.5,871.5 Z"/></g>
<g><path style="opacity:1" fill="#d5202a" d="M 410.5,844.5 C 412.625,847.088 413.958,850.088 414.5,853.5C 418.739,899.603 433.405,941.936 458.5,980.5C 452.674,982.152 448.507,985.819 446,991.5C 430.871,1035.22 415.537,1078.89 400,1122.5C 384.372,1164.97 368.372,1207.3 352,1249.5C 346.977,1236.92 341.477,1224.59 335.5,1212.5C 333.445,1214.55 331.112,1216.22 328.5,1217.5C 327.548,1219.05 327.215,1220.71 327.5,1222.5C 283.239,1120.61 241.072,1017.61 201,913.5C 200.501,909.514 200.334,905.514 200.5,901.5C 202.371,887.314 205.204,873.314 209,859.5C 218.739,828.761 238.905,808.261 269.5,798C 296.29,792.994 322.956,793.661 349.5,800C 357.777,807.303 367.444,811.636 378.5,813C 389.109,823.778 399.776,834.278 410.5,844.5 Z"/></g>
<g><path style="opacity:1" fill="#dd462d" d="M 765.5,798.5 C 707.99,952.858 651.157,1107.52 595,1262.5C 593.475,1265.72 592.808,1269.05 593,1272.5C 595.257,1274.05 597.424,1275.71 599.5,1277.5C 595.169,1284.66 591.502,1292.16 588.5,1300C 590.548,1302.21 592.881,1304.21 595.5,1306C 592.851,1310.1 591.517,1314.6 591.5,1319.5C 590.5,1319.5 589.5,1319.5 588.5,1319.5C 573.537,1312.07 558.87,1304.07 544.5,1295.5C 597.918,1131.07 655.585,968.242 717.5,807C 714.066,803.215 709.733,801.382 704.5,801.5C 706.858,799.871 709.524,798.705 712.5,798C 730.264,793.173 747.931,793.339 765.5,798.5 Z"/></g>
<g><path style="opacity:1" fill="#df4d2e" d="M 765.5,798.5 C 787.495,796.836 804.828,804.836 817.5,822.5C 814.325,822.503 811.492,823.503 809,825.5C 754.496,971.821 701.163,1118.49 649,1265.5C 648.501,1271.16 648.334,1276.82 648.5,1282.5C 655.354,1282.18 662.021,1282.51 668.5,1283.5C 661.833,1283.5 655.167,1283.5 648.5,1283.5C 649.833,1300.83 649.833,1318.17 648.5,1335.5C 628.677,1333 609.677,1327.67 591.5,1319.5C 591.517,1314.6 592.851,1310.1 595.5,1306C 592.881,1304.21 590.548,1302.21 588.5,1300C 591.502,1292.16 595.169,1284.66 599.5,1277.5C 597.424,1275.71 595.257,1274.05 593,1272.5C 592.808,1269.05 593.475,1265.72 595,1262.5C 651.157,1107.52 707.99,952.858 765.5,798.5 Z"/></g>
<g><path style="opacity:1" fill="#db412c" d="M 704.5,801.5 C 709.733,801.382 714.066,803.215 717.5,807C 655.585,968.242 597.918,1131.07 544.5,1295.5C 543.883,1295.61 543.383,1295.94 543,1296.5C 538.795,1306.46 536.295,1316.79 535.5,1327.5C 540.557,1326.85 544.557,1328.51 547.5,1332.5C 545.612,1337.94 542.945,1342.94 539.5,1347.5C 524.184,1341 508.184,1337 491.5,1335.5C 495.271,1318.58 499.271,1301.75 503.5,1285C 501.668,1281 500.335,1276.84 499.5,1272.5C 552.741,1131.03 603.408,988.698 651.5,845.5C 660.104,819.894 677.771,805.228 704.5,801.5 Z"/></g>
<g><path style="opacity:1" fill="#da9ea1" d="M 375.5,799.5 C 378.089,800.419 380.089,802.086 381.5,804.5C 378.911,803.581 376.911,801.914 375.5,799.5 Z"/></g>
<g><path style="opacity:1" fill="#d89497" d="M 389.5,812.5 C 391.587,813.585 392.92,815.251 393.5,817.5C 391.413,816.415 390.08,814.749 389.5,812.5 Z"/></g>
<g><path style="opacity:1" fill="#e2532e" d="M 817.5,822.5 C 834.064,834.611 843.731,850.944 846.5,871.5C 809.017,972.651 771.35,1073.82 733.5,1175C 736.981,1177.05 739.981,1179.55 742.5,1182.5C 734.853,1182.32 729.353,1185.65 726,1192.5C 714.475,1220.86 702.475,1248.86 690,1276.5C 684.677,1282.82 679.01,1288.82 673,1294.5C 669.31,1291.78 667.81,1288.11 668.5,1283.5C 662.021,1282.51 655.354,1282.18 648.5,1282.5C 648.334,1276.82 648.501,1271.16 649,1265.5C 701.163,1118.49 754.496,971.821 809,825.5C 811.492,823.503 814.325,822.503 817.5,822.5 Z"/></g>
<g><path style="opacity:1" fill="#d63a2b" d="M 651.5,845.5 C 603.408,988.698 552.741,1131.03 499.5,1272.5C 500.335,1276.84 501.668,1281 503.5,1285C 499.271,1301.75 495.271,1318.58 491.5,1335.5C 478.129,1335.17 464.796,1335.67 451.5,1337C 451.167,1337.33 450.833,1337.67 450.5,1338C 453.688,1339.09 456.355,1340.93 458.5,1343.5C 453.96,1352.98 450.96,1362.98 449.5,1373.5C 436.127,1370.92 422.794,1368.09 409.5,1365C 407.934,1364.39 406.6,1363.56 405.5,1362.5C 406.018,1358.36 407.351,1354.36 409.5,1350.5C 407.457,1348.49 405.457,1346.49 403.5,1344.5C 405.956,1340.42 408.289,1336.26 410.5,1332C 426.237,1327.98 442.237,1326.48 458.5,1327.5C 455.128,1311.13 457.795,1295.96 466.5,1282C 463.914,1280.22 461.581,1278.22 459.5,1276C 479.303,1223.6 498.136,1170.76 516,1117.5C 517.574,1112.62 518.407,1107.62 518.5,1102.5C 520.768,1106.4 523.434,1109.4 526.5,1111.5C 544.332,1069.28 562.332,1026.95 580.5,984.5C 582.539,983.089 583.539,981.089 583.5,978.5C 592.508,957.819 601.508,937.152 610.5,916.5C 612.539,915.089 613.539,913.089 613.5,910.5C 614.079,907.669 615.412,905.336 617.5,903.5C 620.099,903.451 622.266,902.451 624,900.5C 631.026,881.115 640.193,862.782 651.5,845.5 Z"/></g>
<g><path style="opacity:1" fill="#c22529" d="M 414.5,853.5 C 426.16,874.369 436.327,896.036 445,918.5C 460.84,957.511 476.007,996.845 490.5,1036.5C 487.215,1036.73 484.715,1035.4 483,1032.5C 473.977,1015.46 465.81,998.125 458.5,980.5C 433.405,941.936 418.739,899.603 414.5,853.5 Z"/></g>
<g><path style="opacity:1" fill="#f1b831" d="M 1420.5,871.5 C 1436.01,888.018 1448.34,906.685 1457.5,927.5C 1464.57,1043.41 1466.41,1159.41 1463,1275.5C 1456.57,1287.37 1450.4,1299.37 1444.5,1311.5C 1439.49,1311.67 1434.49,1311.5 1429.5,1311C 1428.54,1306.93 1428.2,1302.77 1428.5,1298.5C 1430.07,1298.06 1431.24,1297.06 1432,1295.5C 1426.15,1154.25 1422.32,1012.91 1420.5,871.5 Z"/></g>
<g><path style="opacity:1" fill="#e25930" d="M 846.5,871.5 C 849.003,873.833 851.669,875.999 854.5,878C 856.157,878.725 857.157,878.225 857.5,876.5C 867.57,893.317 874.903,911.317 879.5,930.5C 879.5,933.833 879.5,937.167 879.5,940.5C 875.672,943.5 872.172,943.167 869,939.5C 836.41,1025.6 804.41,1111.94 773,1198.5C 770.465,1215.23 772.132,1231.56 778,1247.5C 780.922,1253.51 783.422,1259.68 785.5,1266C 784.869,1268.75 783.869,1271.25 782.5,1273.5C 769.645,1247.11 757.811,1220.11 747,1192.5C 746.583,1191.24 745.75,1190.58 744.5,1190.5C 744.918,1189.78 745.584,1189.28 746.5,1189C 746.105,1186.18 744.772,1184.02 742.5,1182.5C 739.981,1179.55 736.981,1177.05 733.5,1175C 771.35,1073.82 809.017,972.651 846.5,871.5 Z"/></g>
<g><path style="opacity:1" fill="#d16d2f" d="M 1242.5,959.5 C 1242.5,964.833 1242.5,970.167 1242.5,975.5C 1209.17,972.861 1175.84,972.861 1142.5,975.5C 1144.61,970.107 1147.61,965.274 1151.5,961C 1164.49,964.835 1174.82,961.169 1182.5,950C 1144.25,942.986 1106.08,935.486 1068,927.5C 1065.97,927.858 1064.13,928.692 1062.5,930C 1047.3,942.204 1033.8,956.037 1022,971.5C 1021.72,970.584 1021.22,969.918 1020.5,969.5C 1023.38,960.069 1026.55,950.736 1030,941.5C 1034.41,931.01 1039.58,921.01 1045.5,911.5C 1044.53,916.006 1046.19,918.172 1050.5,918C 1064.83,905 1081.16,895.333 1099.5,889C 1165.78,875.449 1213.45,898.949 1242.5,959.5 Z"/></g>
<g><path style="opacity:1" fill="#1768b1" d="M 1708.5,865.5 C 1708.17,881.514 1708.5,897.514 1709.5,913.5C 1715.72,908.734 1719.05,902.4 1719.5,894.5C 1783.51,890.347 1847.51,890.514 1911.5,895C 1912.62,895.249 1913.62,895.749 1914.5,896.5C 1918.02,902.88 1920.85,909.547 1923,916.5C 1924.33,910.529 1925.66,904.529 1927,898.5C 1927.5,927.498 1927.67,956.498 1927.5,985.5C 1925.32,984.15 1923.65,982.316 1922.5,980C 1921.6,975.889 1921.26,971.722 1921.5,967.5C 1850.17,967.5 1778.83,967.5 1707.5,967.5C 1707.5,941.5 1707.5,915.5 1707.5,889.5C 1707.17,881.316 1707.51,873.316 1708.5,865.5 Z"/></g>
<g><path style="opacity:1" fill="#e3978f" d="M 613.5,910.5 C 613.539,913.089 612.539,915.089 610.5,916.5C 610.992,914.181 611.992,912.181 613.5,910.5 Z"/></g>
<g><path style="opacity:1" fill="#db6b31" d="M 1142.5,975.5 C 1135.34,975.089 1128.34,975.922 1121.5,978C 1113.03,985.662 1103.7,991.829 1093.5,996.5C 1092.03,998.137 1090.19,999.137 1088,999.5C 1085.09,998.435 1082.26,997.601 1079.5,997C 1067.4,1003.96 1055.73,1011.46 1044.5,1019.5C 1039.32,1015.64 1034.32,1015.64 1029.5,1019.5C 1018.99,1017.83 1010.49,1021.17 1004,1029.5C 996.619,1045.64 989.619,1061.97 983,1078.5C 982.586,1078.96 982.086,1079.29 981.5,1079.5C 980.15,1078.05 978.484,1077.38 976.5,1077.5C 990.985,1041.37 1005.65,1005.37 1020.5,969.5C 1021.22,969.918 1021.72,970.584 1022,971.5C 1033.8,956.037 1047.3,942.204 1062.5,930C 1064.13,928.692 1065.97,927.858 1068,927.5C 1106.08,935.486 1144.25,942.986 1182.5,950C 1174.82,961.169 1164.49,964.835 1151.5,961C 1147.61,965.274 1144.61,970.107 1142.5,975.5 Z"/></g>
<g><path style="opacity:1" fill="#e2b331" d="M 1463.5,926.5 C 1469.32,938.095 1473.16,950.429 1475,963.5C 1475.14,1050.71 1477.31,1137.71 1481.5,1224.5C 1481.87,1237.59 1484.87,1249.92 1490.5,1261.5C 1494.17,1271.52 1497.84,1281.52 1501.5,1291.5C 1494.97,1301.08 1490.97,1311.75 1489.5,1323.5C 1493.5,1323.5 1497.5,1323.5 1501.5,1323.5C 1501.91,1330.66 1501.08,1337.66 1499,1344.5C 1483.55,1369.76 1468.38,1395.09 1453.5,1420.5C 1451.83,1420.5 1450.17,1420.5 1448.5,1420.5C 1436.2,1418.76 1424.2,1415.76 1412.5,1411.5C 1415.38,1396.9 1422.05,1384.4 1432.5,1374C 1429.58,1367.54 1424.58,1364.04 1417.5,1363.5C 1427.37,1346.62 1436.37,1329.29 1444.5,1311.5C 1450.4,1299.37 1456.57,1287.37 1463,1275.5C 1466.41,1159.41 1464.57,1043.41 1457.5,927.5C 1459.74,927.795 1461.74,927.461 1463.5,926.5 Z"/></g>
<g><path style="opacity:1" fill="#cb5c30" d="M 879.5,930.5 C 887.832,947.17 895.665,964.17 903,981.5C 919.428,1019.99 934.928,1058.66 949.5,1097.5C 946.606,1096.12 944.106,1094.12 942,1091.5C 937.242,1084.98 932.742,1078.31 928.5,1071.5C 925.165,1067.33 921.998,1062.99 919,1058.5C 917.798,1055.23 916.798,1051.89 916,1048.5C 915.828,1042.32 915.328,1036.32 914.5,1030.5C 914.66,1028.8 914.494,1027.13 914,1025.5C 902.151,997.078 890.651,968.744 879.5,940.5C 879.5,937.167 879.5,933.833 879.5,930.5 Z"/></g>
<g><path style="opacity:1" fill="#e66031" d="M 879.5,940.5 C 890.651,968.744 902.151,997.078 914,1025.5C 914.494,1027.13 914.66,1028.8 914.5,1030.5C 914.665,1034.18 914.499,1037.85 914,1041.5C 908.219,1032.27 903.219,1022.61 899,1012.5C 864.92,1091.9 834.086,1172.57 806.5,1254.5C 810.256,1264.68 808.923,1274.01 802.5,1282.5C 796.947,1279.89 791.281,1277.56 785.5,1275.5C 784.817,1275.86 784.15,1276.2 783.5,1276.5C 782.596,1275.79 782.263,1274.79 782.5,1273.5C 783.869,1271.25 784.869,1268.75 785.5,1266C 783.422,1259.68 780.922,1253.51 778,1247.5C 772.132,1231.56 770.465,1215.23 773,1198.5C 804.41,1111.94 836.41,1025.6 869,939.5C 872.172,943.167 875.672,943.5 879.5,940.5 Z"/></g>
<g><path style="opacity:1" fill="#e37933" d="M 1242.5,959.5 C 1249.78,973.85 1252.78,989.184 1251.5,1005.5C 1248.83,1007.49 1247.17,1010.16 1246.5,1013.5C 1240.7,1026.44 1234.87,1039.44 1229,1052.5C 1206.66,1107.23 1184.33,1161.9 1162,1216.5C 1142.37,1261.41 1123.21,1306.41 1104.5,1351.5C 1102.7,1350.76 1101.03,1349.76 1099.5,1348.5C 1092.34,1364.81 1082.68,1379.48 1070.5,1392.5C 1062.54,1392.74 1054.54,1392.91 1046.5,1393C 1041.87,1393.11 1037.53,1394.28 1033.5,1396.5C 1037.13,1399.32 1040.79,1402.16 1044.5,1405C 1043.48,1406.68 1042.48,1408.34 1041.5,1410C 1045.77,1413.28 1048.94,1417.44 1051,1422.5C 1051.67,1426.17 1051.67,1429.83 1051,1433.5C 1050.69,1434.31 1050.19,1434.97 1049.5,1435.5C 1039.69,1429.07 1029.03,1426.74 1017.5,1428.5C 1016.51,1424.55 1016.18,1420.55 1016.5,1416.5C 1004.75,1416.49 993.079,1415.49 981.5,1413.5C 976.684,1412.67 971.684,1412.17 966.5,1412C 963.065,1411.12 959.732,1409.95 956.5,1408.5C 960.167,1406.33 963.833,1404.17 967.5,1402C 969.414,1400.59 970.747,1398.75 971.5,1396.5C 963.018,1389.02 958.018,1379.69 956.5,1368.5C 960.675,1364.38 959.675,1361.55 953.5,1360C 951.527,1359.5 949.527,1359.34 947.5,1359.5C 946.358,1349.91 943.692,1340.74 939.5,1332C 945.734,1325.11 944.401,1320.27 935.5,1317.5C 935.855,1316.48 936.522,1315.81 937.5,1315.5C 957.453,1318.65 976.786,1323.99 995.5,1331.5C 1011.75,1333.75 1028.09,1335.08 1044.5,1335.5C 1044.5,1339.5 1044.5,1343.5 1044.5,1347.5C 1050.51,1347.67 1056.51,1347.5 1062.5,1347C 1074.15,1345.72 1075.48,1341.39 1066.5,1334C 1063.32,1332.54 1059.99,1331.71 1056.5,1331.5C 1056.21,1326.47 1057.55,1321.97 1060.5,1318C 1057.83,1316.33 1055.17,1314.67 1052.5,1313C 1055.12,1306.01 1055.12,1299.01 1052.5,1292C 1053.06,1291.62 1053.39,1291.12 1053.5,1290.5C 1057.42,1290.76 1061.09,1291.76 1064.5,1293.5C 1061.74,1297.77 1060.41,1302.44 1060.5,1307.5C 1068.55,1307.23 1076.55,1307.73 1084.5,1309C 1088.95,1310.6 1093.12,1312.76 1097,1315.5C 1102.26,1312.25 1106.92,1308.25 1111,1303.5C 1142.06,1238.65 1171.4,1172.99 1199,1106.5C 1202.31,1095.38 1203.97,1084.05 1204,1072.5C 1195.01,1064.29 1184.51,1061.46 1172.5,1064C 1165.41,1060.95 1158.07,1058.78 1150.5,1057.5C 1150.39,1056.88 1150.06,1056.38 1149.5,1056C 1154.14,1048.18 1160.81,1045.68 1169.5,1048.5C 1174.37,1045.14 1179.37,1041.97 1184.5,1039C 1160.93,1037.96 1137.6,1035.12 1114.5,1030.5C 1121.85,1026.98 1128.52,1022.48 1134.5,1017C 1144.25,1019.79 1151.92,1016.96 1157.5,1008.5C 1151.01,1002.44 1143.68,1001.11 1135.5,1004.5C 1122.16,998.388 1108.16,995.721 1093.5,996.5C 1103.7,991.829 1113.03,985.662 1121.5,978C 1128.34,975.922 1135.34,975.089 1142.5,975.5C 1175.84,972.861 1209.17,972.861 1242.5,975.5C 1242.5,970.167 1242.5,964.833 1242.5,959.5 Z"/></g>
<g><path style="opacity:1" fill="#0d72b7" d="M 1707.5,967.5 C 1778.83,967.5 1850.17,967.5 1921.5,967.5C 1921.26,971.722 1921.6,975.889 1922.5,980C 1923.65,982.316 1925.32,984.15 1927.5,985.5C 1927.5,986.167 1927.83,986.5 1928.5,986.5C 1928.83,1032.67 1928.5,1078.67 1927.5,1124.5C 1927.5,1103.17 1927.5,1081.83 1927.5,1060.5C 1916.89,1060.55 1912.22,1055.21 1913.5,1044.5C 1848.78,1043.64 1784.11,1044.98 1719.5,1048.5C 1718.66,1058.18 1714.66,1066.18 1707.5,1072.5C 1707.5,1037.5 1707.5,1002.5 1707.5,967.5 Z"/></g>
<g><path style="opacity:1" fill="#1d77a6" d="M 1707.5,889.5 C 1707.5,915.5 1707.5,941.5 1707.5,967.5C 1707.5,1002.5 1707.5,1037.5 1707.5,1072.5C 1707.5,1089.83 1707.5,1107.17 1707.5,1124.5C 1707.5,1154.17 1707.5,1183.83 1707.5,1213.5C 1708.09,1220.49 1706.93,1227.16 1704,1233.5C 1692.29,1253.6 1679.13,1272.6 1664.5,1290.5C 1622.17,1319.15 1578.17,1321.98 1532.5,1299C 1518.34,1286.51 1504.51,1273.67 1491,1260.5C 1490.6,1260.73 1490.43,1261.06 1490.5,1261.5C 1484.87,1249.92 1481.87,1237.59 1481.5,1224.5C 1481.37,1223.76 1481.54,1223.09 1482,1222.5C 1497.91,1258.75 1524.74,1282.58 1562.5,1294C 1567.74,1295.48 1573.08,1296.31 1578.5,1296.5C 1585.15,1297.54 1591.98,1298.21 1599,1298.5C 1603.43,1298.61 1607.59,1297.94 1611.5,1296.5C 1664.06,1285.1 1694.56,1252.77 1703,1199.5C 1703.33,1135.5 1703.67,1071.5 1704,1007.5C 1704.5,967.986 1705.67,928.653 1707.5,889.5 Z"/></g>
<g><path style="opacity:1" fill="#d72e2b" d="M 458.5,980.5 C 465.81,998.125 473.977,1015.46 483,1032.5C 484.715,1035.4 487.215,1036.73 490.5,1036.5C 503.096,1057.04 512.429,1079.04 518.5,1102.5C 518.407,1107.62 517.574,1112.62 516,1117.5C 498.136,1170.76 479.303,1223.6 459.5,1276C 461.581,1278.22 463.914,1280.22 466.5,1282C 457.795,1295.96 455.128,1311.13 458.5,1327.5C 442.237,1326.48 426.237,1327.98 410.5,1332C 408.289,1336.26 405.956,1340.42 403.5,1344.5C 405.457,1346.49 407.457,1348.49 409.5,1350.5C 407.351,1354.36 406.018,1358.36 405.5,1362.5C 384.275,1339.73 368.942,1313.4 359.5,1283.5C 358.167,1284.5 356.833,1285.5 355.5,1286.5C 354.817,1286.14 354.15,1285.8 353.5,1285.5C 344.015,1264.86 335.348,1243.86 327.5,1222.5C 327.215,1220.71 327.548,1219.05 328.5,1217.5C 331.112,1216.22 333.445,1214.55 335.5,1212.5C 341.477,1224.59 346.977,1236.92 352,1249.5C 368.372,1207.3 384.372,1164.97 400,1122.5C 415.537,1078.89 430.871,1035.22 446,991.5C 448.507,985.819 452.674,982.152 458.5,980.5 Z"/></g>
<g><path style="opacity:1" fill="#e38a81" d="M 583.5,978.5 C 583.539,981.089 582.539,983.089 580.5,984.5C 580.992,982.181 581.992,980.181 583.5,978.5 Z"/></g>
<g><path style="opacity:1" fill="#ec7834" d="M 1093.5,996.5 C 1108.16,995.721 1122.16,998.388 1135.5,1004.5C 1143.68,1001.11 1151.01,1002.44 1157.5,1008.5C 1151.92,1016.96 1144.25,1019.79 1134.5,1017C 1128.52,1022.48 1121.85,1026.98 1114.5,1030.5C 1137.6,1035.12 1160.93,1037.96 1184.5,1039C 1179.37,1041.97 1174.37,1045.14 1169.5,1048.5C 1160.81,1045.68 1154.14,1048.18 1149.5,1056C 1150.06,1056.38 1150.39,1056.88 1150.5,1057.5C 1150.09,1060.6 1148.43,1062.93 1145.5,1064.5C 1140.48,1061.91 1135.14,1060.58 1129.5,1060.5C 1129.5,1064.5 1129.5,1068.5 1129.5,1072.5C 1120.29,1071.34 1112.79,1074.34 1107,1081.5C 1085.36,1142.09 1063.2,1202.42 1040.5,1262.5C 1044.85,1266.06 1049.85,1268.06 1055.5,1268.5C 1054.89,1271.72 1053.72,1274.72 1052,1277.5C 1051.33,1281.5 1051.33,1285.5 1052,1289.5C 1052.38,1290.06 1052.88,1290.39 1053.5,1290.5C 1053.39,1291.12 1053.06,1291.62 1052.5,1292C 1055.12,1299.01 1055.12,1306.01 1052.5,1313C 1055.17,1314.67 1057.83,1316.33 1060.5,1318C 1057.55,1321.97 1056.21,1326.47 1056.5,1331.5C 1059.99,1331.71 1063.32,1332.54 1066.5,1334C 1075.48,1341.39 1074.15,1345.72 1062.5,1347C 1056.51,1347.5 1050.51,1347.67 1044.5,1347.5C 1044.5,1343.5 1044.5,1339.5 1044.5,1335.5C 1028.09,1335.08 1011.75,1333.75 995.5,1331.5C 994.781,1327.35 994.115,1323.19 993.5,1319C 994.533,1314.52 995.033,1310.02 995,1305.5C 992.667,1303.83 990.333,1302.17 988,1300.5C 988.009,1289.39 989.176,1278.39 991.5,1267.5C 986.535,1268.03 982.869,1266.19 980.5,1262C 1004.81,1195.4 1029.31,1128.9 1054,1062.5C 1058.96,1057.05 1065.13,1055.05 1072.5,1056.5C 1072.5,1052.5 1072.5,1048.5 1072.5,1044.5C 1084.65,1043.09 1095.32,1038.42 1104.5,1030.5C 1103.02,1028.52 1101.35,1026.68 1099.5,1025C 1088.71,1028.08 1078.55,1026.58 1069,1020.5C 1063.15,1023.28 1056.98,1024.12 1050.5,1023C 1047.97,1022.58 1045.97,1021.41 1044.5,1019.5C 1055.73,1011.46 1067.4,1003.96 1079.5,997C 1082.26,997.601 1085.09,998.435 1088,999.5C 1090.19,999.137 1092.03,998.137 1093.5,996.5 Z"/></g>
<g><path style="opacity:1" fill="#a77f34" d="M 1251.5,1005.5 C 1252.99,1009.1 1254.32,1012.77 1255.5,1016.5C 1254.55,1070.16 1254.22,1123.82 1254.5,1177.5C 1252,1122.83 1249.33,1068.16 1246.5,1013.5C 1247.17,1010.16 1248.83,1007.49 1251.5,1005.5 Z"/></g>
<g><path style="opacity:1" fill="#e76632" d="M 914.5,1030.5 C 915.328,1036.32 915.828,1042.32 916,1048.5C 916.798,1051.89 917.798,1055.23 919,1058.5C 921.998,1062.99 925.165,1067.33 928.5,1071.5C 927.966,1078.89 930.3,1085.56 935.5,1091.5C 914.028,1148.95 892.694,1206.45 871.5,1264C 874.086,1265.78 876.419,1267.78 878.5,1270C 875.607,1275.45 873.274,1281.12 871.5,1287C 874.049,1293.24 875.382,1299.74 875.5,1306.5C 880.384,1306.51 884.384,1308.35 887.5,1312C 886.121,1319.49 884.787,1326.99 883.5,1334.5C 885.804,1337.14 888.138,1339.81 890.5,1342.5C 888.13,1345.94 884.797,1347.61 880.5,1347.5C 862.241,1344.45 844.074,1340.79 826,1336.5C 824.893,1336.59 823.893,1336.92 823,1337.5C 822.64,1339.42 821.806,1341.09 820.5,1342.5C 815,1332.17 809.5,1321.83 804,1311.5C 802.629,1313.04 801.129,1314.37 799.5,1315.5C 793.011,1303.05 787.678,1290.05 783.5,1276.5C 784.15,1276.2 784.817,1275.86 785.5,1275.5C 791.281,1277.56 796.947,1279.89 802.5,1282.5C 808.923,1274.01 810.256,1264.68 806.5,1254.5C 834.086,1172.57 864.92,1091.9 899,1012.5C 903.219,1022.61 908.219,1032.27 914,1041.5C 914.499,1037.85 914.665,1034.18 914.5,1030.5 Z"/></g>
<g><path style="opacity:1" fill="#f3b12f" d="M 1428.5,1298.5 C 1428.2,1302.77 1428.54,1306.93 1429.5,1311C 1434.49,1311.5 1439.49,1311.67 1444.5,1311.5C 1436.37,1329.29 1427.37,1346.62 1417.5,1363.5C 1406.79,1367.07 1395.79,1369.57 1384.5,1371C 1366.79,1371.93 1349.12,1371.6 1331.5,1370C 1314.38,1355.56 1300.22,1338.73 1289,1319.5C 1287.98,1320.69 1286.81,1321.69 1285.5,1322.5C 1284.36,1321.17 1283.02,1320.17 1281.5,1319.5C 1261.21,1274.37 1252.21,1227.04 1254.5,1177.5C 1254.22,1123.82 1254.55,1070.16 1255.5,1016.5C 1256.32,1018.97 1256.82,1021.64 1257,1024.5C 1258.53,1020.91 1259.86,1017.24 1261,1013.5C 1262.4,1079.19 1264.4,1144.86 1267,1210.5C 1268.49,1227.28 1270.83,1243.95 1274,1260.5C 1276.71,1269.74 1280.87,1278.24 1286.5,1286C 1333.92,1289.06 1381.26,1293.23 1428.5,1298.5 Z"/></g>
<g><path style="opacity:1" fill="#ec7334" d="M 1044.5,1019.5 C 1045.97,1021.41 1047.97,1022.58 1050.5,1023C 1056.98,1024.12 1063.15,1023.28 1069,1020.5C 1078.55,1026.58 1088.71,1028.08 1099.5,1025C 1101.35,1026.68 1103.02,1028.52 1104.5,1030.5C 1095.32,1038.42 1084.65,1043.09 1072.5,1044.5C 1072.5,1048.5 1072.5,1052.5 1072.5,1056.5C 1065.13,1055.05 1058.96,1057.05 1054,1062.5C 1029.31,1128.9 1004.81,1195.4 980.5,1262C 982.869,1266.19 986.535,1268.03 991.5,1267.5C 989.176,1278.39 988.009,1289.39 988,1300.5C 990.333,1302.17 992.667,1303.83 995,1305.5C 995.033,1310.02 994.533,1314.52 993.5,1319C 994.115,1323.19 994.781,1327.35 995.5,1331.5C 976.786,1323.99 957.453,1318.65 937.5,1315.5C 939.318,1311.83 939.984,1307.83 939.5,1303.5C 936.022,1303.82 932.688,1303.32 929.5,1302C 928.216,1300.7 928.383,1299.54 930,1298.5C 930.667,1296.83 930.667,1295.17 930,1293.5C 928.104,1291.47 925.937,1289.8 923.5,1288.5C 947.117,1206.15 974.617,1125.15 1006,1045.5C 1014.78,1037.56 1022.61,1028.89 1029.5,1019.5C 1034.32,1015.64 1039.32,1015.64 1044.5,1019.5 Z"/></g>
<g><path style="opacity:1" fill="#e76c32" d="M 1029.5,1019.5 C 1022.61,1028.89 1014.78,1037.56 1006,1045.5C 974.617,1125.15 947.117,1206.15 923.5,1288.5C 925.937,1289.8 928.104,1291.47 930,1293.5C 930.667,1295.17 930.667,1296.83 930,1298.5C 928.383,1299.54 928.216,1300.7 929.5,1302C 932.688,1303.32 936.022,1303.82 939.5,1303.5C 939.984,1307.83 939.318,1311.83 937.5,1315.5C 936.522,1315.81 935.855,1316.48 935.5,1317.5C 944.401,1320.27 945.734,1325.11 939.5,1332C 943.692,1340.74 946.358,1349.91 947.5,1359.5C 949.527,1359.34 951.527,1359.5 953.5,1360C 959.675,1361.55 960.675,1364.38 956.5,1368.5C 933.33,1366.96 910.996,1361.79 889.5,1353C 886.308,1351.27 883.308,1349.44 880.5,1347.5C 884.797,1347.61 888.13,1345.94 890.5,1342.5C 888.138,1339.81 885.804,1337.14 883.5,1334.5C 884.787,1326.99 886.121,1319.49 887.5,1312C 884.384,1308.35 880.384,1306.51 875.5,1306.5C 875.382,1299.74 874.049,1293.24 871.5,1287C 873.274,1281.12 875.607,1275.45 878.5,1270C 876.419,1267.78 874.086,1265.78 871.5,1264C 892.694,1206.45 914.028,1148.95 935.5,1091.5C 930.3,1085.56 927.966,1078.89 928.5,1071.5C 932.742,1078.31 937.242,1084.98 942,1091.5C 944.106,1094.12 946.606,1096.12 949.5,1097.5C 951.744,1102 955.078,1105.67 959.5,1108.5C 965.971,1098.55 971.638,1088.22 976.5,1077.5C 978.484,1077.38 980.15,1078.05 981.5,1079.5C 982.086,1079.29 982.586,1078.96 983,1078.5C 989.619,1061.97 996.619,1045.64 1004,1029.5C 1010.49,1021.17 1018.99,1017.83 1029.5,1019.5 Z"/></g>
<g><path style="opacity:1" fill="#137abd" d="M 1927.5,1124.5 C 1925.18,1122.51 1923.18,1120.17 1921.5,1117.5C 1918.22,1116.68 1914.88,1116.18 1911.5,1116C 1847.82,1112.6 1784.15,1112.76 1720.5,1116.5C 1718.83,1116.83 1717.17,1117.17 1715.5,1117.5C 1714.05,1121.28 1711.39,1123.62 1707.5,1124.5C 1707.5,1107.17 1707.5,1089.83 1707.5,1072.5C 1714.66,1066.18 1718.66,1058.18 1719.5,1048.5C 1784.11,1044.98 1848.78,1043.64 1913.5,1044.5C 1912.22,1055.21 1916.89,1060.55 1927.5,1060.5C 1927.5,1081.83 1927.5,1103.17 1927.5,1124.5 Z"/></g>
<g><path style="opacity:1" fill="#f07f36" d="M 1150.5,1057.5 C 1158.07,1058.78 1165.41,1060.95 1172.5,1064C 1184.51,1061.46 1195.01,1064.29 1204,1072.5C 1203.97,1084.05 1202.31,1095.38 1199,1106.5C 1171.4,1172.99 1142.06,1238.65 1111,1303.5C 1106.92,1308.25 1102.26,1312.25 1097,1315.5C 1093.12,1312.76 1088.95,1310.6 1084.5,1309C 1076.55,1307.73 1068.55,1307.23 1060.5,1307.5C 1060.41,1302.44 1061.74,1297.77 1064.5,1293.5C 1061.09,1291.76 1057.42,1290.76 1053.5,1290.5C 1052.88,1290.39 1052.38,1290.06 1052,1289.5C 1051.33,1285.5 1051.33,1281.5 1052,1277.5C 1053.72,1274.72 1054.89,1271.72 1055.5,1268.5C 1049.85,1268.06 1044.85,1266.06 1040.5,1262.5C 1063.2,1202.42 1085.36,1142.09 1107,1081.5C 1112.79,1074.34 1120.29,1071.34 1129.5,1072.5C 1129.5,1068.5 1129.5,1064.5 1129.5,1060.5C 1135.14,1060.58 1140.48,1061.91 1145.5,1064.5C 1148.43,1062.93 1150.09,1060.6 1150.5,1057.5 Z"/></g>
<g><path style="opacity:1" fill="#1e85c4" d="M 1928.5,871.5 C 1929.83,987.167 1929.83,1102.83 1928.5,1218.5C 1927.68,1215.69 1927.18,1212.69 1927,1209.5C 1925.39,1211.6 1924.22,1213.93 1923.5,1216.5C 1923.17,1216.17 1922.83,1215.83 1922.5,1215.5C 1919.05,1207.61 1915.71,1199.78 1912.5,1192C 1848.1,1188.23 1783.77,1189.07 1719.5,1194.5C 1717.74,1202.38 1713.74,1208.71 1707.5,1213.5C 1707.5,1183.83 1707.5,1154.17 1707.5,1124.5C 1711.39,1123.62 1714.05,1121.28 1715.5,1117.5C 1717.17,1117.17 1718.83,1116.83 1720.5,1116.5C 1784.15,1112.76 1847.82,1112.6 1911.5,1116C 1914.88,1116.18 1918.22,1116.68 1921.5,1117.5C 1923.18,1120.17 1925.18,1122.51 1927.5,1124.5C 1928.5,1078.67 1928.83,1032.67 1928.5,986.5C 1928.5,948.167 1928.5,909.833 1928.5,871.5 Z"/></g>
<g><path style="opacity:1" fill="#d74f2d" d="M 742.5,1182.5 C 744.772,1184.02 746.105,1186.18 746.5,1189C 745.584,1189.28 744.918,1189.78 744.5,1190.5C 742.521,1193.15 740.188,1195.48 737.5,1197.5C 725.73,1224.36 714.564,1251.36 704,1278.5C 696.152,1296.19 688.319,1313.86 680.5,1331.5C 678.284,1330.8 676.451,1329.46 675,1327.5C 666.108,1347.21 653.942,1364.54 638.5,1379.5C 625.451,1372.15 611.451,1368.48 596.5,1368.5C 591.203,1361.67 591.203,1354.83 596.5,1348C 588.884,1341.69 588.551,1335.03 595.5,1328C 593.346,1325.01 591.013,1322.18 588.5,1319.5C 589.5,1319.5 590.5,1319.5 591.5,1319.5C 609.677,1327.67 628.677,1333 648.5,1335.5C 649.833,1318.17 649.833,1300.83 648.5,1283.5C 655.167,1283.5 661.833,1283.5 668.5,1283.5C 667.81,1288.11 669.31,1291.78 673,1294.5C 679.01,1288.82 684.677,1282.82 690,1276.5C 702.475,1248.86 714.475,1220.86 726,1192.5C 729.353,1185.65 734.853,1182.32 742.5,1182.5 Z"/></g>
<g><path style="opacity:1" fill="#1990cb" d="M 1928.5,1218.5 C 1928.25,1223.59 1927.42,1228.59 1926,1233.5C 1922.93,1241.37 1920.43,1249.37 1918.5,1257.5C 1914.22,1271.73 1908.55,1285.4 1901.5,1298.5C 1898.41,1296.24 1895.75,1293.41 1893.5,1290C 1890.83,1289.67 1888.17,1289.33 1885.5,1289C 1812.09,1286.43 1738.76,1287.27 1665.5,1291.5C 1664.89,1291.38 1664.56,1291.04 1664.5,1290.5C 1679.13,1272.6 1692.29,1253.6 1704,1233.5C 1706.93,1227.16 1708.09,1220.49 1707.5,1213.5C 1713.74,1208.71 1717.74,1202.38 1719.5,1194.5C 1783.77,1189.07 1848.1,1188.23 1912.5,1192C 1915.71,1199.78 1919.05,1207.61 1922.5,1215.5C 1922.83,1215.83 1923.17,1216.17 1923.5,1216.5C 1924.22,1213.93 1925.39,1211.6 1927,1209.5C 1927.18,1212.69 1927.68,1215.69 1928.5,1218.5 Z"/></g>
<g><path style="opacity:1" fill="#1997ca" d="M 1664.5,1290.5 C 1664.56,1291.04 1664.89,1291.38 1665.5,1291.5C 1738.76,1287.27 1812.09,1286.43 1885.5,1289C 1888.17,1289.33 1890.83,1289.67 1893.5,1290C 1895.75,1293.41 1898.41,1296.24 1901.5,1298.5C 1873.27,1346.42 1833.61,1381.08 1782.5,1402.5C 1776.24,1404.08 1769.91,1405.42 1763.5,1406.5C 1756.96,1407.05 1750.63,1408.05 1744.5,1409.5C 1720.59,1412.14 1696.59,1413.14 1672.5,1412.5C 1670.17,1412.5 1667.83,1412.5 1665.5,1412.5C 1658.17,1410.5 1650.83,1408.5 1643.5,1406.5C 1641.49,1405.08 1639.15,1404.41 1636.5,1404.5C 1631.82,1403.16 1627.15,1401.83 1622.5,1400.5C 1609.83,1393.83 1597.17,1387.17 1584.5,1380.5C 1574.79,1373.47 1564.79,1366.81 1554.5,1360.5C 1534.12,1339.47 1516.45,1316.47 1501.5,1291.5C 1497.84,1281.52 1494.17,1271.52 1490.5,1261.5C 1490.43,1261.06 1490.6,1260.73 1491,1260.5C 1504.51,1273.67 1518.34,1286.51 1532.5,1299C 1578.17,1321.98 1622.17,1319.15 1664.5,1290.5 Z"/></g>
<g><path style="opacity:1" fill="#76ad3d" d="M 1918.5,1257.5 C 1919.12,1257.92 1919.46,1258.58 1919.5,1259.5C 1908.78,1312.58 1886.62,1359.91 1853,1401.5C 1848.9,1404.1 1845.73,1407.43 1843.5,1411.5C 1839.83,1414.5 1836.5,1417.83 1833.5,1421.5C 1828.08,1426.07 1822.75,1430.9 1817.5,1436C 1810.9,1439.55 1804.9,1443.71 1799.5,1448.5C 1795.51,1446.88 1793.17,1443.88 1792.5,1439.5C 1798.1,1427.69 1802.1,1415.35 1804.5,1402.5C 1796.97,1402.72 1789.63,1402.72 1782.5,1402.5C 1833.61,1381.08 1873.27,1346.42 1901.5,1298.5C 1908.55,1285.4 1914.22,1271.73 1918.5,1257.5 Z"/></g>
<g><path style="opacity:1" fill="#cf3f2b" d="M 405.5,1362.5 C 406.6,1363.56 407.934,1364.39 409.5,1365C 422.794,1368.09 436.127,1370.92 449.5,1373.5C 450.96,1362.98 453.96,1352.98 458.5,1343.5C 456.355,1340.93 453.688,1339.09 450.5,1338C 450.833,1337.67 451.167,1337.33 451.5,1337C 464.796,1335.67 478.129,1335.17 491.5,1335.5C 508.184,1337 524.184,1341 539.5,1347.5C 542.945,1342.94 545.612,1337.94 547.5,1332.5C 544.557,1328.51 540.557,1326.85 535.5,1327.5C 536.295,1316.79 538.795,1306.46 543,1296.5C 543.383,1295.94 543.883,1295.61 544.5,1295.5C 558.87,1304.07 573.537,1312.07 588.5,1319.5C 591.013,1322.18 593.346,1325.01 595.5,1328C 588.551,1335.03 588.884,1341.69 596.5,1348C 591.203,1354.83 591.203,1361.67 596.5,1368.5C 592.738,1370.96 591.738,1374.29 593.5,1378.5C 595.71,1379.77 597.71,1381.27 599.5,1383C 597.685,1384.7 596.685,1386.87 596.5,1389.5C 596.889,1393.33 597.889,1397 599.5,1400.5C 596.438,1407.53 591.104,1410.03 583.5,1408C 562.113,1401.65 541.113,1394.32 520.5,1386C 512.182,1384.48 503.848,1384.31 495.5,1385.5C 498.166,1399.84 498.166,1414.17 495.5,1428.5C 472.03,1429.19 449.03,1426.36 426.5,1420C 413.403,1407.63 404.57,1392.8 400,1375.5C 397.108,1373.42 393.941,1372.09 390.5,1371.5C 376.997,1343.32 364.664,1314.65 353.5,1285.5C 354.15,1285.8 354.817,1286.14 355.5,1286.5C 356.833,1285.5 358.167,1284.5 359.5,1283.5C 368.942,1313.4 384.275,1339.73 405.5,1362.5 Z"/></g>
<g><path style="opacity:1" fill="#ceab2f" d="M 1501.5,1291.5 C 1516.45,1316.47 1534.12,1339.47 1554.5,1360.5C 1553.93,1361.97 1553.09,1363.31 1552,1364.5C 1547.65,1359.41 1542.48,1355.41 1536.5,1352.5C 1534.3,1359.1 1532.3,1365.77 1530.5,1372.5C 1537.67,1396.63 1533.67,1418.63 1518.5,1438.5C 1525.09,1442.59 1530.09,1448.09 1533.5,1455C 1526.59,1467.49 1519.92,1480.16 1513.5,1493C 1518.41,1497.97 1524.41,1500.64 1531.5,1501C 1530.94,1501.38 1530.61,1501.88 1530.5,1502.5C 1516.07,1505.88 1501.4,1507.22 1486.5,1506.5C 1484.21,1506.41 1482.21,1505.74 1480.5,1504.5C 1481.6,1503.4 1481.76,1502.07 1481,1500.5C 1480.03,1498.7 1478.86,1497.03 1477.5,1495.5C 1479.48,1493.02 1481.65,1490.68 1484,1488.5C 1484.67,1487.83 1484.67,1487.17 1484,1486.5C 1478.65,1482.98 1472.81,1480.65 1466.5,1479.5C 1475.77,1465.15 1483.44,1449.82 1489.5,1433.5C 1477.8,1428.38 1465.8,1424.04 1453.5,1420.5C 1468.38,1395.09 1483.55,1369.76 1499,1344.5C 1501.08,1337.66 1501.91,1330.66 1501.5,1323.5C 1497.5,1323.5 1493.5,1323.5 1489.5,1323.5C 1490.97,1311.75 1494.97,1301.08 1501.5,1291.5 Z"/></g>
<g><path style="opacity:1" fill="#c2d9e5" d="M 1578.5,1296.5 C 1589.5,1296.5 1600.5,1296.5 1611.5,1296.5C 1607.59,1297.94 1603.43,1298.61 1599,1298.5C 1591.98,1298.21 1585.15,1297.54 1578.5,1296.5 Z"/></g>
<g><path style="opacity:1" fill="#d7692f" d="M 880.5,1347.5 C 883.308,1349.44 886.308,1351.27 889.5,1353C 910.996,1361.79 933.33,1366.96 956.5,1368.5C 958.018,1379.69 963.018,1389.02 971.5,1396.5C 970.747,1398.75 969.414,1400.59 967.5,1402C 963.833,1404.17 960.167,1406.33 956.5,1408.5C 959.732,1409.95 963.065,1411.12 966.5,1412C 971.684,1412.17 976.684,1412.67 981.5,1413.5C 984.502,1417.97 984.169,1422.14 980.5,1426C 993.888,1426.2 999.221,1432.7 996.5,1445.5C 998.75,1447.65 1001.08,1449.81 1003.5,1452C 997.772,1454.43 991.772,1455.93 985.5,1456.5C 966.373,1454.13 947.373,1451.3 928.5,1448C 932.361,1453.03 936.028,1458.19 939.5,1463.5C 936.996,1470.82 936.996,1478.15 939.5,1485.5C 953.449,1482.79 956.116,1486.79 947.5,1497.5C 923.349,1498.34 902.683,1490.34 885.5,1473.5C 883.541,1475.55 882.041,1477.89 881,1480.5C 878.136,1475.8 873.969,1473.46 868.5,1473.5C 861.519,1461.54 855.019,1449.21 849,1436.5C 836.31,1408.47 823.977,1380.14 812,1351.5C 807.743,1339.56 803.576,1327.56 799.5,1315.5C 801.129,1314.37 802.629,1313.04 804,1311.5C 809.5,1321.83 815,1332.17 820.5,1342.5C 821.806,1341.09 822.64,1339.42 823,1337.5C 823.893,1336.92 824.893,1336.59 826,1336.5C 844.074,1340.79 862.241,1344.45 880.5,1347.5 Z"/></g>
<g><path style="opacity:1" fill="#e3a62c" d="M 1281.5,1319.5 C 1283.02,1320.17 1284.36,1321.17 1285.5,1322.5C 1286.81,1321.69 1287.98,1320.69 1289,1319.5C 1300.22,1338.73 1314.38,1355.56 1331.5,1370C 1349.12,1371.6 1366.79,1371.93 1384.5,1371C 1395.79,1369.57 1406.79,1367.07 1417.5,1363.5C 1424.58,1364.04 1429.58,1367.54 1432.5,1374C 1422.05,1384.4 1415.38,1396.9 1412.5,1411.5C 1424.2,1415.76 1436.2,1418.76 1448.5,1420.5C 1446.41,1435.74 1439.75,1448.58 1428.5,1459C 1422.9,1460.46 1417.24,1460.79 1411.5,1460C 1381.54,1436.53 1352.21,1412.36 1323.5,1387.5C 1304.95,1367.75 1290.95,1345.08 1281.5,1319.5 Z"/></g>
<g><path style="opacity:1" fill="#c74629" d="M 680.5,1331.5 C 662.66,1376.69 643.66,1421.36 623.5,1465.5C 622.038,1464.54 620.705,1463.38 619.5,1462C 618.833,1461.33 618.167,1461.33 617.5,1462C 593.345,1494.81 561.012,1508.14 520.5,1502C 519.536,1497.93 519.203,1493.77 519.5,1489.5C 513.305,1489.89 507.305,1489.06 501.5,1487C 498.66,1484.52 497.326,1481.35 497.5,1477.5C 497.829,1473.06 498.329,1468.73 499,1464.5C 495.708,1461.68 491.875,1460.35 487.5,1460.5C 488.916,1449.5 491.582,1438.84 495.5,1428.5C 498.166,1414.17 498.166,1399.84 495.5,1385.5C 503.848,1384.31 512.182,1384.48 520.5,1386C 541.113,1394.32 562.113,1401.65 583.5,1408C 591.104,1410.03 596.438,1407.53 599.5,1400.5C 597.889,1397 596.889,1393.33 596.5,1389.5C 596.685,1386.87 597.685,1384.7 599.5,1383C 597.71,1381.27 595.71,1379.77 593.5,1378.5C 591.738,1374.29 592.738,1370.96 596.5,1368.5C 611.451,1368.48 625.451,1372.15 638.5,1379.5C 653.942,1364.54 666.108,1347.21 675,1327.5C 676.451,1329.46 678.284,1330.8 680.5,1331.5 Z"/></g>
<g><path style="opacity:1" fill="#d36f30" d="M 1104.5,1351.5 C 1095.97,1377.74 1085.31,1403.08 1072.5,1427.5C 1070.1,1427.61 1068.26,1426.61 1067,1424.5C 1060.63,1448.19 1048.46,1468.36 1030.5,1485C 1016.47,1495.23 1000.81,1501.57 983.5,1504C 972.76,1504.93 962.093,1504.6 951.5,1503C 949.531,1501.5 948.198,1499.67 947.5,1497.5C 956.116,1486.79 953.449,1482.79 939.5,1485.5C 936.996,1478.15 936.996,1470.82 939.5,1463.5C 936.028,1458.19 932.361,1453.03 928.5,1448C 947.373,1451.3 966.373,1454.13 985.5,1456.5C 991.772,1455.93 997.772,1454.43 1003.5,1452C 1001.08,1449.81 998.75,1447.65 996.5,1445.5C 999.221,1432.7 993.888,1426.2 980.5,1426C 984.169,1422.14 984.502,1417.97 981.5,1413.5C 993.079,1415.49 1004.75,1416.49 1016.5,1416.5C 1016.18,1420.55 1016.51,1424.55 1017.5,1428.5C 1029.03,1426.74 1039.69,1429.07 1049.5,1435.5C 1050.19,1434.97 1050.69,1434.31 1051,1433.5C 1051.67,1429.83 1051.67,1426.17 1051,1422.5C 1048.94,1417.44 1045.77,1413.28 1041.5,1410C 1042.48,1408.34 1043.48,1406.68 1044.5,1405C 1040.79,1402.16 1037.13,1399.32 1033.5,1396.5C 1037.53,1394.28 1041.87,1393.11 1046.5,1393C 1054.54,1392.91 1062.54,1392.74 1070.5,1392.5C 1082.68,1379.48 1092.34,1364.81 1099.5,1348.5C 1101.03,1349.76 1102.7,1350.76 1104.5,1351.5 Z"/></g>
<g><path style="opacity:1" fill="#c1ac32" d="M 1554.5,1360.5 C 1564.79,1366.81 1574.79,1373.47 1584.5,1380.5C 1582.62,1380.39 1582.29,1380.89 1583.5,1382C 1585.27,1383.44 1587.27,1384.44 1589.5,1385C 1588.78,1394.61 1586.28,1403.78 1582,1412.5C 1566.4,1440.37 1552.4,1469.04 1540,1498.5C 1537.27,1500.81 1534.1,1502.14 1530.5,1502.5C 1530.61,1501.88 1530.94,1501.38 1531.5,1501C 1524.41,1500.64 1518.41,1497.97 1513.5,1493C 1519.92,1480.16 1526.59,1467.49 1533.5,1455C 1530.09,1448.09 1525.09,1442.59 1518.5,1438.5C 1533.67,1418.63 1537.67,1396.63 1530.5,1372.5C 1532.3,1365.77 1534.3,1359.1 1536.5,1352.5C 1542.48,1355.41 1547.65,1359.41 1552,1364.5C 1553.09,1363.31 1553.93,1361.97 1554.5,1360.5 Z"/></g>
<g><path style="opacity:1" fill="#bb3d27" d="M 390.5,1371.5 C 393.941,1372.09 397.108,1373.42 400,1375.5C 404.57,1392.8 413.403,1407.63 426.5,1420C 449.03,1426.36 472.03,1429.19 495.5,1428.5C 491.582,1438.84 488.916,1449.5 487.5,1460.5C 491.875,1460.35 495.708,1461.68 499,1464.5C 498.329,1468.73 497.829,1473.06 497.5,1477.5C 497.326,1481.35 498.66,1484.52 501.5,1487C 507.305,1489.06 513.305,1489.89 519.5,1489.5C 519.203,1493.77 519.536,1497.93 520.5,1502C 561.012,1508.14 593.345,1494.81 617.5,1462C 618.167,1461.33 618.833,1461.33 619.5,1462C 620.705,1463.38 622.038,1464.54 623.5,1465.5C 622.685,1470.8 620.519,1475.46 617,1479.5C 575.945,1523.51 527.445,1533.68 471.5,1510C 465.031,1505.7 458.697,1501.2 452.5,1496.5C 447.833,1491.17 442.833,1486.17 437.5,1481.5C 431.155,1472.15 425.821,1462.15 421.5,1451.5C 410.363,1425.08 400.029,1398.41 390.5,1371.5 Z"/></g>
<g><path style="opacity:1" fill="#b2a530" d="M 1584.5,1380.5 C 1597.17,1387.17 1609.83,1393.83 1622.5,1400.5C 1617.23,1401.61 1611.89,1402.94 1606.5,1404.5C 1610.98,1408.58 1615.98,1411.91 1621.5,1414.5C 1619.32,1415.66 1617.32,1416.99 1615.5,1418.5C 1617.15,1420.65 1618.98,1422.65 1621,1424.5C 1622.3,1426.36 1622.63,1428.36 1622,1430.5C 1618.77,1437.55 1614.93,1444.22 1610.5,1450.5C 1625.15,1469.37 1625.15,1488.2 1610.5,1507C 1614.77,1507.9 1618.77,1509.4 1622.5,1511.5C 1618.71,1513.56 1614.71,1515.06 1610.5,1516C 1611.5,1517 1612.5,1518 1613.5,1519C 1593.22,1521.12 1572.89,1521.96 1552.5,1521.5C 1529.73,1519.28 1507.73,1514.28 1486.5,1506.5C 1501.4,1507.22 1516.07,1505.88 1530.5,1502.5C 1534.1,1502.14 1537.27,1500.81 1540,1498.5C 1552.4,1469.04 1566.4,1440.37 1582,1412.5C 1586.28,1403.78 1588.78,1394.61 1589.5,1385C 1587.27,1384.44 1585.27,1383.44 1583.5,1382C 1582.29,1380.89 1582.62,1380.39 1584.5,1380.5 Z"/></g>
<g><path style="opacity:1" fill="#d0a02c" d="M 1323.5,1387.5 C 1352.21,1412.36 1381.54,1436.53 1411.5,1460C 1417.24,1460.79 1422.9,1460.46 1428.5,1459C 1439.75,1448.58 1446.41,1435.74 1448.5,1420.5C 1450.17,1420.5 1451.83,1420.5 1453.5,1420.5C 1465.8,1424.04 1477.8,1428.38 1489.5,1433.5C 1483.44,1449.82 1475.77,1465.15 1466.5,1479.5C 1472.81,1480.65 1478.65,1482.98 1484,1486.5C 1484.67,1487.17 1484.67,1487.83 1484,1488.5C 1481.65,1490.68 1479.48,1493.02 1477.5,1495.5C 1478.86,1497.03 1480.03,1498.7 1481,1500.5C 1481.76,1502.07 1481.6,1503.4 1480.5,1504.5C 1433.39,1488.81 1392.39,1463.81 1357.5,1429.5C 1353.17,1424.5 1348.5,1419.83 1343.5,1415.5C 1336.47,1408.46 1330.14,1400.79 1324.5,1392.5C 1323.55,1390.95 1323.21,1389.29 1323.5,1387.5 Z"/></g>
<g><path style="opacity:1" fill="#a0a331" d="M 1622.5,1400.5 C 1627.15,1401.83 1631.82,1403.16 1636.5,1404.5C 1638.51,1405.92 1640.85,1406.59 1643.5,1406.5C 1650.83,1408.5 1658.17,1410.5 1665.5,1412.5C 1665.06,1414.07 1664.06,1415.24 1662.5,1416C 1660.06,1416.85 1657.73,1417.85 1655.5,1419C 1660.15,1422.8 1663.81,1427.3 1666.5,1432.5C 1660.94,1445.46 1654.61,1458.13 1647.5,1470.5C 1656.73,1473.59 1663.07,1479.59 1666.5,1488.5C 1661.08,1499.35 1653.74,1508.69 1644.5,1516.5C 1640.19,1518.66 1635.86,1520.82 1631.5,1523C 1604.93,1526.7 1578.6,1526.2 1552.5,1521.5C 1572.89,1521.96 1593.22,1521.12 1613.5,1519C 1612.5,1518 1611.5,1517 1610.5,1516C 1614.71,1515.06 1618.71,1513.56 1622.5,1511.5C 1618.77,1509.4 1614.77,1507.9 1610.5,1507C 1625.15,1488.2 1625.15,1469.37 1610.5,1450.5C 1614.93,1444.22 1618.77,1437.55 1622,1430.5C 1622.63,1428.36 1622.3,1426.36 1621,1424.5C 1618.98,1422.65 1617.15,1420.65 1615.5,1418.5C 1617.32,1416.99 1619.32,1415.66 1621.5,1414.5C 1615.98,1411.91 1610.98,1408.58 1606.5,1404.5C 1611.89,1402.94 1617.23,1401.61 1622.5,1400.5 Z"/></g>
<g><path style="opacity:1" fill="#83aa39" d="M 1782.5,1402.5 C 1789.63,1402.72 1796.97,1402.72 1804.5,1402.5C 1802.1,1415.35 1798.1,1427.69 1792.5,1439.5C 1793.17,1443.88 1795.51,1446.88 1799.5,1448.5C 1779.72,1469.74 1755.72,1484.41 1727.5,1492.5C 1731.63,1481.57 1737.8,1471.91 1746,1463.5C 1748.79,1455.02 1750.62,1446.36 1751.5,1437.5C 1740.89,1438.19 1730.56,1436.86 1720.5,1433.5C 1718.71,1430.75 1717.04,1427.92 1715.5,1425C 1718.94,1421.95 1722.94,1419.95 1727.5,1419C 1708.89,1417.93 1690.56,1415.77 1672.5,1412.5C 1696.59,1413.14 1720.59,1412.14 1744.5,1409.5C 1751.16,1409.69 1757.49,1408.69 1763.5,1406.5C 1769.91,1405.42 1776.24,1404.08 1782.5,1402.5 Z"/></g>
<g><path style="opacity:1" fill="#579c8e" d="M 1636.5,1404.5 C 1639.15,1404.41 1641.49,1405.08 1643.5,1406.5C 1640.85,1406.59 1638.51,1405.92 1636.5,1404.5 Z"/></g>
<g><path style="opacity:1" fill="#64a36b" d="M 1763.5,1406.5 C 1757.49,1408.69 1751.16,1409.69 1744.5,1409.5C 1750.63,1408.05 1756.96,1407.05 1763.5,1406.5 Z"/></g>
<g><path style="opacity:1" fill="#97a934" d="M 1665.5,1412.5 C 1667.83,1412.5 1670.17,1412.5 1672.5,1412.5C 1690.56,1415.77 1708.89,1417.93 1727.5,1419C 1722.94,1419.95 1718.94,1421.95 1715.5,1425C 1717.04,1427.92 1718.71,1430.75 1720.5,1433.5C 1730.56,1436.86 1740.89,1438.19 1751.5,1437.5C 1750.62,1446.36 1748.79,1455.02 1746,1463.5C 1737.8,1471.91 1731.63,1481.57 1727.5,1492.5C 1709.05,1504.82 1688.71,1512.32 1666.5,1515C 1659.21,1516.19 1651.88,1516.69 1644.5,1516.5C 1653.74,1508.69 1661.08,1499.35 1666.5,1488.5C 1663.07,1479.59 1656.73,1473.59 1647.5,1470.5C 1654.61,1458.13 1660.94,1445.46 1666.5,1432.5C 1663.81,1427.3 1660.15,1422.8 1655.5,1419C 1657.73,1417.85 1660.06,1416.85 1662.5,1416C 1664.06,1415.24 1665.06,1414.07 1665.5,1412.5 Z"/></g>
<g><path style="opacity:1" fill="#c7d9b2" d="M 1843.5,1411.5 C 1841.17,1415.83 1837.83,1419.17 1833.5,1421.5C 1836.5,1417.83 1839.83,1414.5 1843.5,1411.5 Z"/></g>
<g><path style="opacity:1" fill="#e4d3ac" d="M 1343.5,1415.5 C 1348.5,1419.83 1353.17,1424.5 1357.5,1429.5C 1351.83,1425.83 1347.17,1421.17 1343.5,1415.5 Z"/></g>
<g><path style="opacity:1" fill="#c4652c" d="M 1072.5,1427.5 C 1046.41,1506.56 992.741,1535.39 911.5,1514C 892.178,1505.85 877.845,1492.35 868.5,1473.5C 873.969,1473.46 878.136,1475.8 881,1480.5C 882.041,1477.89 883.541,1475.55 885.5,1473.5C 902.683,1490.34 923.349,1498.34 947.5,1497.5C 948.198,1499.67 949.531,1501.5 951.5,1503C 962.093,1504.6 972.76,1504.93 983.5,1504C 1000.81,1501.57 1016.47,1495.23 1030.5,1485C 1048.46,1468.36 1060.63,1448.19 1067,1424.5C 1068.26,1426.61 1070.1,1427.61 1072.5,1427.5 Z"/></g>
<g><path style="opacity:1" fill="#e3bcb6" d="M 437.5,1481.5 C 442.833,1486.17 447.833,1491.17 452.5,1496.5C 446.5,1492.5 441.5,1487.5 437.5,1481.5 Z"/></g>
</svg>
